STARTFONT 2.1
COMMENT  
COMMENT  40x40 JIS Supplementary Kanji Font, Version 1.1 (January 31, 1995)
COMMENT    made of Adobe-NewCenturySchoolbook, Adobe-Symbol, and CBS-CNS fonts
COMMENT  Rearranged and modified by
COMMENT    Koichi Yasuoka <yasuoka@kudpc.kyoto-u.ac.jp>
COMMENT 
FONT -Adobe&CBS&Yasuoka-Fixed-Medium-R-Normal--40-390-75-75-C-400-JISX0212.1990-0
SIZE 39 75 75
FONTBOUNDINGBOX 40 40 0 -3
STARTPROPERTIES 18
FONT_ASCENT 37
FONT_DESCENT 3
COPYRIGHT "Adobe Systems Incorporated; Linotype; Central Bureau of Standards, Ministry of Economy, ROC"
COMMENT 
COMMENT  Permission to use, copy, modify, and distribute this software and
COMMENT  its documentation for any purpose and without fee is hereby granted,
COMMENT  provided that the above copyright notices appear in all copies and
COMMENT  that both those copyright notices and this permission notice appear
COMMENT  in supporting documentation, and that the names of Adobe Systems,
COMMENT  Linotype, and CBS not be used in advertising or publicity pertaining
COMMENT  to distribution of the software without specific, written prior
COMMENT  permission.
COMMENT 
FONTNAME_REGISTRY ""
FOUNDRY "Adobe&CBS&Yasuoka"
FAMILY_NAME "Fixed"
WEIGHT_NAME "Medium"
SLANT "R"
SETWIDTH_NAME "Normal"
ADD_STYLE_NAME ""
PIXEL_SIZE 40
POINT_SIZE 390
RESOLUTION_X 75
RESOLUTION_Y 75
SPACING "C"
AVERAGE_WIDTH 400
CHARSET_REGISTRY "JISX0212.1990"
CHARSET_ENCODING "0"
ENDPROPERTIES
CHARS 6067
STARTCHAR breve
ENCODING 8751
SWIDTH 985 0
DWIDTH 40 0
BBX 40 40 0 -3
BITMAP
0000000000
0000000000
0000000000
0000000000
0000000000
0000000000
0000000000
0000000000
0000000000
0000000000
0000000000
0000000000
0000808000
0000c18000
00007f0000
00001c0000
0000000000
0000000000
0000000000
0000000000
0000000000
0000000000
0000000000
0000000000
0000000000
0000000000
0000000000
0000000000
0000000000
0000000000
0000000000
0000000000
0000000000
0000000000
0000000000
0000000000
0000000000
0000000000
0000000000
0000000000
ENDCHAR
STARTCHAR caron
ENCODING 8752
SWIDTH 985 0
DWIDTH 40 0
BBX 40 40 0 -3
BITMAP
0000000000
0000000000
0000000000
0000000000
0000000000
0000000000
0000000000
0000000000
0000000000
0000000000
0000000000
0001818000
0000c30000
00007e0000
00003c0000
0000180000
0000000000
0000000000
0000000000
0000000000
0000000000
0000000000
0000000000
0000000000
0000000000
0000000000
0000000000
0000000000
0000000000
0000000000
0000000000
0000000000
0000000000
0000000000
0000000000
0000000000
0000000000
0000000000
0000000000
0000000000
ENDCHAR
STARTCHAR cedilla
ENCODING 8753
SWIDTH 985 0
DWIDTH 40 0
BBX 40 40 0 -3
BITMAP
0000000000
0000000000
0000000000
0000000000
0000000000
0000000000
0000000000
0000000000
0000000000
0000000000
0000000000
0000000000
0000000000
0000000000
0000000000
0000000000
0000000000
0000000000
0000000000
0000000000
0000000000
0000000000
0000000000
0000000000
0000000000
0000000000
0000000000
0000000000
0000000000
0000000000
0000000000
0000000000
0000000000
0000080000
0000100000
00003c0000
0000060000
0000060000
0000460000
00003c0000
ENDCHAR
STARTCHAR dotaccent
ENCODING 8754
SWIDTH 985 0
DWIDTH 40 0
BBX 40 40 0 -3
BITMAP
0000000000
0000000000
0000000000
0000000000
0000000000
0000000000
0000000000
0000000000
0000000000
0000000000
0000000000
0000000000
0000000000
0000180000
00003c0000
0000180000
0000000000
0000000000
0000000000
0000000000
0000000000
0000000000
0000000000
0000000000
0000000000
0000000000
0000000000
0000000000
0000000000
0000000000
0000000000
0000000000
0000000000
0000000000
0000000000
0000000000
0000000000
0000000000
0000000000
0000000000
ENDCHAR
STARTCHAR hungarumlaut
ENCODING 8755
SWIDTH 985 0
DWIDTH 40 0
BBX 40 40 0 -3
BITMAP
0000000000
0000000000
0000000000
0000000000
0000000000
0000000000
0000000000
0000000000
0000000000
0000000000
0000330000
0000330000
0000660000
0000660000
0000440000
0000440000
0000000000
0000000000
0000000000
0000000000
0000000000
0000000000
0000000000
0000000000
0000000000
0000000000
0000000000
0000000000
0000000000
0000000000
0000000000
0000000000
0000000000
0000000000
0000000000
0000000000
0000000000
0000000000
0000000000
0000000000
ENDCHAR
STARTCHAR macron
ENCODING 8756
SWIDTH 985 0
DWIDTH 40 0
BBX 40 40 0 -3
BITMAP
0000000000
0000000000
0000000000
0000000000
0000000000
0000000000
0000000000
0000000000
0000000000
0000000000
0000000000
0000000000
0001ff8000
0001ff8000
0000000000
0000000000
0000000000
0000000000
0000000000
0000000000
0000000000
0000000000
0000000000
0000000000
0000000000
0000000000
0000000000
0000000000
0000000000
0000000000
0000000000
0000000000
0000000000
0000000000
0000000000
0000000000
0000000000
0000000000
0000000000
0000000000
ENDCHAR
STARTCHAR ogonek
ENCODING 8757
SWIDTH 985 0
DWIDTH 40 0
BBX 40 40 0 -3
BITMAP
0000000000
0000000000
0000000000
0000000000
0000000000
0000000000
0000000000
0000000000
0000000000
0000000000
0000000000
0000000000
0000000000
0000000000
0000000000
0000000000
0000000000
0000000000
0000000000
0000000000
0000000000
0000000000
0000000000
0000000000
0000000000
0000000000
0000000000
0000000000
0000000000
0000000000
0000000000
0000000000
0000000000
0000180000
0000300000
0000700000
00007e0000
00003c0000
0000000000
0000000000
ENDCHAR
STARTCHAR ring
ENCODING 8758
SWIDTH 985 0
DWIDTH 40 0
BBX 40 40 0 -3
BITMAP
0000000000
0000000000
0000000000
0000000000
0000000000
0000000000
0000000000
0000000000
0000000000
0000000000
00003c0000
0000660000
0000420000
0000420000
0000660000
00003c0000
0000000000
0000000000
0000000000
0000000000
0000000000
0000000000
0000000000
0000000000
0000000000
0000000000
0000000000
0000000000
0000000000
0000000000
0000000000
0000000000
0000000000
0000000000
0000000000
0000000000
0000000000
0000000000
0000000000
0000000000
ENDCHAR
STARTCHAR tilde
ENCODING 8759
SWIDTH 985 0
DWIDTH 40 0
BBX 40 40 0 -3
BITMAP
0000000000
0000000000
0000000000
0000000000
0000000000
0000000000
0000000000
0000000000
0000000000
0000000000
0000000000
0000000000
0000000000
000078c000
0000ff8000
00018f0000
0000000000
0000000000
0000000000
0000000000
0000000000
0000000000
0000000000
0000000000
0000000000
0000000000
0000000000
0000000000
0000000000
0000000000
0000000000
0000000000
0000000000
0000000000
0000000000
0000000000
0000000000
0000000000
0000000000
0000000000
ENDCHAR
STARTCHAR quotesingle
ENCODING 8760
SWIDTH 985 0
DWIDTH 40 0
BBX 40 40 0 -3
BITMAP
0000000000
0000000000
0000000000
0000000000
0000000000
0000000000
0000000000
0000000000
00001c0000
00001c0000
00001c0000
00001c0000
0000080000
0000080000
0000080000
0000080000
0000000000
0000000000
0000000000
0000000000
0000000000
0000000000
0000000000
0000000000
0000000000
0000000000
0000000000
0000000000
0000000000
0000000000
0000000000
0000000000
0000000000
0000000000
0000000000
0000000000
0000000000
0000000000
0000000000
0000000000
ENDCHAR
STARTCHAR 02-25
ENCODING 8761
SWIDTH 985 0
DWIDTH 40 0
BBX 40 40 0 -3
BITMAP
0000000000
0000000000
0000000000
00001c0000
00001c0000
00001c0000
00001c0000
0000080000
0000080000
0000080000
0000080000
0000630000
0000f78000
0000630000
0000000000
0000000000
0000000000
0000000000
0000000000
0000000000
0000000000
0000000000
0000000000
0000000000
0000000000
0000000000
0000000000
0000000000
0000000000
0000000000
0000000000
0000000000
0000000000
0000000000
0000000000
0000000000
0000000000
0000000000
0000000000
0000000000
ENDCHAR
STARTCHAR exclamdown
ENCODING 8770
SWIDTH 985 0
DWIDTH 40 0
BBX 40 40 0 -3
BITMAP
0000000000
0000000000
0000000000
0000000000
0000000000
0000000000
0000000000
0000000000
0000000000
0000000000
0000000000
0000000000
0000000000
0000000000
0000000000
0000180000
00003c0000
00003c0000
0000180000
0000000000
0000000000
0000000000
0000180000
0000180000
0000180000
0000180000
0000180000
0000180000
0000180000
0000180000
0000180000
0000180000
0000180000
00003c0000
00003c0000
00003c0000
00003c0000
00003c0000
00003c0000
0000180000
ENDCHAR
STARTCHAR brokenbar
ENCODING 8771
SWIDTH 985 0
DWIDTH 40 0
BBX 40 40 0 -3
BITMAP
0000000000
0000000000
0000000000
0000000000
0000000000
0000000000
0000000000
0000000000
0000180000
0000180000
0000180000
0000180000
0000180000
0000180000
0000180000
0000180000
0000180000
0000180000
0000000000
0000000000
0000000000
0000000000
0000000000
0000180000
0000180000
0000180000
0000180000
0000180000
0000180000
0000180000
0000180000
0000180000
0000180000
0000000000
0000000000
0000000000
0000000000
0000000000
0000000000
0000000000
ENDCHAR
STARTCHAR questiondown
ENCODING 8772
SWIDTH 985 0
DWIDTH 40 0
BBX 40 40 0 -3
BITMAP
0000000000
0000000000
0000000000
0000000000
0000000000
0000000000
0000000000
0000000000
0000000000
0000000000
0000000000
0000000000
0000000000
0000000000
0000000000
00000c0000
00001e0000
00001e0000
00000c0000
0000000000
0000000000
0000000000
00000c0000
00000c0000
0000080000
0000080000
0000180000
0000300000
0000700000
0000e00000
0001e00000
0001c00000
0003c00000
000381c000
000381c000
000381c000
0003c0c000
0001c0c000
0000f38000
00007f0000
ENDCHAR
STARTCHAR ordmasculine
ENCODING 8811
SWIDTH 985 0
DWIDTH 40 0
BBX 40 40 0 -3
BITMAP
0000000000
0000000000
0000000000
0700000000
1dc0000000
3060000000
7070000000
6030000000
6030000000
7070000000
3060000000
1dc0000000
0700000000
0000000000
0000000000
0000000000
3fe0000000
0000000000
0000000000
0000000000
0000000000
0000000000
0000000000
0000000000
0000000000
0000000000
0000000000
0000000000
0000000000
0000000000
0000000000
0000000000
0000000000
0000000000
0000000000
0000000000
0000000000
0000000000
0000000000
0000000000
ENDCHAR
STARTCHAR ordfeminine
ENCODING 8812
SWIDTH 985 0
DWIDTH 40 0
BBX 40 40 0 -3
BITMAP
0000000000
0000000000
0000000000
1f80000000
31c0000000
30c0000000
31c0000000
07c0000000
3cc0000000
70c0000000
60c0000000
71c0000000
3ef0000000
0000000000
0000000000
0000000000
7fe0000000
0000000000
0000000000
0000000000
0000000000
0000000000
0000000000
0000000000
0000000000
0000000000
0000000000
0000000000
0000000000
0000000000
0000000000
0000000000
0000000000
0000000000
0000000000
0000000000
0000000000
0000000000
0000000000
0000000000
ENDCHAR
STARTCHAR copyright
ENCODING 8813
SWIDTH 985 0
DWIDTH 40 0
BBX 40 40 0 -3
BITMAP
0000000000
0000000000
0000000000
0000000000
0000000000
0000000000
0000000000
0000000000
00007e0000
0003ff8000
000781e000
000e007000
0018003800
0030001c00
00307f0c00
0060e38600
0061818600
0043808600
00c3008300
00c7000300
00c7000300
00c7000300
00c7000300
00c3000300
0043800600
0061c18600
0061e38c00
00307e0c00
0018001800
001c007000
000701e000
0003ff8000
00007e0000
0000000000
0000000000
0000000000
0000000000
0000000000
0000000000
0000000000
ENDCHAR
STARTCHAR registered
ENCODING 8814
SWIDTH 985 0
DWIDTH 40 0
BBX 40 40 0 -3
BITMAP
0000000000
0000000000
0000000000
0000000000
0000000000
0000000000
0000000000
0000000000
0000000000
00007e0000
0003ffc000
000f01f000
001c003800
0038001800
0033fc0c00
0060c70e00
0060c30600
0040c30600
00c0c30300
00c0c60300
00c0fc0300
00c0cc0300
00c0ce0300
00c0c60300
0060c70600
0060c30600
0060c38e00
0033e3cc00
0018001800
001c007000
000700e000
0003ffc000
00007e0000
0000000000
0000000000
0000000000
0000000000
0000000000
0000000000
0000000000
ENDCHAR
STARTCHAR trademark
ENCODING 8815
SWIDTH 985 0
DWIDTH 40 0
BBX 40 40 0 -3
BITMAP
0000000000
0000000000
0000000000
3ffcf01e00
318c701c00
2184783c00
0180583c00
0180582c00
01805c6c00
01804c4c00
01804ecc00
018046cc00
0180468c00
0180478c00
0180430c00
0180430c00
07e0f33f00
0000000000
0000000000
0000000000
0000000000
0000000000
0000000000
0000000000
0000000000
0000000000
0000000000
0000000000
0000000000
0000000000
0000000000
0000000000
0000000000
0000000000
0000000000
0000000000
0000000000
0000000000
0000000000
0000000000
ENDCHAR
STARTCHAR currency
ENCODING 8816
SWIDTH 985 0
DWIDTH 40 0
BBX 40 40 0 -3
BITMAP
0000000000
0000000000
0000000000
0000000000
0000000000
0000000000
0000000000
0000000000
0000000000
0000000000
0000000000
0000000000
0000000000
00043c2000
000eff7000
0007ffe000
0003c3c000
000700e000
000700e000
000e007000
000e007000
000e007000
000e007000
000e007000
000700e000
000700e000
0003c3c000
0007ffe000
000eff7000
00003c0000
0000000000
0000000000
0000000000
0000000000
0000000000
0000000000
0000000000
0000000000
0000000000
0000000000
ENDCHAR
STARTCHAR 02-81
ENCODING 8817
SWIDTH 985 0
DWIDTH 40 0
BBX 40 40 0 -3
BITMAP
0000000000
0000000000
0000000000
0000000000
0000000000
0000000000
0000000000
00000003c0
7f807feff0
0f801f9c38
07c006381c
07e006381c
07e006700e
06f006700e
06f806700e
067c06700e
063c06700e
063e06700e
061f06381c
060f06381c
060f861c38
0607c60ff0
0603c603c0
0603e60000
0601e60000
0600f60000
0600760000
06007e0000
06003e0000
06001e0000
06001e0000
1f800e0000
7fe0060000
0000000000
0000000000
0000000000
0000000000
0000000000
0000000000
0000000000
ENDCHAR
STARTCHAR 06-65
ENCODING 9825
SWIDTH 985 0
DWIDTH 40 0
BBX 40 40 0 -3
BITMAP
0000000000
0000000000
0000000000
0000000000
0000000000
001c000000
001c000000
001c000000
001c080000
00081c0000
00081c0000
00083c0000
00083e0000
00003e0000
00006e0000
00006f0000
0000cf0000
0000c70000
0000c78000
0001838000
000183c000
000183c000
000301c000
0003ffe000
0003ffe000
000600e000
000600f000
000600f000
000c007800
000c007800
001c007c00
003e00fe00
007f01ff00
0000000000
0000000000
0000000000
0000000000
0000000000
0000000000
0000000000
ENDCHAR
STARTCHAR 06-66
ENCODING 9826
SWIDTH 985 0
DWIDTH 40 0
BBX 40 40 0 -3
BITMAP
0000000000
0000000000
0000000000
0000000000
0000000000
0380000000
0380000000
0380000000
03bffffc00
010ffffc00
0103807c00
0103801c00
0103801c00
0003800c00
0003810c00
0003810400
0003810400
0003830000
00038f0000
0003ff0000
0003ff0000
00038f0000
0003830000
0003830000
0003810400
0003810400
0003800400
0003800c00
0003800c00
0003801c00
0003807c00
000ffffc00
003ffffc00
0000000000
0000000000
0000000000
0000000000
0000000000
0000000000
0000000000
ENDCHAR
STARTCHAR 06-67
ENCODING 9827
SWIDTH 985 0
DWIDTH 40 0
BBX 40 40 0 -3
BITMAP
0000000000
0000000000
0000000000
0000000000
0000000000
0e00000000
0e00000000
0e00000000
0effe3ff80
043f80fe00
040e003800
040e003800
040e003800
000e003800
000e003800
000e003800
000e003800
000e003800
000e003800
000ffff800
000ffff800
000e003800
000e003800
000e003800
000e003800
000e003800
000e003800
000e003800
000e003800
000e003800
000e003800
003f80fe00
00ffe3ff80
0000000000
0000000000
0000000000
0000000000
0000000000
0000000000
0000000000
ENDCHAR
STARTCHAR 06-68
ENCODING 9828
SWIDTH 985 0
DWIDTH 40 0
BBX 40 40 0 -3
BITMAP
0000000000
0000000000
0000000000
0000000000
0000000000
001c000000
001c000000
001c000000
001dffc000
00087f0000
00081c0000
00081c0000
00081c0000
00001c0000
00001c0000
00001c0000
00001c0000
00001c0000
00001c0000
00001c0000
00001c0000
00001c0000
00001c0000
00001c0000
00001c0000
00001c0000
00001c0000
00001c0000
00001c0000
00001c0000
00001c0000
00007f0000
0001ffc000
0000000000
0000000000
0000000000
0000000000
0000000000
0000000000
0000000000
ENDCHAR
STARTCHAR 06-69
ENCODING 9829
SWIDTH 985 0
DWIDTH 40 0
BBX 40 40 0 -3
BITMAP
0000000000
0000000000
0000000000
0000630000
0000f78000
0000630000
0000000000
0000000000
0001ffc000
00007f0000
00001c0000
00001c0000
00001c0000
00001c0000
00001c0000
00001c0000
00001c0000
00001c0000
00001c0000
00001c0000
00001c0000
00001c0000
00001c0000
00001c0000
00001c0000
00001c0000
00001c0000
00001c0000
00001c0000
00001c0000
00001c0000
00007f0000
0001ffc000
0000000000
0000000000
0000000000
0000000000
0000000000
0000000000
0000000000
ENDCHAR
STARTCHAR 06-71
ENCODING 9831
SWIDTH 985 0
DWIDTH 40 0
BBX 40 40 0 -3
BITMAP
0000000000
0000000000
0000000000
0000000000
0000000000
01c0000000
01c0000000
01c0000000
01c0ff0000
0083ffc000
008781e000
008e007000
009e007800
001c003800
003c003c00
0038001c00
0078001e00
0078001e00
0070000e00
0070000e00
0070000e00
0070000e00
0070000e00
0078001e00
0078001c00
0038001c00
003c003c00
001c003800
001e007800
000e007000
000781e000
0003ffc000
0000ff0000
0000000000
0000000000
0000000000
0000000000
0000000000
0000000000
0000000000
ENDCHAR
STARTCHAR 06-73
ENCODING 9833
SWIDTH 985 0
DWIDTH 40 0
BBX 40 40 0 -3
BITMAP
0000000000
0000000000
0000000000
0000000000
0000000000
01c0000000
01c0000000
01c0000000
01c0000000
0080000000
00bc007000
009f01f800
0083c31c00
0001c33c00
0000e63800
0000743800
0000740000
00007c0000
00007c0000
0000380000
0000380000
0000380000
0000380000
0000380000
0000380000
0000380000
0000380000
0000380000
0000380000
0000380000
0000380000
00007c0000
0001ff0000
0000000000
0000000000
0000000000
0000000000
0000000000
0000000000
0000000000
ENDCHAR
STARTCHAR 06-74
ENCODING 9834
SWIDTH 985 0
DWIDTH 40 0
BBX 40 40 0 -3
BITMAP
0000000000
0000000000
0000000000
0000000000
0000000000
0000000000
0000630000
0000f78000
0000630000
0000000000
003c007000
001f01f800
0003c31c00
0001c33c00
0000e63800
0000743800
0000740000
00007c0000
00007c0000
0000380000
0000380000
0000380000
0000380000
0000380000
0000380000
0000380000
0000380000
0000380000
0000380000
0000380000
0000380000
00007c0000
0001ff0000
0000000000
0000000000
0000000000
0000000000
0000000000
0000000000
0000000000
ENDCHAR
STARTCHAR 06-76
ENCODING 9836
SWIDTH 985 0
DWIDTH 40 0
BBX 40 40 0 -3
BITMAP
0000000000
0000000000
0000000000
0000000000
0000000000
01c0000000
01c0000000
01c0000000
01c0000000
0080000000
00807f0000
0081c1c000
0087007000
000f007800
000e003800
001e003c00
001c001c00
003c001e00
003c001e00
003c001e00
003c001e00
003c001e00
003c001e00
001c001c00
001e003c00
000e003800
0007007000
000380e000
0040c18100
0060410300
007fe3ff00
007fe3ff00
007fe3ff00
0000000000
0000000000
0000000000
0000000000
0000000000
0000000000
0000000000
ENDCHAR
STARTCHAR 06-81
ENCODING 9841
SWIDTH 985 0
DWIDTH 40 0
BBX 40 40 0 -3
BITMAP
0000000000
0000000000
0000000000
0000000000
0000000000
00001c0000
00001c0000
00001c0000
00001c0000
0000080000
0000080000
0000080000
0000080000
0000000000
0000000000
0000000000
0001f83000
00039c3000
0007067000
000e027000
000e02e000
001e03e000
001c01e000
001c01c000
001c01c000
001c01c000
001c038000
001e03c000
001e03c400
000e074400
000f0e7c00
00079c3800
0001f83800
0000000000
0000000000
0000000000
0000000000
0000000000
0000000000
0000000000
ENDCHAR
STARTCHAR 06-82
ENCODING 9842
SWIDTH 985 0
DWIDTH 40 0
BBX 40 40 0 -3
BITMAP
0000000000
0000000000
0000000000
0000000000
0000000000
00001c0000
00001c0000
00001c0000
00001c0000
0000080000
0000080000
0000080000
0000080000
0000000000
0000000000
0000000000
00007e0000
0000e78000
0001c38000
0003838000
0003810000
0003800000
0001c00000
0001e00000
00007e0000
0001e00000
0003c00000
0003800000
0003800000
0003804000
0003c0c000
0001e0c000
0000ff8000
00003e0000
0000000000
0000000000
0000000000
0000000000
0000000000
0000000000
ENDCHAR
STARTCHAR 06-83
ENCODING 9843
SWIDTH 985 0
DWIDTH 40 0
BBX 40 40 0 -3
BITMAP
0000000000
0000000000
0000000000
0000000000
0000000000
00001c0000
00001c0000
00001c0000
00001c0000
0000080000
0000080000
0000080000
0000080000
0000000000
0000000000
0000000000
0001838000
0007cfe000
000dfde000
000cf0f000
0008f07000
0000e07000
0000e07000
0000e07000
0000e07000
0000e07000
0000e07000
0000e07000
0000e07000
0000e07000
0000e07000
0000e07000
0000e07000
0000007000
0000007000
0000007000
0000007000
0000007000
0000003000
0000003800
ENDCHAR
STARTCHAR 06-84
ENCODING 9844
SWIDTH 985 0
DWIDTH 40 0
BBX 40 40 0 -3
BITMAP
0000000000
0000000000
0000000000
0000000000
0000000000
00001c0000
00001c0000
00001c0000
00001c0000
0000080000
0000080000
0000080000
0000080000
0000000000
0000000000
0000000000
0000080000
0000f80000
0001f80000
0000780000
0000380000
0000380000
0000380000
0000380000
0000380000
0000380000
0000380000
0000380000
0000380000
0000388000
0000398000
00001f8000
00001e0000
0000000000
0000000000
0000000000
0000000000
0000000000
0000000000
0000000000
ENDCHAR
STARTCHAR 06-85
ENCODING 9845
SWIDTH 985 0
DWIDTH 40 0
BBX 40 40 0 -3
BITMAP
0000000000
0000000000
0000000000
0000000000
0000000000
0000000000
0000000000
0000000000
0000000000
0000000000
0000000000
0000630000
0000f78000
0000630000
0000000000
0000000000
0000080000
0000f80000
0001f80000
0000780000
0000380000
0000380000
0000380000
0000380000
0000380000
0000380000
0000380000
0000380000
0000380000
0000388000
0000398000
00001f8000
00001e0000
0000000000
0000000000
0000000000
0000000000
0000000000
0000000000
0000000000
ENDCHAR
STARTCHAR 06-86
ENCODING 9846
SWIDTH 985 0
DWIDTH 40 0
BBX 40 40 0 -3
BITMAP
0000000000
0000000000
0000000000
00001c0000
00001c0000
00001c0000
00001c0000
0000080000
0000080000
0000080000
0000080000
0000630000
0000f78000
0000630000
0000000000
0000000000
0000080000
0000f80000
0001f80000
0000780000
0000380000
0000380000
0000380000
0000380000
0000380000
0000380000
0000380000
0000380000
0000380000
0000388000
0000398000
00001f8000
00001e0000
0000000000
0000000000
0000000000
0000000000
0000000000
0000000000
0000000000
ENDCHAR
STARTCHAR 06-87
ENCODING 9847
SWIDTH 985 0
DWIDTH 40 0
BBX 40 40 0 -3
BITMAP
0000000000
0000000000
0000000000
0000000000
0000000000
00001c0000
00001c0000
00001c0000
00001c0000
0000080000
0000080000
0000080000
0000080000
0000000000
0000000000
0000000000
00003e0000
0000e38000
000181c000
000381e000
000380e000
000700f000
0007007000
0007007000
0007007000
0007007000
0007007000
0007807000
000380e000
0003c0e000
0001c1c000
0000f38000
00007f0000
0000000000
0000000000
0000000000
0000000000
0000000000
0000000000
0000000000
ENDCHAR
STARTCHAR sigma1
ENCODING 9848
SWIDTH 985 0
DWIDTH 40 0
BBX 40 40 0 -3
BITMAP
0000000000
0000000000
0000000000
0000000000
0000000000
0000000000
0000000000
0000000000
0000000000
0000000000
0000000000
0000000000
0000000000
0000000000
0000000000
0000000000
00000f8000
00003fc000
00007fc000
0000c00000
0001800000
0001000000
0003000000
0003000000
0002000000
0002000000
0002000000
0003000000
0003000000
0003c00000
0001ffc000
0000ffc000
00007fe000
0000006000
0000002000
0000002000
0000006000
00001fc000
00001fc000
00001f0000
ENDCHAR
STARTCHAR 06-89
ENCODING 9849
SWIDTH 985 0
DWIDTH 40 0
BBX 40 40 0 -3
BITMAP
0000000000
0000000000
0000000000
0000000000
0000000000
00001c0000
00001c0000
00001c0000
00001c0000
0000080000
0000080000
0000080000
0000080000
0000000000
0000000000
0000010000
0003c18000
0007c1c000
000fc06000
000ce07000
0008e03000
0000e03000
0000e03800
0000e03800
0000e03800
0000e03800
0000e03800
0000e03000
0000e07000
0000707000
000070e000
000039c000
00001f8000
0000000000
0000000000
0000000000
0000000000
0000000000
0000000000
0000000000
ENDCHAR
STARTCHAR 06-90
ENCODING 9850
SWIDTH 985 0
DWIDTH 40 0
BBX 40 40 0 -3
BITMAP
0000000000
0000000000
0000000000
0000000000
0000000000
0000000000
0000000000
0000000000
0000000000
0000000000
0000000000
0000630000
0000f78000
0000630000
0000000000
0000010000
0003c18000
0007c1c000
000fc06000
000ce07000
0008e03000
0000e03000
0000e03800
0000e03800
0000e03800
0000e03800
0000e03800
0000e03000
0000e07000
0000707000
000070e000
000039c000
00001f8000
0000000000
0000000000
0000000000
0000000000
0000000000
0000000000
0000000000
ENDCHAR
STARTCHAR 06-91
ENCODING 9851
SWIDTH 985 0
DWIDTH 40 0
BBX 40 40 0 -3
BITMAP
0000000000
0000000000
0000000000
00001c0000
00001c0000
00001c0000
00001c0000
0000080000
0000080000
0000080000
0000080000
0000630000
0000f78000
0000630000
0000000000
0000010000
0003c18000
0007c1c000
000fc06000
000ce07000
0008e03000
0000e03000
0000e03800
0000e03800
0000e03800
0000e03800
0000e03800
0000e03000
0000e07000
0000707000
000070e000
000039c000
00001f8000
0000000000
0000000000
0000000000
0000000000
0000000000
0000000000
0000000000
ENDCHAR
STARTCHAR 06-92
ENCODING 9852
SWIDTH 985 0
DWIDTH 40 0
BBX 40 40 0 -3
BITMAP
0000000000
0000000000
0000000000
0000000000
0000000000
00001c0000
00001c0000
00001c0000
00001c0000
0000080000
0000080000
0000080000
0000080000
0000000000
0000000000
0000000000
0003c38000
000701e000
000e007000
001c187800
001c383800
0038383c00
0038383c00
0038381c00
0038381c00
0038381c00
0038381c00
0038101c00
0038383c00
001c383800
001c6c7800
000fc7f000
000783c000
0000000000
0000000000
0000000000
0000000000
0000000000
0000000000
0000000000
ENDCHAR
STARTCHAR 07-34
ENCODING 10050
SWIDTH 985 0
DWIDTH 40 0
BBX 40 40 0 -3
BITMAP
0000000000
0000000000
0000000000
0000000000
0000000000
0000000000
0000000000
0000000000
001ffffc00
001ffffc00
001e1c7c00
001c1c1c00
00181c0c00
00181c0c00
00101c0400
00101c0400
00101c0400
00001c7000
00001dfc00
00001f1e00
00001e0e00
00001c0700
00001c0700
00001c0700
00001c0700
00001c0700
00001c0700
00001c0700
00001c0700
00001c0700
00001c0700
00007f0700
0001ffe700
000000e700
000000e700
000000fe00
0000003800
0000000000
0000000000
0000000000
ENDCHAR
STARTCHAR 07-35
ENCODING 10051
SWIDTH 985 0
DWIDTH 40 0
BBX 40 40 0 -3
BITMAP
0000000000
0000000000
0000000000
0000030000
0000070000
00000e0000
00001c0000
0000300000
0000600000
0000000000
001ffff000
0007fff800
0007803800
0003801800
0003800800
0003800800
0003800000
0003800000
0003800000
0003800000
0003800000
0003800000
0003800000
0003800000
0003800000
0003800000
0003800000
0003800000
0003800000
0003800000
0003800000
0007c00000
001ff00000
0000000000
0000000000
0000000000
0000000000
0000000000
0000000000
0000000000
ENDCHAR
STARTCHAR 07-36
ENCODING 10052
SWIDTH 985 0
DWIDTH 40 0
BBX 40 40 0 -3
BITMAP
0000000000
0000000000
0000000000
0000000000
0000000000
0000000000
0000000000
0000000000
00007f0000
0001ffc000
000380e000
0007006000
000f003000
000e003800
001e001800
001e001800
003c000800
003c000800
003c000000
003c1e0000
003c7f8000
003fe1c000
003f80c000
003c000000
003c000c00
001e000c00
001e000c00
001e001800
000f001800
0007003000
0003c0e000
0001ffc000
00007f0000
0000000000
0000000000
0000000000
0000000000
0000000000
0000000000
0000000000
ENDCHAR
STARTCHAR 07-37
ENCODING 10053
SWIDTH 985 0
DWIDTH 40 0
BBX 40 40 0 -3
BITMAP
0000000000
0000000000
0000000000
0000000000
0000000000
0000000000
0000000000
0000000000
0000ff1000
0003ffb000
000701f000
0006007000
000e007000
000e003000
000e001000
000f001000
000f000000
0007e00000
0007fe0000
0001ffc000
00007fe000
000007f000
000000f800
0008007800
0008003800
000c003800
000c003800
000c003800
000e007800
000f007000
000f80e000
000dffc000
00087f0000
0000000000
0000000000
0000000000
0000000000
0000000000
0000000000
0000000000
ENDCHAR
STARTCHAR 07-38
ENCODING 10054
SWIDTH 985 0
DWIDTH 40 0
BBX 40 40 0 -3
BITMAP
0000000000
0000000000
0000000000
0000000000
0000000000
0000000000
0000000000
0000000000
0001ffc000
00007f0000
00001c0000
00001c0000
00001c0000
00001c0000
00001c0000
00001c0000
00001c0000
00001c0000
00001c0000
00001c0000
00001c0000
00001c0000
00001c0000
00001c0000
00001c0000
00001c0000
00001c0000
00001c0000
00001c0000
00001c0000
00001c0000
00007f0000
0001ffc000
0000000000
0000000000
0000000000
0000000000
0000000000
0000000000
0000000000
ENDCHAR
STARTCHAR 07-39
ENCODING 10055
SWIDTH 985 0
DWIDTH 40 0
BBX 40 40 0 -3
BITMAP
0000000000
0000000000
0000000000
0000630000
0000f78000
0000630000
0000000000
0000000000
0001ffc000
00007f0000
00001c0000
00001c0000
00001c0000
00001c0000
00001c0000
00001c0000
00001c0000
00001c0000
00001c0000
00001c0000
00001c0000
00001c0000
00001c0000
00001c0000
00001c0000
00001c0000
00001c0000
00001c0000
00001c0000
00001c0000
00001c0000
00007f0000
0001ffc000
0000000000
0000000000
0000000000
0000000000
0000000000
0000000000
0000000000
ENDCHAR
STARTCHAR 07-40
ENCODING 10056
SWIDTH 985 0
DWIDTH 40 0
BBX 40 40 0 -3
BITMAP
0000000000
0000000000
0000000000
0000000000
0000000000
0000000000
0000000000
0000000000
00003ff800
000007c000
0000038000
0000038000
0000038000
0000038000
0000038000
0000038000
0000038000
0000038000
0000038000
0000038000
0000038000
0000038000
0000038000
0000038000
0007038000
000f838000
000f838000
000f838000
000f038000
000c078000
000e070000
0007ff0000
0001fc0000
0000000000
0000000000
0000000000
0000000000
0000000000
0000000000
0000000000
ENDCHAR
STARTCHAR 07-41
ENCODING 10057
SWIDTH 985 0
DWIDTH 40 0
BBX 40 40 0 -3
BITMAP
0000000000
0000000000
0000000000
0000000000
0000000000
0000000000
0000000000
0000000000
000fff0000
0001ff0000
0000e70000
0000e70000
0000e70000
0000e70000
0000e70000
0000e70000
0000e70000
0000e7fc00
0000e7ff00
0000e70380
0000e70380
0000e701c0
0000e701c0
0000e701c0
01c0e701c0
03e0e701c0
03e0e701c0
03e0e701c0
03c0e701c0
0301e70380
0381c70380
01ffc7ff00
007f07fc00
0000000000
0000000000
0000000000
0000000000
0000000000
0000000000
0000000000
ENDCHAR
STARTCHAR 07-42
ENCODING 10058
SWIDTH 985 0
DWIDTH 40 0
BBX 40 40 0 -3
BITMAP
0000000000
0000000000
0000000000
0000000000
0000000000
0000000000
0000000000
0000000000
0ffe3ff800
03f80fe000
00e0038000
00e0038000
00e0038000
00e0038000
00e0038000
00e0038000
00e0038000
00e003fe00
00e003ff80
00ffff81c0
00ffff81c0
00e00380e0
00e00380e0
00e00380e0
00e00380e0
00e00380e0
00e00380e0
00e00380e0
00e00380e0
00e00381c0
00e00381c0
03f80fff80
0ffe3ffe00
0000000000
0000000000
0000000000
0000000000
0000000000
0000000000
0000000000
ENDCHAR
STARTCHAR 07-43
ENCODING 10059
SWIDTH 985 0
DWIDTH 40 0
BBX 40 40 0 -3
BITMAP
0000000000
0000000000
0000000000
0000000000
0000000000
0000000000
0000000000
0000000000
001ffffc00
001ffffc00
001e1c7c00
001c1c1c00
00181c0c00
00181c0c00
00101c0400
00101c0400
00101c0400
00001c7000
00001dfc00
00001f1e00
00001e0e00
00001c0700
00001c0700
00001c0700
00001c0700
00001c0700
00001c0700
00001c0700
00001c0700
00001c0700
00001c0700
00007f0700
0001ffffe0
0000000000
0000000000
0000000000
0000000000
0000000000
0000000000
0000000000
ENDCHAR
STARTCHAR 07-44
ENCODING 10060
SWIDTH 985 0
DWIDTH 40 0
BBX 40 40 0 -3
BITMAP
0000000000
0000000000
0000000000
0000030000
0000070000
00000e0000
00001c0000
0000300000
0000600000
0000000000
007fc7f800
001f01e000
000e01c000
000e018000
000e030000
000e060000
000e0c0000
000e180000
000e300000
000ee00000
000ff00000
000ff00000
000f780000
000e3c0000
000e3e0000
000e1f0000
000e0f8000
000e07c000
000e03c000
000e01e000
000e00f000
001f00f800
007fc7fe00
0000000000
0000000000
0000000000
0000000000
0000000000
0000000000
0000000000
ENDCHAR
STARTCHAR 07-45
ENCODING 10061
SWIDTH 985 0
DWIDTH 40 0
BBX 40 40 0 -3
BITMAP
0000000000
0000000000
0000630000
0000f78000
00007f0000
0000000000
0000000000
0000000000
007fe1ff00
001f007c00
000f003800
000f003800
0007003000
0007803000
0007802000
0003806000
0003c06000
0003c04000
0001c0c000
0001e0c000
0001e08000
0000e18000
0000f18000
0000f10000
0000730000
00007b0000
00007a0000
00003e0000
00003e0000
00001c0000
00001c0000
00001c0000
00000c0000
0000180000
0000180000
0006300000
000f300000
000e600000
000fc00000
0007000000
ENDCHAR
STARTCHAR 07-46
ENCODING 10062
SWIDTH 985 0
DWIDTH 40 0
BBX 40 40 0 -3
BITMAP
0000000000
0000000000
0000000000
0000000000
0000000000
0000000000
0000000000
0000000000
007fc1ff00
001f007c00
000e003800
000e003800
000e003800
000e003800
000e003800
000e003800
000e003800
000e003800
000e003800
000e003800
000e003800
000e003800
000e003800
000e003800
000e003800
000e003800
000e003800
000e003800
000e003800
001ffffc00
007fffff00
00001c0000
00001c0000
0000080000
0000080000
0000080000
0000080000
0000000000
0000000000
0000000000
ENDCHAR
STARTCHAR 07-82
ENCODING 10098
SWIDTH 985 0
DWIDTH 40 0
BBX 40 40 0 -3
BITMAP
0000000000
0000000000
0000000000
0000000000
0000000000
0000000000
0000000000
0000000000
0000300000
0003f00000
0000700000
0000700000
0007fe0000
0007fe0000
0000700000
0000700000
0000700000
000071c000
000077f000
00007c7800
0000783800
0000701c00
0000701c00
0000701c00
0000701c00
0000701c00
0000701c00
0000701c00
0000701c00
0000701c00
0000701c00
0000701c00
0003ff9c00
0000039c00
0000039c00
000003f800
000000e000
0000000000
0000000000
0000000000
ENDCHAR
STARTCHAR 07-83
ENCODING 10099
SWIDTH 985 0
DWIDTH 40 0
BBX 40 40 0 -3
BITMAP
0000000000
0000000000
0000000000
0000000000
0000000000
0000000000
0000030000
0000070000
00000e0000
00001c0000
0000300000
0000600000
0000000000
0000000000
0007ff8000
0003ffc000
0001c3c000
0001c3c000
0001c1c000
0001c1c000
0001c08000
0001c00000
0001c00000
0001c00000
0001c00000
0001c00000
0001c00000
0001c00000
0001c00000
0001c00000
0001c00000
0007f00000
0000000000
0000000000
0000000000
0000000000
0000000000
0000000000
0000000000
0000000000
ENDCHAR
STARTCHAR 07-84
ENCODING 10100
SWIDTH 985 0
DWIDTH 40 0
BBX 40 40 0 -3
BITMAP
0000000000
0000000000
0000000000
0000000000
0000000000
0000000000
0000000000
0000000000
0000000000
0000000000
0000000000
0000000000
0000000000
0000000000
0000000000
0000000000
0000000000
00001e0000
00007f8000
0000e1c000
0001c0c000
0001c04000
0003800000
00039e0000
0003ff0000
0003f18000
0003800000
0003800000
0001c04000
0001c0c000
0000e18000
0000ff0000
00003e0000
0000000000
0000000000
0000000000
0000000000
0000000000
0000000000
0000000000
ENDCHAR
STARTCHAR 07-85
ENCODING 10101
SWIDTH 985 0
DWIDTH 40 0
BBX 40 40 0 -3
BITMAP
0000000000
0000000000
0000000000
0000000000
0000000000
0000000000
0000000000
0000000000
0000000000
0000000000
0000000000
0000000000
0000000000
0000000000
0000000000
0000000000
0000000000
00003d8000
0000ff8000
0001c38000
0001818000
0001818000
0001e08000
0001fc0000
0000ff0000
00007f8000
00000fc000
000101c000
000180c000
000180c000
0001c1c000
0001ff8000
00013e0000
0000000000
0000000000
0000000000
0000000000
0000000000
0000000000
0000000000
ENDCHAR
STARTCHAR 07-86
ENCODING 10102
SWIDTH 985 0
DWIDTH 40 0
BBX 40 40 0 -3
BITMAP
0000000000
0000000000
0000000000
0000000000
0000000000
0000000000
0000000000
0000000000
0000000000
0000180000
00003c0000
00003c0000
0000180000
0000000000
0000000000
0000000000
0000000000
00001c0000
0000fc0000
00001c0000
00001c0000
00001c0000
00001c0000
00001c0000
00001c0000
00001c0000
00001c0000
00001c0000
00001c0000
00001c0000
00001c0000
00001c0000
0000ff8000
0000000000
0000000000
0000000000
0000000000
0000000000
0000000000
0000000000
ENDCHAR
STARTCHAR 07-87
ENCODING 10103
SWIDTH 985 0
DWIDTH 40 0
BBX 40 40 0 -3
BITMAP
0000000000
0000000000
0000000000
0000000000
0000000000
0000000000
0000000000
0000000000
0000000000
0000000000
0000000000
0000000000
0000630000
0000f78000
0000630000
0000000000
0000000000
0000fc0000
00001c0000
00001c0000
00001c0000
00001c0000
00001c0000
00001c0000
00001c0000
00001c0000
00001c0000
00001c0000
00001c0000
00001c0000
00001c0000
00001c0000
0000ff8000
0000000000
0000000000
0000000000
0000000000
0000000000
0000000000
0000000000
ENDCHAR
STARTCHAR 07-88
ENCODING 10104
SWIDTH 985 0
DWIDTH 40 0
BBX 40 40 0 -3
BITMAP
0000000000
0000000000
0000000000
0000000000
0000000000
0000000000
0000000000
0000000000
0000000000
0000030000
0000078000
0000078000
0000030000
0000000000
0000000000
0000000000
0000000000
0000038000
00001f8000
0000038000
0000038000
0000038000
0000038000
0000038000
0000038000
0000038000
0000038000
0000038000
0000038000
0000038000
0000038000
0000038000
0000038000
0000038000
0000038000
0000438000
0000e30000
0000e30000
0000e60000
00007c0000
ENDCHAR
STARTCHAR 07-89
ENCODING 10105
SWIDTH 985 0
DWIDTH 40 0
BBX 40 40 0 -3
BITMAP
0000000000
0000000000
0000000000
0000000000
0000000000
0000000000
0000000000
0000000000
0000000000
0000000000
0000000000
0000000000
0000000000
0000000000
0000000000
000fffc000
0003ff0000
0003870000
0003870000
0003870000
0003870000
0003870000
000387fe00
000387ff00
0003870f80
0003870780
00038703c0
00338703c0
007b870780
007f070f80
007f07ff00
007e1ffe00
003e0f8000
0000000000
0000000000
0000000000
0000000000
0000000000
0000000000
0000000000
ENDCHAR
STARTCHAR 07-90
ENCODING 10106
SWIDTH 985 0
DWIDTH 40 0
BBX 40 40 0 -3
BITMAP
0000000000
0000000000
0000000000
0000000000
0000000000
0000000000
0000000000
0000000000
0000000000
0000000000
0000000000
0000000000
0000000000
0000000000
0000000000
01fc7f0000
00783c0000
00783c0000
00783c0000
00783c0000
00783c0000
00783c0000
00783ff800
007ffffc00
007ffc3e00
00783c1e00
00783c0f00
00783c0f00
00783c1e00
00783c3e00
00783ffc00
00787ff800
01fc7f0000
0000000000
0000000000
0000000000
0000000000
0000000000
0000000000
0000000000
ENDCHAR
STARTCHAR 07-91
ENCODING 10107
SWIDTH 985 0
DWIDTH 40 0
BBX 40 40 0 -3
BITMAP
0000000000
0000000000
0000000000
0000000000
0000000000
0000000000
0000000000
0000000000
0001800000
001f800000
0003800000
0003800000
001ff80000
001ff80000
0003800000
0003800000
0003800000
00038e0000
0003bf8000
0003e3c000
0003c1c000
000380e000
000380e000
000380e000
000380e000
000380e000
000380e000
000380e000
000380e000
000380e000
000380e000
000380e000
001fe7fc00
0000000000
0000000000
0000000000
0000000000
0000000000
0000000000
0000000000
ENDCHAR
STARTCHAR 07-92
ENCODING 10108
SWIDTH 985 0
DWIDTH 40 0
BBX 40 40 0 -3
BITMAP
0000000000
0000000000
0000000000
0000000000
0000000000
0000000000
0000000000
0000000000
0000030000
0000070000
00000e0000
00001c0000
0000300000
0000600000
0000000000
0000000000
0000807000
000f81f800
000f83f800
0003863000
00018c0000
0001980000
0001b00000
0001f80000
0001f80000
0001bc0000
00019e0000
00018f0000
00018f0000
0001878000
000183c000
000183e000
000fe7f800
0000000000
0000000000
0000000000
0000000000
0000000000
0000000000
0000000000
ENDCHAR
STARTCHAR 07-93
ENCODING 10109
SWIDTH 985 0
DWIDTH 40 0
BBX 40 40 0 -3
BITMAP
0000000000
0000000000
0000000000
0000000000
0000000000
0000000000
0000000000
0000000000
0000000000
0000000000
0000000000
0000000000
0000630000
0000f78000
00007f0000
0000000000
0000000000
001fe3f800
000f80e000
000780c000
000380c000
0003c18000
0001c18000
0001e10000
0000e30000
0000e30000
0000f60000
0000760000
00007c0000
00003c0000
00003c0000
0000180000
0000180000
0000300000
0000300000
000c600000
001c600000
001cc00000
001f800000
000e000000
ENDCHAR
STARTCHAR 07-94
ENCODING 10110
SWIDTH 985 0
DWIDTH 40 0
BBX 40 40 0 -3
BITMAP
0000000000
0000000000
0000000000
0000000000
0000000000
0000000000
0000000000
0000000000
0000000000
0000000000
0000000000
0000000000
0000000000
0000000000
0000000000
0007e7e000
0003c3c000
0003c3c000
0003c3c000
0003c3c000
0003c3c000
0003c3c000
0003c3c000
0003c3c000
0003c3c000
0003c3c000
0003c3c000
0003c3c000
0003c3c000
0003ffc000
0007ffe000
0000080000
0000080000
0000080000
0000080000
0000000000
0000000000
0000000000
0000000000
0000000000
ENDCHAR
STARTCHAR AE
ENCODING 10529
SWIDTH 985 0
DWIDTH 40 0
BBX 40 40 0 -3
BITMAP
0000000000
0000000000
0000000000
0000000000
0000000000
0000000000
0000000000
0000000000
000fffffe0
0003ffffe0
0000ee03e0
0000ce00e0
0000ce00e0
00018e0060
00018e0460
00030e0420
00030e0c20
00060e0c00
00060e1c00
000c0ffc00
000c0ffc00
00180e1c00
001ffe0c00
003ffe0c00
00300e0420
00600e0420
00600e0020
00c00e0060
00c00e0060
01800e00e0
01800e03e0
03c03fffe0
07f0ffffe0
0000000000
0000000000
0000000000
0000000000
0000000000
0000000000
0000000000
ENDCHAR
STARTCHAR Eth
ENCODING 10530
SWIDTH 985 0
DWIDTH 40 0
BBX 40 40 0 -3
BITMAP
0000000000
0000000000
0000000000
0000000000
0000000000
0000000000
0000000000
0000000000
007ffe0000
007fffc000
000f03e000
000700f000
0007007800
0007003800
0007003c00
0007003c00
0007001c00
0007001e00
0007001e00
0007001e00
003ff01e00
003ff01e00
0007001e00
0007001e00
0007001e00
0007001c00
0007003c00
0007003c00
0007003800
0007007000
000700e000
007fffc000
007fff0000
0000000000
0000000000
0000000000
0000000000
0000000000
0000000000
0000000000
ENDCHAR
STARTCHAR 09-04
ENCODING 10532
SWIDTH 985 0
DWIDTH 40 0
BBX 40 40 0 -3
BITMAP
0000000000
0000000000
0000000000
0000000000
0000000000
0000000000
0000000000
0000000000
00ffe3ff80
003f80fe00
000e003800
000e003800
0ffffffff0
0ffffffff0
000e003800
000e003800
000e003800
000e003800
000e003800
000ffff800
000ffff800
000e003800
000e003800
000e003800
000e003800
000e003800
000e003800
000e003800
000e003800
000e003800
000e003800
003f80fe00
00ffe3ff80
0000000000
0000000000
0000000000
0000000000
0000000000
0000000000
0000000000
ENDCHAR
STARTCHAR 09-06
ENCODING 10534
SWIDTH 985 0
DWIDTH 40 0
BBX 40 40 0 -3
BITMAP
0000000000
0000000000
0000000000
0000000000
0000000000
0000000000
0000000000
0000000000
007ff0ffe0
001fc01f00
0007000e00
0007000e00
0007000e00
0007000e00
0007000e00
0007000e00
0007000e00
0007000e00
0007000e00
0007000e00
0007000e00
0007000e00
0007000e00
0007000e00
00071c0e00
00073e0e00
00073e0e00
00073e0e00
00073c0e00
0007301e00
0007381c00
001fdffc00
007ff7f000
0000000000
0000000000
0000000000
0000000000
0000000000
0000000000
0000000000
ENDCHAR
STARTCHAR Lslash
ENCODING 10536
SWIDTH 985 0
DWIDTH 40 0
BBX 40 40 0 -3
BITMAP
0000000000
0000000000
0000000000
0000000000
0000000000
0000000000
0000000000
0000000000
003ff80000
000fe00000
0003800000
0003800000
0003800000
0003800000
0003800000
0003800000
0003980000
0003b80000
0003f00000
0003e00000
0003c00000
0007800000
000f800000
001f800000
001b800c00
0003800c00
0003800c00
0003801c00
0003801c00
0003801800
0003803800
0007c1f800
003ffff800
0000000000
0000000000
0000000000
0000000000
0000000000
0000000000
0000000000
ENDCHAR
STARTCHAR 09-09
ENCODING 10537
SWIDTH 985 0
DWIDTH 40 0
BBX 40 40 0 -3
BITMAP
0000000000
0000000000
0000000000
0000000000
0000000000
0000000000
0000000000
0000000000
003ff80000
000fe00000
0003800000
0003800000
0003800000
0003800000
0003800000
0003800000
0003800000
0003800000
0003800000
0003800000
0003800000
0003800000
0003800000
0003980000
0003bc0400
0003bc0400
0003980400
0003800c00
0003800c00
0003801c00
0003807c00
000ffff800
003ffff800
0000000000
0000000000
0000000000
0000000000
0000000000
0000000000
0000000000
ENDCHAR
STARTCHAR 09-11
ENCODING 10539
SWIDTH 985 0
DWIDTH 40 0
BBX 40 40 0 -3
BITMAP
0000000000
0000000000
0000000000
0000000000
0000000000
0000000000
0000000000
0000000000
0000000000
0000000000
0077ffe000
001fffe000
000f007000
000e007000
000e003800
000e003800
000e003800
000e003800
000e003800
000e003800
000e003800
000e003800
000e003800
000e003800
000e003800
000e003800
000e003800
000e003800
000e003800
000e003800
000e003800
001f073800
007fc73800
0000073800
000007f000
000001c000
0000000000
0000000000
0000000000
0000000000
ENDCHAR
STARTCHAR Oslash
ENCODING 10540
SWIDTH 985 0
DWIDTH 40 0
BBX 40 40 0 -3
BITMAP
0000000000
0000000000
0000000000
0000000000
0000000000
0000000000
0000000000
0000000c00
0000ff1800
0003ffd800
000701f000
000e007000
001e00f800
001c00f800
003c01bc00
003c033c00
0078031e00
0078061e00
00780c1e00
00781c1e00
0078181e00
0078301e00
0078701e00
0078601e00
0038c01c00
003d803c00
003d803c00
001f003800
001e007800
000f00f000
000f81e000
001bffc000
0038ff0000
0030000000
0060000000
0000000000
0000000000
0000000000
0000000000
0000000000
ENDCHAR
STARTCHAR OE
ENCODING 10541
SWIDTH 985 0
DWIDTH 40 0
BBX 40 40 0 -3
BITMAP
0000000000
0000000000
0000000000
0000000000
0000000000
0000000000
0000000000
0000000000
000fffffc0
003eff8fc0
00703e01c0
00e01e00c0
01e01e00c0
01c00e00e0
03c00e0060
03c00e0860
03c00e0860
07800e1800
07800e1800
07800e3800
07800ff800
07800ff800
07800e3800
07800e1800
07800e1820
03c00e0860
03c00e0860
03c00e0060
01c01e0060
00e01e00e0
00701e01e0
003cff07e0
000fffffe0
0000000000
0000000000
0000000000
0000000000
0000000000
0000000000
0000000000
ENDCHAR
STARTCHAR 09-15
ENCODING 10543
SWIDTH 985 0
DWIDTH 40 0
BBX 40 40 0 -3
BITMAP
0000000000
0000000000
0000000000
0000000000
0000000000
0000000000
0000000000
0000000000
001ffffc00
001ffffc00
001e1c7c00
001c1c1c00
00181c0c00
00181c0c00
00101c0400
00101c0400
00101c0400
00001c0000
0000ff8000
0000ff8000
00001c0000
00001c0000
00001c0000
00001c0000
00001c0000
00001c0000
00001c0000
00001c0000
00001c0000
00001c0000
00001c0000
00007f0000
0001ffc000
0000000000
0000000000
0000000000
0000000000
0000000000
0000000000
0000000000
ENDCHAR
STARTCHAR Thorn
ENCODING 10544
SWIDTH 985 0
DWIDTH 40 0
BBX 40 40 0 -3
BITMAP
0000000000
0000000000
0000000000
0000000000
0000000000
0000000000
0000000000
0000000000
003ff80000
0007c00000
0003800000
0003800000
0003800000
0003800000
0003ff8000
0003ffe000
000380f000
0003807800
0003803c00
0003803c00
0003803c00
0003803c00
0003803c00
0003807800
000380f800
0003fff000
0003ffc000
0003800000
0003800000
0003800000
0003800000
0007c00000
003ff80000
0000000000
0000000000
0000000000
0000000000
0000000000
0000000000
0000000000
ENDCHAR
STARTCHAR ae
ENCODING 10561
SWIDTH 985 0
DWIDTH 40 0
BBX 40 40 0 -3
BITMAP
0000000000
0000000000
0000000000
0000000000
0000000000
0000000000
0000000000
0000000000
0000000000
0000000000
0000000000
0000000000
0000000000
0000000000
0000000000
0000000000
0000000000
0007e1f000
001ff3fc00
00383e0e00
00381e0600
00381c0700
00381c0700
0000fc0700
0007ffff00
001e1c0000
00381c0000
00781c0000
00701e0100
00703e0300
00787f0e00
003fe7fc00
001f81f800
0000000000
0000000000
0000000000
0000000000
0000000000
0000000000
0000000000
ENDCHAR
STARTCHAR 09-34
ENCODING 10562
SWIDTH 985 0
DWIDTH 40 0
BBX 40 40 0 -3
BITMAP
0000000000
0000000000
0000000000
0000000000
0000000000
0000000000
0000000000
0000000000
000000c000
000007c000
000001c000
000001c000
00001ff800
00001ff800
000001c000
000001c000
000001c000
000079c000
0001fdc000
000387c000
000703c000
000703c000
000e01c000
000e01c000
000e01c000
000e01c000
000e01c000
000e01c000
000f03c000
000703c000
000787c000
0001fdc000
000079f000
0000000000
0000000000
0000000000
0000000000
0000000000
0000000000
0000000000
ENDCHAR
STARTCHAR eth
ENCODING 10563
SWIDTH 985 0
DWIDTH 40 0
BBX 40 40 0 -3
BITMAP
0000000000
0000000000
0000000000
0000000000
0000000000
0000000000
0000000000
0000000000
0001800000
0001e00000
0000770000
00003e0000
00007c0000
00006e0000
0000070000
0000078000
0000038000
00003fc000
0000ffc000
0001c3c000
000381e000
000381e000
000700e000
000700e000
000700e000
000700e000
000700e000
000700e000
000781e000
000381c000
0003c3c000
0001ff8000
00007e0000
0000000000
0000000000
0000000000
0000000000
0000000000
0000000000
0000000000
ENDCHAR
STARTCHAR 09-36
ENCODING 10564
SWIDTH 985 0
DWIDTH 40 0
BBX 40 40 0 -3
BITMAP
0000000000
0000000000
0000000000
0000000000
0000000000
0000000000
0000000000
0000000000
0001800000
001f800000
0003800000
0003800000
001ff80000
001ff80000
0003800000
0003800000
0003800000
00038e0000
0003bf8000
0003e3c000
0003c1c000
000380e000
000380e000
000380e000
000380e000
000380e000
000380e000
000380e000
000380e000
000380e000
000380e000
000380e000
001fe7fc00
0000000000
0000000000
0000000000
0000000000
0000000000
0000000000
0000000000
ENDCHAR
STARTCHAR dotlessi
ENCODING 10565
SWIDTH 985 0
DWIDTH 40 0
BBX 40 40 0 -3
BITMAP
0000000000
0000000000
0000000000
0000000000
0000000000
0000000000
0000000000
0000000000
0000000000
0000000000
0000000000
0000000000
0000000000
0000000000
0000000000
0000000000
0000000000
00001c0000
00007c0000
00001c0000
00001c0000
00001c0000
00001c0000
00001c0000
00001c0000
00001c0000
00001c0000
00001c0000
00001c0000
00001c0000
00001c0000
00001c0000
0000ff8000
0000000000
0000000000
0000000000
0000000000
0000000000
0000000000
0000000000
ENDCHAR
STARTCHAR 09-38
ENCODING 10566
SWIDTH 985 0
DWIDTH 40 0
BBX 40 40 0 -3
BITMAP
0000000000
0000000000
0000000000
0000000000
0000000000
0000000000
0000000000
0000000000
0000000000
000060c000
0000f1e000
0000f1e000
000060c000
0000000000
0000000000
0000000000
0000000000
000070e000
0003f7e000
000070e000
000070e000
000070e000
000070e000
000070e000
000070e000
000070e000
000070e000
000070e000
000070e000
000070e000
000070e000
000070e000
0003fee000
000000e000
000000e000
000010e000
000038c000
000038c000
0000398000
00001f0000
ENDCHAR
STARTCHAR 09-39
ENCODING 10567
SWIDTH 985 0
DWIDTH 40 0
BBX 40 40 0 -3
BITMAP
0000000000
0000000000
0000000000
0000000000
0000000000
0000000000
0000000000
0000000000
0000000000
0000000000
0000000000
0000000000
0000000000
0000000000
0000000000
0000000000
0000807000
000f81f800
000f83f800
0003863000
00018c0000
0001980000
0001b00000
0001f80000
0001f80000
0001bc0000
00019e0000
00018f0000
00018f0000
0001878000
000183c000
000183e000
000fe7f800
0000000000
0000000000
0000000000
0000000000
0000000000
0000000000
0000000000
ENDCHAR
STARTCHAR lslash
ENCODING 10568
SWIDTH 985 0
DWIDTH 40 0
BBX 40 40 0 -3
BITMAP
0000000000
0000000000
0000000000
0000000000
0000000000
0000000000
0000000000
0000000000
00007c0000
00007c0000
00001c0000
00001c0000
00001c0000
00001c0000
00001c0000
00001c0000
00001d8000
00001f8000
00001e0000
00003c0000
0000fc0000
0000dc0000
00001c0000
00001c0000
00001c0000
00001c0000
00001c0000
00001c0000
00001c0000
00001c0000
00001c0000
00001c0000
0000ff8000
0000000000
0000000000
0000000000
0000000000
0000000000
0000000000
0000000000
ENDCHAR
STARTCHAR 09-41
ENCODING 10569
SWIDTH 985 0
DWIDTH 40 0
BBX 40 40 0 -3
BITMAP
0000000000
0000000000
0000000000
0000000000
0000000000
0000000000
0000000000
0000000000
00000c0000
00001c0000
0000fc0000
00001c0000
00001c0000
00001c0000
00001c0000
00001c0000
00001c0000
00001c0000
00001c0000
00001c0000
00001c0000
00001c0000
00001c0000
00001cc000
00001de000
00001de000
00001cc000
00001c0000
00001c0000
00001c0000
00001c0000
00001c0000
0000ff8000
0000000000
0000000000
0000000000
0000000000
0000000000
0000000000
0000000000
ENDCHAR
STARTCHAR 09-42
ENCODING 10570
SWIDTH 985 0
DWIDTH 40 0
BBX 40 40 0 -3
BITMAP
0000000000
0000000000
0000000000
0000000000
0000000000
0000000000
0000000000
0000000000
0000000000
0000000000
0000000000
0000000000
0000000000
0070000000
0070000000
0070000000
0070000000
00238f0000
003fbfc000
0023f1c000
0023c0e000
0003c0e000
000380e000
000380e000
000380e000
000380e000
000380e000
000380e000
000380e000
000380e000
000380e000
000380e000
001fe3fc00
0000000000
0000000000
0000000000
0000000000
0000000000
0000000000
0000000000
ENDCHAR
STARTCHAR 09-43
ENCODING 10571
SWIDTH 985 0
DWIDTH 40 0
BBX 40 40 0 -3
BITMAP
0000000000
0000000000
0000000000
0000000000
0000000000
0000000000
0000000000
0000000000
0000000000
0000000000
0000000000
0000000000
0000000000
0000000000
0000000000
0000000000
0000000000
00038f0000
001fbfc000
0003f1c000
0003c0e000
0003c0e000
000380e000
000380e000
000380e000
000380e000
000380e000
000380e000
000380e000
000380e000
000380e000
00039ce000
001ffce000
00001ce000
00001fc000
0000070000
0000000000
0000000000
0000000000
0000000000
ENDCHAR
STARTCHAR oslash
ENCODING 10572
SWIDTH 985 0
DWIDTH 40 0
BBX 40 40 0 -3
BITMAP
0000000000
0000000000
0000000000
0000000000
0000000000
0000000000
0000000000
0000000000
0000000000
0000000000
0000000000
0000000000
0000000000
0000000000
000000c000
000000c000
0000018000
00003f8000
0000ff8000
0001c38000
000387c000
000386c000
00070ce000
00070ce000
000718e000
000718e000
000730e000
000730e000
000761c000
0003e1c000
0003c38000
0001ff0000
0001fc0000
0001800000
0003000000
0003000000
0000000000
0000000000
0000000000
0000000000
ENDCHAR
STARTCHAR oe
ENCODING 10573
SWIDTH 985 0
DWIDTH 40 0
BBX 40 40 0 -3
BITMAP
0000000000
0000000000
0000000000
0000000000
0000000000
0000000000
0000000000
0000000000
0000000000
0000000000
0000000000
0000000000
0000000000
0000000000
0000000000
0000000000
0000000000
000fc1f000
001cf79c00
00387e0e00
00703e0e00
00f03c0700
00f01c0700
00e01c0700
00e01fff00
00e01c0000
00e01c0000
00e01c0000
00703e0100
00703e0300
0038770e00
001ee7fc00
000780f000
0000000000
0000000000
0000000000
0000000000
0000000000
0000000000
0000000000
ENDCHAR
STARTCHAR germandbls
ENCODING 10574
SWIDTH 985 0
DWIDTH 40 0
BBX 40 40 0 -3
BITMAP
0000000000
0000000000
0000000000
0000000000
0000000000
0000000000
0000000000
0000000000
00003f8000
000079c000
0000e0e000
0000e0f000
0001c07000
0001c07000
0001c07000
0001c07000
0001c0e000
0001c0e000
0001cf8000
0001cf8000
0001c0e000
0001c07000
0001c07000
0001c07800
0001c03800
0001c03800
0001c03800
0001c03800
0001c03800
0001ce7800
0001ce7000
0003ce7000
000fcfe000
0000038000
0000000000
0000000000
0000000000
0000000000
0000000000
0000000000
ENDCHAR
STARTCHAR 09-47
ENCODING 10575
SWIDTH 985 0
DWIDTH 40 0
BBX 40 40 0 -3
BITMAP
0000000000
0000000000
0000000000
0000000000
0000000000
0000000000
0000000000
0000000000
0000000000
0000000000
0000100000
0000100000
0000300000
0000300000
0000700000
0000700000
0000f00000
0003ff8000
0000700000
0000700000
0000700000
0001fc0000
0000700000
0000700000
0000700000
0000700000
0000704000
0000704000
000070c000
000070c000
0000798000
00003f8000
00001f0000
0000000000
0000000000
0000000000
0000000000
0000000000
0000000000
0000000000
ENDCHAR
STARTCHAR thorn
ENCODING 10576
SWIDTH 985 0
DWIDTH 40 0
BBX 40 40 0 -3
BITMAP
0000000000
0000000000
0000000000
0000000000
0000000000
0000000000
0000000000
0000000000
0000000000
0000000000
0000000000
0003800000
000f800000
0003800000
0003800000
0003800000
0003800000
00038f0000
0003bfc000
0003f1e000
0003c0e000
0003c0f000
0003807000
0003807000
0003807000
0003807000
0003807000
0003807000
0003c0f000
0003c0e000
0003e1e000
0003bfc000
00039f0000
0003800000
0003800000
0003800000
0003800000
0003800000
0003800000
000ff00000
ENDCHAR
STARTCHAR Aacute
ENCODING 10785
SWIDTH 985 0
DWIDTH 40 0
BBX 40 40 0 -3
BITMAP
0000000000
000000c000
000001c000
0000038000
0000070000
00000c0000
0000180000
0000000000
0000080000
00001c0000
00001c0000
00003c0000
00003e0000
00003e0000
00006e0000
00006f0000
0000cf0000
0000c70000
0000c78000
0001838000
000183c000
000183c000
000301c000
0003ffe000
0003ffe000
000600e000
000600f000
000600f000
000c007800
000c007800
001c007c00
003e00fe00
007f01ff00
0000000000
0000000000
0000000000
0000000000
0000000000
0000000000
0000000000
ENDCHAR
STARTCHAR Agrave
ENCODING 10786
SWIDTH 985 0
DWIDTH 40 0
BBX 40 40 0 -3
BITMAP
0000000000
0003000000
0003800000
0001c00000
0000e00000
0000300000
0000180000
0000000000
0000080000
00001c0000
00001c0000
00003c0000
00003e0000
00003e0000
00006e0000
00006f0000
0000cf0000
0000c70000
0000c78000
0001838000
000183c000
000183c000
000301c000
0003ffe000
0003ffe000
000600e000
000600f000
000600f000
000c007800
000c007800
001c007c00
003e00fe00
007f01ff00
0000000000
0000000000
0000000000
0000000000
0000000000
0000000000
0000000000
ENDCHAR
STARTCHAR Adieresis
ENCODING 10787
SWIDTH 985 0
DWIDTH 40 0
BBX 40 40 0 -3
BITMAP
0000000000
0000000000
0000000000
0000c30000
0001e78000
0000c30000
0000000000
0000000000
0000080000
00001c0000
00001c0000
00003c0000
00003e0000
00003e0000
00006e0000
00006f0000
0000cf0000
0000c70000
0000c78000
0001838000
000183c000
000183c000
000301c000
0003ffe000
0003ffe000
000600e000
000600f000
000600f000
000c007800
000c007800
001c007c00
003e00fe00
007f01ff00
0000000000
0000000000
0000000000
0000000000
0000000000
0000000000
0000000000
ENDCHAR
STARTCHAR Acircumflex
ENCODING 10788
SWIDTH 985 0
DWIDTH 40 0
BBX 40 40 0 -3
BITMAP
0000000000
0000000000
00000c0000
00001e0000
00003f0000
0000618000
0000c0c000
0000000000
0000080000
00001c0000
00001c0000
00003c0000
00003e0000
00003e0000
00006e0000
00006f0000
0000cf0000
0000c70000
0000c78000
0001838000
000183c000
000183c000
000301c000
0003ffe000
0003ffe000
000600e000
000600f000
000600f000
000c007800
000c007800
001c007c00
003e00fe00
007f01ff00
0000000000
0000000000
0000000000
0000000000
0000000000
0000000000
0000000000
ENDCHAR
STARTCHAR 10-05
ENCODING 10789
SWIDTH 985 0
DWIDTH 40 0
BBX 40 40 0 -3
BITMAP
0000000000
0000000000
0000808000
0000c18000
00007f0000
00001c0000
0000000000
0000000000
0000080000
00001c0000
00001c0000
00003c0000
00003e0000
00003e0000
00006e0000
00006f0000
0000cf0000
0000c70000
0000c78000
0001838000
000183c000
000183c000
000301c000
0003ffe000
0003ffe000
000600e000
000600f000
000600f000
000c007800
000c007800
001c007c00
003e00fe00
007f01ff00
0000000000
0000000000
0000000000
0000000000
0000000000
0000000000
0000000000
ENDCHAR
STARTCHAR 10-06
ENCODING 10790
SWIDTH 985 0
DWIDTH 40 0
BBX 40 40 0 -3
BITMAP
0000000000
0001818000
0000c30000
00007e0000
00003c0000
0000180000
0000000000
0000000000
0000080000
00001c0000
00001c0000
00003c0000
00003e0000
00003e0000
00006e0000
00006f0000
0000cf0000
0000c70000
0000c78000
0001838000
000183c000
000183c000
000301c000
0003ffe000
0003ffe000
000600e000
000600f000
000600f000
000c007800
000c007800
001c007c00
003e00fe00
007f01ff00
0000000000
0000000000
0000000000
0000000000
0000000000
0000000000
0000000000
ENDCHAR
STARTCHAR 10-07
ENCODING 10791
SWIDTH 985 0
DWIDTH 40 0
BBX 40 40 0 -3
BITMAP
0000000000
0000000000
0000000000
0000000000
0000000000
0001ff8000
0001ff8000
0000000000
0000080000
00001c0000
00001c0000
00003c0000
00003e0000
00003e0000
00006e0000
00006f0000
0000cf0000
0000c70000
0000c78000
0001838000
000183c000
000183c000
000301c000
0003ffe000
0003ffe000
000600e000
000600f000
000600f000
000c007800
000c007800
001c007c00
003e00fe00
007f01ff00
0000000000
0000000000
0000000000
0000000000
0000000000
0000000000
0000000000
ENDCHAR
STARTCHAR 10-08
ENCODING 10792
SWIDTH 985 0
DWIDTH 40 0
BBX 40 40 0 -3
BITMAP
0000000000
0000000000
0000000000
0000000000
0000000000
0000000000
0000000000
0000000000
0000080000
00001c0000
00001c0000
00003c0000
00003e0000
00003e0000
00006e0000
00006f0000
0000cf0000
0000c70000
0000c78000
0001838000
000183c000
000183c000
000301c000
0003ffe000
0003ffe000
000600e000
000600f000
000600f000
000c007800
000c007800
001c007c00
003e00fe00
007f01ff00
0000001800
0000003000
0000007000
0000007e00
0000003c00
0000000000
0000000000
ENDCHAR
STARTCHAR Aring
ENCODING 10793
SWIDTH 985 0
DWIDTH 40 0
BBX 40 40 0 -3
BITMAP
0000000000
00003c0000
0000660000
0000420000
0000420000
0000660000
00003c0000
0000000000
0000080000
00001c0000
00001c0000
00003c0000
00003e0000
00003e0000
00006e0000
00006f0000
0000cf0000
0000c70000
0000c78000
0001838000
000183c000
000183c000
000301c000
0003ffe000
0003ffe000
000600e000
000600f000
000600f000
000c007800
000c007800
001c007c00
003e00fe00
007f01ff00
0000000000
0000000000
0000000000
0000000000
0000000000
0000000000
0000000000
ENDCHAR
STARTCHAR Atilde
ENCODING 10794
SWIDTH 985 0
DWIDTH 40 0
BBX 40 40 0 -3
BITMAP
0000000000
0000000000
0000000000
000078c000
0000ff8000
00018f0000
0000000000
0000000000
0000080000
00001c0000
00001c0000
00003c0000
00003e0000
00003e0000
00006e0000
00006f0000
0000cf0000
0000c70000
0000c78000
0001838000
000183c000
000183c000
000301c000
0003ffe000
0003ffe000
000600e000
000600f000
000600f000
000c007800
000c007800
001c007c00
003e00fe00
007f01ff00
0000000000
0000000000
0000000000
0000000000
0000000000
0000000000
0000000000
ENDCHAR
STARTCHAR 10-11
ENCODING 10795
SWIDTH 985 0
DWIDTH 40 0
BBX 40 40 0 -3
BITMAP
0000000000
0000030000
0000070000
00000e0000
00001c0000
0000300000
0000600000
0000000000
00007f1800
0001ffd800
000380f800
0007007800
000f003800
000e003800
001e001800
001e001800
003c000800
003c000800
003c000000
003c000000
003c000000
003c000000
003c000000
003c000000
003c000c00
001e000c00
001e000c00
001e001800
000f001800
0007003000
0003c0e000
0001ffc000
00007f0000
0000000000
0000000000
0000000000
0000000000
0000000000
0000000000
0000000000
ENDCHAR
STARTCHAR 10-12
ENCODING 10796
SWIDTH 985 0
DWIDTH 40 0
BBX 40 40 0 -3
BITMAP
0000000000
0000180000
00003c0000
00007e0000
0000c30000
0001818000
0000000000
0000000000
00007f1800
0001ffd800
000380f800
0007007800
000f003800
000e003800
001e001800
001e001800
003c000800
003c000800
003c000000
003c000000
003c000000
003c000000
003c000000
003c000000
003c000c00
001e000c00
001e000c00
001e001800
000f001800
0007003000
0003c0e000
0001ffc000
00007f0000
0000000000
0000000000
0000000000
0000000000
0000000000
0000000000
0000000000
ENDCHAR
STARTCHAR 10-13
ENCODING 10797
SWIDTH 985 0
DWIDTH 40 0
BBX 40 40 0 -3
BITMAP
0000000000
0001818000
0000c30000
00007e0000
00003c0000
0000180000
0000000000
0000000000
00007f1800
0001ffd800
000380f800
0007007800
000f003800
000e003800
001e001800
001e001800
003c000800
003c000800
003c000000
003c000000
003c000000
003c000000
003c000000
003c000000
003c000c00
001e000c00
001e000c00
001e001800
000f001800
0007003000
0003c0e000
0001ffc000
00007f0000
0000000000
0000000000
0000000000
0000000000
0000000000
0000000000
0000000000
ENDCHAR
STARTCHAR Ccedilla
ENCODING 10798
SWIDTH 985 0
DWIDTH 40 0
BBX 40 40 0 -3
BITMAP
0000000000
0000000000
0000000000
0000000000
0000000000
0000000000
0000000000
0000000000
00003e1800
0000ffd800
0003c1f800
0007007800
000f003800
000e003800
001e001800
001e001800
003c001800
003c000800
003c000000
003c000000
003c000000
003c000000
003c000000
003c000000
003c000c00
001e000c00
001e000800
001e001800
000f001800
0007003000
0003806000
0001f3c000
00007f8000
0000080000
0000100000
00003c0000
0000060000
0000060000
0000460000
00003c0000
ENDCHAR
STARTCHAR 10-15
ENCODING 10799
SWIDTH 985 0
DWIDTH 40 0
BBX 40 40 0 -3
BITMAP
0000000000
0000000000
0000000000
0000180000
00003c0000
0000180000
0000000000
0000000000
00007f1800
0001ffd800
000380f800
0007007800
000f003800
000e003800
001e001800
001e001800
003c000800
003c000800
003c000000
003c000000
003c000000
003c000000
003c000000
003c000000
003c000c00
001e000c00
001e000c00
001e001800
000f001800
0007003000
0003c0e000
0001ffc000
00007f0000
0000000000
0000000000
0000000000
0000000000
0000000000
0000000000
0000000000
ENDCHAR
STARTCHAR 10-16
ENCODING 10800
SWIDTH 985 0
DWIDTH 40 0
BBX 40 40 0 -3
BITMAP
0000000000
0001818000
0000c30000
00007e0000
00003c0000
0000180000
0000000000
0000000000
007fff0000
001fffe000
000701f000
0007007800
0007003800
0007003c00
0007003c00
0007001e00
0007001e00
0007001e00
0007001e00
0007001e00
0007001e00
0007001e00
0007001e00
0007001e00
0007001e00
0007001e00
0007001c00
0007003c00
0007003800
0007007000
000701f000
001fffe000
007fff0000
0000000000
0000000000
0000000000
0000000000
0000000000
0000000000
0000000000
ENDCHAR
STARTCHAR Eacute
ENCODING 10801
SWIDTH 985 0
DWIDTH 40 0
BBX 40 40 0 -3
BITMAP
0000000000
0000006000
000000e000
000001c000
0000038000
0000060000
00000c0000
0000000000
003ffffc00
000ffffc00
0003807c00
0003801c00
0003801c00
0003800c00
0003810c00
0003810400
0003810400
0003830000
00038f0000
0003ff0000
0003ff0000
00038f0000
0003830000
0003830000
0003810400
0003810400
0003800400
0003800c00
0003800c00
0003801c00
0003807c00
000ffffc00
003ffffc00
0000000000
0000000000
0000000000
0000000000
0000000000
0000000000
0000000000
ENDCHAR
STARTCHAR Egrave
ENCODING 10802
SWIDTH 985 0
DWIDTH 40 0
BBX 40 40 0 -3
BITMAP
0000000000
0000c00000
0000e00000
0000700000
0000380000
00000c0000
0000060000
0000000000
003ffffc00
000ffffc00
0003807c00
0003801c00
0003801c00
0003800c00
0003810c00
0003810400
0003810400
0003830000
00038f0000
0003ff0000
0003ff0000
00038f0000
0003830000
0003830000
0003810400
0003810400
0003800400
0003800c00
0003800c00
0003801c00
0003807c00
000ffffc00
003ffffc00
0000000000
0000000000
0000000000
0000000000
0000000000
0000000000
0000000000
ENDCHAR
STARTCHAR Edieresis
ENCODING 10803
SWIDTH 985 0
DWIDTH 40 0
BBX 40 40 0 -3
BITMAP
0000000000
0000000000
0000000000
0000318000
00007bc000
0000318000
0000000000
0000000000
003ffffc00
000ffffc00
0003807c00
0003801c00
0003801c00
0003800c00
0003810c00
0003810400
0003810400
0003830000
00038f0000
0003ff0000
0003ff0000
00038f0000
0003830000
0003830000
0003810400
0003810400
0003800400
0003800c00
0003800c00
0003801c00
0003807c00
000ffffc00
003ffffc00
0000000000
0000000000
0000000000
0000000000
0000000000
0000000000
0000000000
ENDCHAR
STARTCHAR Ecircumflex
ENCODING 10804
SWIDTH 985 0
DWIDTH 40 0
BBX 40 40 0 -3
BITMAP
0000000000
00000c0000
00001e0000
00003f0000
0000618000
0000c0c000
0000000000
0000000000
003ffffc00
000ffffc00
0003807c00
0003801c00
0003801c00
0003800c00
0003810c00
0003810400
0003810400
0003830000
00038f0000
0003ff0000
0003ff0000
00038f0000
0003830000
0003830000
0003810400
0003810400
0003800400
0003800c00
0003800c00
0003801c00
0003807c00
000ffffc00
003ffffc00
0000000000
0000000000
0000000000
0000000000
0000000000
0000000000
0000000000
ENDCHAR
STARTCHAR 10-21
ENCODING 10805
SWIDTH 985 0
DWIDTH 40 0
BBX 40 40 0 -3
BITMAP
0000000000
0001818000
0000c30000
00007e0000
00003c0000
0000180000
0000000000
0000000000
003ffffc00
000ffffc00
0003807c00
0003801c00
0003801c00
0003800c00
0003810c00
0003810400
0003810400
0003830000
00038f0000
0003ff0000
0003ff0000
00038f0000
0003830000
0003830000
0003810400
0003810400
0003800400
0003800c00
0003800c00
0003801c00
0003807c00
000ffffc00
003ffffc00
0000000000
0000000000
0000000000
0000000000
0000000000
0000000000
0000000000
ENDCHAR
STARTCHAR 10-22
ENCODING 10806
SWIDTH 985 0
DWIDTH 40 0
BBX 40 40 0 -3
BITMAP
0000000000
0000000000
0000000000
0000180000
00003c0000
0000180000
0000000000
0000000000
003ffffc00
000ffffc00
0003807c00
0003801c00
0003801c00
0003800c00
0003810c00
0003810400
0003810400
0003830000
00038f0000
0003ff0000
0003ff0000
00038f0000
0003830000
0003830000
0003810400
0003810400
0003800400
0003800c00
0003800c00
0003801c00
0003807c00
000ffffc00
003ffffc00
0000000000
0000000000
0000000000
0000000000
0000000000
0000000000
0000000000
ENDCHAR
STARTCHAR 10-23
ENCODING 10807
SWIDTH 985 0
DWIDTH 40 0
BBX 40 40 0 -3
BITMAP
0000000000
0000000000
0000000000
0000000000
0000000000
0001ff8000
0001ff8000
0000000000
003ffffc00
000ffffc00
0003807c00
0003801c00
0003801c00
0003800c00
0003810c00
0003810400
0003810400
0003830000
00038f0000
0003ff0000
0003ff0000
00038f0000
0003830000
0003830000
0003810400
0003810400
0003800400
0003800c00
0003800c00
0003801c00
0003807c00
000ffffc00
003ffffc00
0000000000
0000000000
0000000000
0000000000
0000000000
0000000000
0000000000
ENDCHAR
STARTCHAR 10-24
ENCODING 10808
SWIDTH 985 0
DWIDTH 40 0
BBX 40 40 0 -3
BITMAP
0000000000
0000000000
0000000000
0000000000
0000000000
0000000000
0000000000
0000000000
003ffffc00
000ffffc00
0003807c00
0003801c00
0003801c00
0003800c00
0003810c00
0003810400
0003810400
0003830000
00038f0000
0003ff0000
0003ff0000
00038f0000
0003830000
0003830000
0003810400
0003810400
0003800400
0003800c00
0003800c00
0003801c00
0003807c00
000ffffc00
003ffffc00
0000180000
0000300000
0000700000
00007e0000
00003c0000
0000000000
0000000000
ENDCHAR
STARTCHAR 10-26
ENCODING 10810
SWIDTH 985 0
DWIDTH 40 0
BBX 40 40 0 -3
BITMAP
0000000000
0000180000
00003c0000
00007e0000
0000c30000
0001818000
0000000000
0000000000
0001fe3000
0007ffb000
000f03f000
001e00f000
003c007000
0038007000
0078003000
0070003000
0070001000
00f0001000
00f0000000
00f0000000
00f0000000
00f0000000
00f007ff00
00f000f800
00f0007000
0070007000
0070007000
0078007000
003800f000
001c00f000
000f01b000
0007ff3000
0001fe1000
0000000000
0000000000
0000000000
0000000000
0000000000
0000000000
0000000000
ENDCHAR
STARTCHAR 10-27
ENCODING 10811
SWIDTH 985 0
DWIDTH 40 0
BBX 40 40 0 -3
BITMAP
0000000000
0000000000
0000808000
0000c18000
00007f0000
00001c0000
0000000000
0000000000
0001fe3000
0007ffb000
000f03f000
001e00f000
003c007000
0038007000
0078003000
0070003000
0070001000
00f0001000
00f0000000
00f0000000
00f0000000
00f0000000
00f007ff00
00f000f800
00f0007000
0070007000
0070007000
0078007000
003800f000
001c00f000
000f01b000
0007ff3000
0001fe1000
0000000000
0000000000
0000000000
0000000000
0000000000
0000000000
0000000000
ENDCHAR
STARTCHAR 10-28
ENCODING 10812
SWIDTH 985 0
DWIDTH 40 0
BBX 40 40 0 -3
BITMAP
0000000000
0000000000
0000000000
0000000000
0000000000
0000000000
0000000000
0000000000
0001fe3000
0007ffb000
000f03f000
001e00f000
003c007000
0038007000
0078003000
0070003000
0070001000
00f0001000
00f0000000
00f0000000
00f0000000
00f0000000
00f007ff00
00f000f800
00f0007000
0070007000
0070007000
0078007000
003800f000
001c00f000
000f01b000
0007ff3000
0001fe1000
0000080000
0000100000
00003c0000
0000060000
0000060000
0000460000
00003c0000
ENDCHAR
STARTCHAR 10-29
ENCODING 10813
SWIDTH 985 0
DWIDTH 40 0
BBX 40 40 0 -3
BITMAP
0000000000
0000000000
0000000000
0000180000
00003c0000
0000180000
0000000000
0000000000
0001fe3000
0007ffb000
000f03f000
001e00f000
003c007000
0038007000
0078003000
0070003000
0070001000
00f0001000
00f0000000
00f0000000
00f0000000
00f0000000
00f007ff00
00f000f800
00f0007000
0070007000
0070007000
0078007000
003800f000
001c00f000
000f01b000
0007ff3000
0001fe1000
0000000000
0000000000
0000000000
0000000000
0000000000
0000000000
0000000000
ENDCHAR
STARTCHAR 10-30
ENCODING 10814
SWIDTH 985 0
DWIDTH 40 0
BBX 40 40 0 -3
BITMAP
0000000000
0000180000
00003c0000
00007e0000
0000c30000
0001818000
0000000000
0000000000
00ffe3ff80
003f80fe00
000e003800
000e003800
000e003800
000e003800
000e003800
000e003800
000e003800
000e003800
000e003800
000ffff800
000ffff800
000e003800
000e003800
000e003800
000e003800
000e003800
000e003800
000e003800
000e003800
000e003800
000e003800
003f80fe00
00ffe3ff80
0000000000
0000000000
0000000000
0000000000
0000000000
0000000000
0000000000
ENDCHAR
STARTCHAR Iacute
ENCODING 10815
SWIDTH 985 0
DWIDTH 40 0
BBX 40 40 0 -3
BITMAP
0000000000
0000018000
0000038000
0000070000
00000e0000
0000180000
0000300000
0000000000
0001ffc000
00007f0000
00001c0000
00001c0000
00001c0000
00001c0000
00001c0000
00001c0000
00001c0000
00001c0000
00001c0000
00001c0000
00001c0000
00001c0000
00001c0000
00001c0000
00001c0000
00001c0000
00001c0000
00001c0000
00001c0000
00001c0000
00001c0000
00007f0000
0001ffc000
0000000000
0000000000
0000000000
0000000000
0000000000
0000000000
0000000000
ENDCHAR
STARTCHAR Igrave
ENCODING 10816
SWIDTH 985 0
DWIDTH 40 0
BBX 40 40 0 -3
BITMAP
0000000000
0000c00000
0000e00000
0000700000
0000380000
00000c0000
0000060000
0000000000
0001ffc000
00007f0000
00001c0000
00001c0000
00001c0000
00001c0000
00001c0000
00001c0000
00001c0000
00001c0000
00001c0000
00001c0000
00001c0000
00001c0000
00001c0000
00001c0000
00001c0000
00001c0000
00001c0000
00001c0000
00001c0000
00001c0000
00001c0000
00007f0000
0001ffc000
0000000000
0000000000
0000000000
0000000000
0000000000
0000000000
0000000000
ENDCHAR
STARTCHAR Idieresis
ENCODING 10817
SWIDTH 985 0
DWIDTH 40 0
BBX 40 40 0 -3
BITMAP
0000000000
0000000000
0000000000
0000630000
0000f78000
0000630000
0000000000
0000000000
0001ffc000
00007f0000
00001c0000
00001c0000
00001c0000
00001c0000
00001c0000
00001c0000
00001c0000
00001c0000
00001c0000
00001c0000
00001c0000
00001c0000
00001c0000
00001c0000
00001c0000
00001c0000
00001c0000
00001c0000
00001c0000
00001c0000
00001c0000
00007f0000
0001ffc000
0000000000
0000000000
0000000000
0000000000
0000000000
0000000000
0000000000
ENDCHAR
STARTCHAR Icircumflex
ENCODING 10818
SWIDTH 985 0
DWIDTH 40 0
BBX 40 40 0 -3
BITMAP
0000000000
0000000000
00000c0000
00001e0000
00003f0000
0000618000
0000c0c000
0000000000
0001ffc000
00007f0000
00001c0000
00001c0000
00001c0000
00001c0000
00001c0000
00001c0000
00001c0000
00001c0000
00001c0000
00001c0000
00001c0000
00001c0000
00001c0000
00001c0000
00001c0000
00001c0000
00001c0000
00001c0000
00001c0000
00001c0000
00001c0000
00007f0000
0001ffc000
0000000000
0000000000
0000000000
0000000000
0000000000
0000000000
0000000000
ENDCHAR
STARTCHAR 10-35
ENCODING 10819
SWIDTH 985 0
DWIDTH 40 0
BBX 40 40 0 -3
BITMAP
0000000000
0001818000
0000c30000
00007e0000
00003c0000
0000180000
0000000000
0000000000
0001ffc000
00007f0000
00001c0000
00001c0000
00001c0000
00001c0000
00001c0000
00001c0000
00001c0000
00001c0000
00001c0000
00001c0000
00001c0000
00001c0000
00001c0000
00001c0000
00001c0000
00001c0000
00001c0000
00001c0000
00001c0000
00001c0000
00001c0000
00007f0000
0001ffc000
0000000000
0000000000
0000000000
0000000000
0000000000
0000000000
0000000000
ENDCHAR
STARTCHAR 10-36
ENCODING 10820
SWIDTH 985 0
DWIDTH 40 0
BBX 40 40 0 -3
BITMAP
0000000000
0000000000
0000000000
0000180000
00003c0000
0000180000
0000000000
0000000000
0001ffc000
00007f0000
00001c0000
00001c0000
00001c0000
00001c0000
00001c0000
00001c0000
00001c0000
00001c0000
00001c0000
00001c0000
00001c0000
00001c0000
00001c0000
00001c0000
00001c0000
00001c0000
00001c0000
00001c0000
00001c0000
00001c0000
00001c0000
00007f0000
0001ffc000
0000000000
0000000000
0000000000
0000000000
0000000000
0000000000
0000000000
ENDCHAR
STARTCHAR 10-37
ENCODING 10821
SWIDTH 985 0
DWIDTH 40 0
BBX 40 40 0 -3
BITMAP
0000000000
0000000000
0000000000
0000000000
0000000000
0001ff8000
0001ff8000
0000000000
0001ffc000
00007f0000
00001c0000
00001c0000
00001c0000
00001c0000
00001c0000
00001c0000
00001c0000
00001c0000
00001c0000
00001c0000
00001c0000
00001c0000
00001c0000
00001c0000
00001c0000
00001c0000
00001c0000
00001c0000
00001c0000
00001c0000
00001c0000
00007f0000
0001ffc000
0000000000
0000000000
0000000000
0000000000
0000000000
0000000000
0000000000
ENDCHAR
STARTCHAR 10-38
ENCODING 10822
SWIDTH 985 0
DWIDTH 40 0
BBX 40 40 0 -3
BITMAP
0000000000
0000000000
0000000000
0000000000
0000000000
0000000000
0000000000
0000000000
0001ffc000
00007f0000
00001c0000
00001c0000
00001c0000
00001c0000
00001c0000
00001c0000
00001c0000
00001c0000
00001c0000
00001c0000
00001c0000
00001c0000
00001c0000
00001c0000
00001c0000
00001c0000
00001c0000
00001c0000
00001c0000
00001c0000
00001c0000
00007f0000
0001ffc000
0000180000
0000300000
0000700000
00007e0000
00003c0000
0000000000
0000000000
ENDCHAR
STARTCHAR 10-39
ENCODING 10823
SWIDTH 985 0
DWIDTH 40 0
BBX 40 40 0 -3
BITMAP
0000000000
0000000000
0000000000
000078c000
0000ff8000
00018f0000
0000000000
0000000000
0001ffc000
00007f0000
00001c0000
00001c0000
00001c0000
00001c0000
00001c0000
00001c0000
00001c0000
00001c0000
00001c0000
00001c0000
00001c0000
00001c0000
00001c0000
00001c0000
00001c0000
00001c0000
00001c0000
00001c0000
00001c0000
00001c0000
00001c0000
00007f0000
0001ffc000
0000000000
0000000000
0000000000
0000000000
0000000000
0000000000
0000000000
ENDCHAR
STARTCHAR 10-40
ENCODING 10824
SWIDTH 985 0
DWIDTH 40 0
BBX 40 40 0 -3
BITMAP
0000000000
0000018000
000003c000
000007e000
00000c3000
0000181800
0000000000
0000000000
00003ff800
000007c000
0000038000
0000038000
0000038000
0000038000
0000038000
0000038000
0000038000
0000038000
0000038000
0000038000
0000038000
0000038000
0000038000
0000038000
0007038000
000f838000
000f838000
000f838000
000f038000
000c078000
000e070000
0007ff0000
0001fc0000
0000000000
0000000000
0000000000
0000000000
0000000000
0000000000
0000000000
ENDCHAR
STARTCHAR 10-41
ENCODING 10825
SWIDTH 985 0
DWIDTH 40 0
BBX 40 40 0 -3
BITMAP
0000000000
0000000000
0000000000
0000000000
0000000000
0000000000
0000000000
0000000000
00ffe3ff00
003f81fc00
000e00f000
000e00e000
000e01c000
000e018000
000e030000
000e060000
000e0e0000
000e1c0000
000e380000
000e7c0000
000efe0000
000fde0000
000f8f0000
000f078000
000e07c000
000e03c000
000e01e000
000e01f000
000e00f000
000e007800
000e007c00
003f003e00
00ffc0ff80
0000080000
0000100000
00003c0000
0000060000
0000060000
0000460000
00003c0000
ENDCHAR
STARTCHAR 10-42
ENCODING 10826
SWIDTH 985 0
DWIDTH 40 0
BBX 40 40 0 -3
BITMAP
0000000000
0000030000
0000070000
00000e0000
00001c0000
0000300000
0000600000
0000000000
003ff80000
000fe00000
0003800000
0003800000
0003800000
0003800000
0003800000
0003800000
0003800000
0003800000
0003800000
0003800000
0003800000
0003800000
0003800000
0003800000
0003800400
0003800400
0003800400
0003800c00
0003800c00
0003801c00
0003807c00
000ffff800
003ffff800
0000000000
0000000000
0000000000
0000000000
0000000000
0000000000
0000000000
ENDCHAR
STARTCHAR 10-43
ENCODING 10827
SWIDTH 985 0
DWIDTH 40 0
BBX 40 40 0 -3
BITMAP
0000000000
0001818000
0000c30000
00007e0000
00003c0000
0000180000
0000000000
0000000000
003ff80000
000fe00000
0003800000
0003800000
0003800000
0003800000
0003800000
0003800000
0003800000
0003800000
0003800000
0003800000
0003800000
0003800000
0003800000
0003800000
0003800400
0003800400
0003800400
0003800c00
0003800c00
0003801c00
0003807c00
000ffff800
003ffff800
0000000000
0000000000
0000000000
0000000000
0000000000
0000000000
0000000000
ENDCHAR
STARTCHAR 10-44
ENCODING 10828
SWIDTH 985 0
DWIDTH 40 0
BBX 40 40 0 -3
BITMAP
0000000000
0000000000
0000000000
0000000000
0000000000
0000000000
0000000000
0000000000
003ff80000
000fe00000
0003800000
0003800000
0003800000
0003800000
0003800000
0003800000
0003800000
0003800000
0003800000
0003800000
0003800000
0003800000
0003800000
0003800000
0003800400
0003800400
0003800400
0003800c00
0003800c00
0003801c00
0003807c00
000ffff800
003ffff800
0000080000
0000100000
00003c0000
0000060000
0000060000
0000460000
00003c0000
ENDCHAR
STARTCHAR 10-45
ENCODING 10829
SWIDTH 985 0
DWIDTH 40 0
BBX 40 40 0 -3
BITMAP
0000000000
0000030000
0000070000
00000e0000
00001c0000
0000300000
0000600000
0000000000
01fe01ff80
003e007e00
001f001800
001f801800
001f801800
001bc01800
001be01800
0019f01800
0018f01800
0018f81800
00187c1800
00183c1800
00183e1800
00181f1800
00180f1800
00180f9800
0018079800
001803d800
001801d800
001801f800
001800f800
0018007800
0018007800
007e003800
01ff801800
0000000000
0000000000
0000000000
0000000000
0000000000
0000000000
0000000000
ENDCHAR
STARTCHAR 10-46
ENCODING 10830
SWIDTH 985 0
DWIDTH 40 0
BBX 40 40 0 -3
BITMAP
0000000000
0001818000
0000c30000
00007e0000
00003c0000
0000180000
0000000000
0000000000
01fe01ff80
003e007e00
001f001800
001f801800
001f801800
001bc01800
001be01800
0019f01800
0018f01800
0018f81800
00187c1800
00183c1800
00183e1800
00181f1800
00180f1800
00180f9800
0018079800
001803d800
001801d800
001801f800
001800f800
0018007800
0018007800
007e003800
01ff801800
0000000000
0000000000
0000000000
0000000000
0000000000
0000000000
0000000000
ENDCHAR
STARTCHAR 10-47
ENCODING 10831
SWIDTH 985 0
DWIDTH 40 0
BBX 40 40 0 -3
BITMAP
0000000000
0000000000
0000000000
0000000000
0000000000
0000000000
0000000000
0000000000
01fe01ff80
003e007e00
001f001800
001f801800
001f801800
001bc01800
001be01800
0019f01800
0018f01800
0018f81800
00187c1800
00183c1800
00183e1800
00181f1800
00180f1800
00180f9800
0018079800
001803d800
001801d800
001801f800
001800f800
0018007800
0018007800
007e003800
01ff801800
0000080000
0000100000
00003c0000
0000060000
0000060000
0000460000
00003c0000
ENDCHAR
STARTCHAR Ntilde
ENCODING 10832
SWIDTH 985 0
DWIDTH 40 0
BBX 40 40 0 -3
BITMAP
0000000000
0000000000
0000000000
00003c6000
00007fc000
0000c78000
0000000000
0000000000
01fe01ff80
003e007e00
001f001800
001f801800
001f801800
001bc01800
001be01800
0019f01800
0018f01800
0018f81800
00187c1800
00183c1800
00183e1800
00181f1800
00180f1800
00180f9800
0018079800
001803d800
001801d800
001801f800
001800f800
0018007800
0018007800
007e003800
01ff801800
0000000000
0000000000
0000000000
0000000000
0000000000
0000000000
0000000000
ENDCHAR
STARTCHAR Oacute
ENCODING 10833
SWIDTH 985 0
DWIDTH 40 0
BBX 40 40 0 -3
BITMAP
0000000000
0000018000
0000038000
0000070000
00000e0000
0000180000
0000300000
0000000000
0000ff0000
0003ffc000
000781e000
000e007000
001e007800
001c003800
003c003c00
003c003c00
0078001e00
0078001e00
0078001e00
0078001e00
0078001e00
0078001e00
0078001e00
0078001e00
0078001c00
003c003c00
003c003c00
001c003800
001e007800
000e007000
000781e000
0003ffc000
0000ff0000
0000000000
0000000000
0000000000
0000000000
0000000000
0000000000
0000000000
ENDCHAR
STARTCHAR Ograve
ENCODING 10834
SWIDTH 985 0
DWIDTH 40 0
BBX 40 40 0 -3
BITMAP
0000000000
0003000000
0003800000
0001c00000
0000e00000
0000300000
0000180000
0000000000
0000ff0000
0003ffc000
000781e000
000e007000
001e007800
001c003800
003c003c00
003c003c00
0078001e00
0078001e00
0078001e00
0078001e00
0078001e00
0078001e00
0078001e00
0078001e00
0078001c00
003c003c00
003c003c00
001c003800
001e007800
000e007000
000781e000
0003ffc000
0000ff0000
0000000000
0000000000
0000000000
0000000000
0000000000
0000000000
0000000000
ENDCHAR
STARTCHAR Odieresis
ENCODING 10835
SWIDTH 985 0
DWIDTH 40 0
BBX 40 40 0 -3
BITMAP
0000000000
0000000000
0000000000
0000630000
0000f78000
0000630000
0000000000
0000000000
0000ff0000
0003ffc000
000781e000
000e007000
001e007800
001c003800
003c003c00
003c003c00
0078001e00
0078001e00
0078001e00
0078001e00
0078001e00
0078001e00
0078001e00
0078001e00
0078001c00
003c003c00
003c003c00
001c003800
001e007800
000e007000
000781e000
0003ffc000
0000ff0000
0000000000
0000000000
0000000000
0000000000
0000000000
0000000000
0000000000
ENDCHAR
STARTCHAR Ocircumflex
ENCODING 10836
SWIDTH 985 0
DWIDTH 40 0
BBX 40 40 0 -3
BITMAP
0000000000
0000000000
0000180000
00003c0000
00007e0000
0000c30000
0001818000
0000000000
0000ff0000
0003ffc000
000781e000
000e007000
001e007800
001c003800
003c003c00
003c003c00
0078001e00
0078001e00
0078001e00
0078001e00
0078001e00
0078001e00
0078001e00
0078001e00
0078001c00
003c003c00
003c003c00
001c003800
001e007800
000e007000
000781e000
0003ffc000
0000ff0000
0000000000
0000000000
0000000000
0000000000
0000000000
0000000000
0000000000
ENDCHAR
STARTCHAR 10-53
ENCODING 10837
SWIDTH 985 0
DWIDTH 40 0
BBX 40 40 0 -3
BITMAP
0000000000
0001818000
0000c30000
00007e0000
00003c0000
0000180000
0000000000
0000000000
0000ff0000
0003ffc000
000781e000
000e007000
001e007800
001c003800
003c003c00
0038001c00
0078001e00
0078001e00
0070000e00
0070000e00
0070000e00
0070000e00
0070000e00
0078001e00
0078001c00
0038001c00
003c003c00
001c003800
001e007800
000e007000
000781e000
0003ffc000
0000ff0000
0000000000
0000000000
0000000000
0000000000
0000000000
0000000000
0000000000
ENDCHAR
STARTCHAR 10-54
ENCODING 10838
SWIDTH 985 0
DWIDTH 40 0
BBX 40 40 0 -3
BITMAP
0000330000
0000330000
0000660000
0000660000
0000440000
0000440000
0000000000
0000000000
0000ff0000
0003ffc000
000781e000
000e007000
001e007800
001c003800
003c003c00
0038001c00
0078001e00
0078001e00
0070000e00
0070000e00
0070000e00
0070000e00
0070000e00
0078001e00
0078001c00
0038001c00
003c003c00
001c003800
001e007800
000e007000
000781e000
0003ffc000
0000ff0000
0000000000
0000000000
0000000000
0000000000
0000000000
0000000000
0000000000
ENDCHAR
STARTCHAR 10-55
ENCODING 10839
SWIDTH 985 0
DWIDTH 40 0
BBX 40 40 0 -3
BITMAP
0000000000
0000000000
0000000000
0000000000
0000000000
0001ff8000
0001ff8000
0000000000
0000ff0000
0003ffc000
000781e000
000e007000
001e007800
001c003800
003c003c00
0038001c00
0078001e00
0078001e00
0070000e00
0070000e00
0070000e00
0070000e00
0070000e00
0078001e00
0078001c00
0038001c00
003c003c00
001c003800
001e007800
000e007000
000781e000
0003ffc000
0000ff0000
0000000000
0000000000
0000000000
0000000000
0000000000
0000000000
0000000000
ENDCHAR
STARTCHAR Otilde
ENCODING 10840
SWIDTH 985 0
DWIDTH 40 0
BBX 40 40 0 -3
BITMAP
0000000000
0000000000
0000000000
000078c000
0000ff8000
00018f0000
0000000000
0000000000
0000ff0000
0003ffc000
000781e000
000e007000
001e007800
001c003800
003c003c00
003c003c00
0078001e00
0078001e00
0078001e00
0078001e00
0078001e00
0078001e00
0078001e00
0078001e00
0078001c00
003c003c00
003c003c00
001c003800
001e007800
000e007000
000781e000
0003ffc000
0000ff0000
0000000000
0000000000
0000000000
0000000000
0000000000
0000000000
0000000000
ENDCHAR
STARTCHAR 10-57
ENCODING 10841
SWIDTH 985 0
DWIDTH 40 0
BBX 40 40 0 -3
BITMAP
0000000000
0000030000
0000070000
00000e0000
00001c0000
0000300000
0000600000
0000000000
003fff8000
000fffe000
000381f000
0003807000
0003807800
0003803800
0003803800
0003807800
0003807800
0003807000
000380f000
000383c000
0003ff0000
0003ff8000
000383c000
000381c000
000381e000
000380e000
000380e000
000380e200
000380e200
000380e200
000380f600
000fe07c00
003ff87800
0000000000
0000000000
0000000000
0000000000
0000000000
0000000000
0000000000
ENDCHAR
STARTCHAR 10-58
ENCODING 10842
SWIDTH 985 0
DWIDTH 40 0
BBX 40 40 0 -3
BITMAP
0000000000
0001818000
0000c30000
00007e0000
00003c0000
0000180000
0000000000
0000000000
003fff8000
000fffe000
000381f000
0003807000
0003807800
0003803800
0003803800
0003807800
0003807800
0003807000
000380f000
000383c000
0003ff0000
0003ff8000
000383c000
000381c000
000381e000
000380e000
000380e000
000380e200
000380e200
000380e200
000380f600
000fe07c00
003ff87800
0000000000
0000000000
0000000000
0000000000
0000000000
0000000000
0000000000
ENDCHAR
STARTCHAR 10-59
ENCODING 10843
SWIDTH 985 0
DWIDTH 40 0
BBX 40 40 0 -3
BITMAP
0000000000
0000000000
0000000000
0000000000
0000000000
0000000000
0000000000
0000000000
003fff8000
000fffe000
000381f000
0003807000
0003807800
0003803800
0003803800
0003807800
0003807800
0003807000
000380f000
000383c000
0003ff0000
0003ff8000
000383c000
000381c000
000381e000
000380e000
000380e000
000380e200
000380e200
000380e200
000380f600
000fe07c00
003ff87800
0000080000
0000100000
00003c0000
0000060000
0000060000
0000460000
00003c0000
ENDCHAR
STARTCHAR 10-60
ENCODING 10844
SWIDTH 985 0
DWIDTH 40 0
BBX 40 40 0 -3
BITMAP
0000000000
0000030000
0000070000
00000e0000
00001c0000
0000300000
0000600000
0000000000
0000ff1000
0003ffb000
000701f000
0006007000
000e007000
000e003000
000e001000
000f001000
000f000000
0007e00000
0007fe0000
0001ffc000
00007fe000
000007f000
000000f800
0008007800
0008003800
000c003800
000c003800
000c003800
000e007800
000f007000
000f80e000
000dffc000
00087f0000
0000000000
0000000000
0000000000
0000000000
0000000000
0000000000
0000000000
ENDCHAR
STARTCHAR 10-61
ENCODING 10845
SWIDTH 985 0
DWIDTH 40 0
BBX 40 40 0 -3
BITMAP
0000000000
0000180000
00003c0000
00007e0000
0000c30000
0001818000
0000000000
0000000000
0000ff1000
0003ffb000
000701f000
0006007000
000e007000
000e003000
000e001000
000f001000
000f000000
0007e00000
0007fe0000
0001ffc000
00007fe000
000007f000
000000f800
0008007800
0008003800
000c003800
000c003800
000c003800
000e007800
000f007000
000f80e000
000dffc000
00087f0000
0000000000
0000000000
0000000000
0000000000
0000000000
0000000000
0000000000
ENDCHAR
STARTCHAR 10-62
ENCODING 10846
SWIDTH 985 0
DWIDTH 40 0
BBX 40 40 0 -3
BITMAP
0000000000
0001818000
0000c30000
00007e0000
00003c0000
0000180000
0000000000
0000000000
0000ff1000
0003ffb000
000701f000
0006007000
000e007000
000e003000
000e001000
000f001000
000f000000
0007e00000
0007fe0000
0001ffc000
00007fe000
000007f000
000000f800
0008007800
0008003800
000c003800
000c003800
000c003800
000e007800
000f007000
000f80e000
000dffc000
00087f0000
0000000000
0000000000
0000000000
0000000000
0000000000
0000000000
0000000000
ENDCHAR
STARTCHAR 10-63
ENCODING 10847
SWIDTH 985 0
DWIDTH 40 0
BBX 40 40 0 -3
BITMAP
0000000000
0000000000
0000000000
0000000000
0000000000
0000000000
0000000000
0000000000
0000ff1000
0003ffb000
000701f000
0006007000
000e007000
000e003000
000e001000
000f001000
000f000000
0007e00000
0007fe0000
0001ffc000
00007fe000
000007f000
000000f800
0008007800
0008003800
000c003800
000c003800
000c003800
000e007800
000f007000
000f80e000
000dffc000
00087f0000
0000080000
0000100000
00003c0000
0000060000
0000060000
0000460000
00003c0000
ENDCHAR
STARTCHAR 10-64
ENCODING 10848
SWIDTH 985 0
DWIDTH 40 0
BBX 40 40 0 -3
BITMAP
0000000000
0001818000
0000c30000
00007e0000
00003c0000
0000180000
0000000000
0000000000
001ffffc00
001ffffc00
001e1c7c00
001c1c1c00
00181c0c00
00181c0c00
00101c0400
00101c0400
00101c0400
00001c0000
00001c0000
00001c0000
00001c0000
00001c0000
00001c0000
00001c0000
00001c0000
00001c0000
00001c0000
00001c0000
00001c0000
00001c0000
00001c0000
00007f0000
0001ffc000
0000000000
0000000000
0000000000
0000000000
0000000000
0000000000
0000000000
ENDCHAR
STARTCHAR 10-65
ENCODING 10849
SWIDTH 985 0
DWIDTH 40 0
BBX 40 40 0 -3
BITMAP
0000000000
0000000000
0000000000
0000000000
0000000000
0000000000
0000000000
0000000000
001ffffc00
001ffffc00
001e1c7c00
001c1c1c00
00181c0c00
00181c0c00
00101c0400
00101c0400
00101c0400
00001c0000
00001c0000
00001c0000
00001c0000
00001c0000
00001c0000
00001c0000
00001c0000
00001c0000
00001c0000
00001c0000
00001c0000
00001c0000
00001c0000
00007f0000
0001ffc000
0000080000
0000100000
00003c0000
0000060000
0000060000
0000460000
00003c0000
ENDCHAR
STARTCHAR Uacute
ENCODING 10850
SWIDTH 985 0
DWIDTH 40 0
BBX 40 40 0 -3
BITMAP
0000000000
0000006000
000000e000
000001c000
0000038000
0000060000
00000c0000
0000000000
01ffc1ff80
007f007e00
001c001800
001c001800
001c001800
001c001800
001c001800
001c001800
001c001800
001c001800
001c001800
001c001800
001c001800
001c001800
001c001800
001c001800
001c001800
001c001800
001c001800
001e003000
000e003000
000f006000
0007c1e000
0003ff8000
0000fe0000
0000000000
0000000000
0000000000
0000000000
0000000000
0000000000
0000000000
ENDCHAR
STARTCHAR Ugrave
ENCODING 10851
SWIDTH 985 0
DWIDTH 40 0
BBX 40 40 0 -3
BITMAP
0000000000
0000600000
0000700000
0000380000
00001c0000
0000060000
0000030000
0000000000
01ffc1ff80
007f007e00
001c001800
001c001800
001c001800
001c001800
001c001800
001c001800
001c001800
001c001800
001c001800
001c001800
001c001800
001c001800
001c001800
001c001800
001c001800
001c001800
001c001800
001e003000
000e003000
000f006000
0007c1e000
0003ff8000
0000fe0000
0000000000
0000000000
0000000000
0000000000
0000000000
0000000000
0000000000
ENDCHAR
STARTCHAR Udieresis
ENCODING 10852
SWIDTH 985 0
DWIDTH 40 0
BBX 40 40 0 -3
BITMAP
0000000000
0000000000
0000000000
0000618000
0000f3c000
0000618000
0000000000
0000000000
01ffc1ff80
007f007e00
001c001800
001c001800
001c001800
001c001800
001c001800
001c001800
001c001800
001c001800
001c001800
001c001800
001c001800
001c001800
001c001800
001c001800
001c001800
001c001800
001c001800
001e003000
000e003000
000f006000
0007c1e000
0003ff8000
0000fe0000
0000000000
0000000000
0000000000
0000000000
0000000000
0000000000
0000000000
ENDCHAR
STARTCHAR Ucircumflex
ENCODING 10853
SWIDTH 985 0
DWIDTH 40 0
BBX 40 40 0 -3
BITMAP
0000000000
0000000000
00000c0000
00001e0000
00003f0000
0000618000
0000c0c000
0000000000
01ffc1ff80
007f007e00
001c001800
001c001800
001c001800
001c001800
001c001800
001c001800
001c001800
001c001800
001c001800
001c001800
001c001800
001c001800
001c001800
001c001800
001c001800
001c001800
001c001800
001e003000
000e003000
000f006000
0007c1e000
0003ff8000
0000fe0000
0000000000
0000000000
0000000000
0000000000
0000000000
0000000000
0000000000
ENDCHAR
STARTCHAR 10-70
ENCODING 10854
SWIDTH 985 0
DWIDTH 40 0
BBX 40 40 0 -3
BITMAP
0000000000
0000000000
0000808000
0000c18000
00007f0000
00001c0000
0000000000
0000000000
01ffc1ff80
007f007e00
001c001800
001c001800
001c001800
001c001800
001c001800
001c001800
001c001800
001c001800
001c001800
001c001800
001c001800
001c001800
001c001800
001c001800
001c001800
001c001800
001c001800
001e003000
000e003000
000f006000
0007c1e000
0003ff8000
0000fe0000
0000000000
0000000000
0000000000
0000000000
0000000000
0000000000
0000000000
ENDCHAR
STARTCHAR 10-71
ENCODING 10855
SWIDTH 985 0
DWIDTH 40 0
BBX 40 40 0 -3
BITMAP
0000000000
0001818000
0000c30000
00007e0000
00003c0000
0000180000
0000000000
0000000000
01ffc1ff80
007f007e00
001c001800
001c001800
001c001800
001c001800
001c001800
001c001800
001c001800
001c001800
001c001800
001c001800
001c001800
001c001800
001c001800
001c001800
001c001800
001c001800
001c001800
001e003000
000e003000
000f006000
0007c1e000
0003ff8000
0000fe0000
0000000000
0000000000
0000000000
0000000000
0000000000
0000000000
0000000000
ENDCHAR
STARTCHAR 10-72
ENCODING 10856
SWIDTH 985 0
DWIDTH 40 0
BBX 40 40 0 -3
BITMAP
0000330000
0000330000
0000660000
0000660000
0000440000
0000440000
0000000000
0000000000
01ffc1ff80
007f007e00
001c001800
001c001800
001c001800
001c001800
001c001800
001c001800
001c001800
001c001800
001c001800
001c001800
001c001800
001c001800
001c001800
001c001800
001c001800
001c001800
001c001800
001e003000
000e003000
000f006000
0007c1e000
0003ff8000
0000fe0000
0000000000
0000000000
0000000000
0000000000
0000000000
0000000000
0000000000
ENDCHAR
STARTCHAR 10-73
ENCODING 10857
SWIDTH 985 0
DWIDTH 40 0
BBX 40 40 0 -3
BITMAP
0000000000
0000000000
0000000000
0000000000
0000000000
0001ff8000
0001ff8000
0000000000
01ffc1ff80
007f007e00
001c001800
001c001800
001c001800
001c001800
001c001800
001c001800
001c001800
001c001800
001c001800
001c001800
001c001800
001c001800
001c001800
001c001800
001c001800
001c001800
001c001800
001e003000
000e003000
000f006000
0007c1e000
0003ff8000
0000fe0000
0000000000
0000000000
0000000000
0000000000
0000000000
0000000000
0000000000
ENDCHAR
STARTCHAR 10-74
ENCODING 10858
SWIDTH 985 0
DWIDTH 40 0
BBX 40 40 0 -3
BITMAP
0000000000
0000000000
0000000000
0000000000
0000000000
0000000000
0000000000
0000000000
01ffc1ff80
007f007e00
001c001800
001c001800
001c001800
001c001800
001c001800
001c001800
001c001800
001c001800
001c001800
001c001800
001c001800
001c001800
001c001800
001c001800
001c001800
001c001800
001c001800
001e003000
000e003000
000f006000
0007c1e000
0003ff8000
0000fe0000
0000180000
0000300000
0000700000
00007e0000
00003c0000
0000000000
0000000000
ENDCHAR
STARTCHAR 10-75
ENCODING 10859
SWIDTH 985 0
DWIDTH 40 0
BBX 40 40 0 -3
BITMAP
00003c0000
0000660000
0000420000
0000420000
0000660000
00003c0000
0000000000
0000000000
01ffc1ff80
007f007e00
001c001800
001c001800
001c001800
001c001800
001c001800
001c001800
001c001800
001c001800
001c001800
001c001800
001c001800
001c001800
001c001800
001c001800
001c001800
001c001800
001c001800
001e003000
000e003000
000f006000
0007c1e000
0003ff8000
0000fe0000
0000000000
0000000000
0000000000
0000000000
0000000000
0000000000
0000000000
ENDCHAR
STARTCHAR 10-76
ENCODING 10860
SWIDTH 985 0
DWIDTH 40 0
BBX 40 40 0 -3
BITMAP
0000000000
0000000000
0000000000
000078c000
0000ff8000
00018f0000
0000000000
0000000000
01ffc1ff80
007f007e00
001c001800
001c001800
001c001800
001c001800
001c001800
001c001800
001c001800
001c001800
001c001800
001c001800
001c001800
001c001800
001c001800
001c001800
001c001800
001c001800
001c001800
001e003000
000e003000
000f006000
0007c1e000
0003ff8000
0000fe0000
0000000000
0000000000
0000000000
0000000000
0000000000
0000000000
0000000000
ENDCHAR
STARTCHAR 10-77
ENCODING 10861
SWIDTH 985 0
DWIDTH 40 0
BBX 40 40 0 -3
BITMAP
0000038000
0000070000
00000c0000
0000798000
0000f3c000
0000618000
0000000000
0000000000
01ffc1ff80
007f007e00
001c001800
001c001800
001c001800
001c001800
001c001800
001c001800
001c001800
001c001800
001c001800
001c001800
001c001800
001c001800
001c001800
001c001800
001c001800
001c001800
001c001800
001e003000
000e003000
000f006000
0007c1e000
0003ff8000
0000fe0000
0000000000
0000000000
0000000000
0000000000
0000000000
0000000000
0000000000
ENDCHAR
STARTCHAR 10-78
ENCODING 10862
SWIDTH 985 0
DWIDTH 40 0
BBX 40 40 0 -3
BITMAP
0000600000
0000700000
0000380000
00007d8000
0000f7c000
0000638000
0000000000
0000000000
01ffc1ff80
007f007e00
001c001800
001c001800
001c001800
001c001800
001c001800
001c001800
001c001800
001c001800
001c001800
001c001800
001c001800
001c001800
001c001800
001c001800
001c001800
001c001800
001c001800
001e003000
000e003000
000f006000
0007c1e000
0003ff8000
0000fe0000
0000000000
0000000000
0000000000
0000000000
0000000000
0000000000
0000000000
ENDCHAR
STARTCHAR 10-79
ENCODING 10863
SWIDTH 985 0
DWIDTH 40 0
BBX 40 40 0 -3
BITMAP
0000c0c000
0000618000
00003f0000
00007f8000
0000ffc000
0000618000
0000000000
0000000000
01ffc1ff80
007f007e00
001c001800
001c001800
001c001800
001c001800
001c001800
001c001800
001c001800
001c001800
001c001800
001c001800
001c001800
001c001800
001c001800
001c001800
001c001800
001c001800
001c001800
001e003000
000e003000
000f006000
0007c1e000
0003ff8000
0000fe0000
0000000000
0000000000
0000000000
0000000000
0000000000
0000000000
0000000000
ENDCHAR
STARTCHAR 10-80
ENCODING 10864
SWIDTH 985 0
DWIDTH 40 0
BBX 40 40 0 -3
BITMAP
0000ffc000
0000ffc000
0000000000
0000618000
0000f3c000
0000618000
0000000000
0000000000
01ffc1ff80
007f007e00
001c001800
001c001800
001c001800
001c001800
001c001800
001c001800
001c001800
001c001800
001c001800
001c001800
001c001800
001c001800
001c001800
001c001800
001c001800
001c001800
001c001800
001e003000
000e003000
000f006000
0007c1e000
0003ff8000
0000fe0000
0000000000
0000000000
0000000000
0000000000
0000000000
0000000000
0000000000
ENDCHAR
STARTCHAR 10-81
ENCODING 10865
SWIDTH 985 0
DWIDTH 40 0
BBX 40 40 0 -3
BITMAP
0000000000
0000180000
00003c0000
00007e0000
0000c30000
0001818000
0000000000
0000000000
07f8ff8ff0
03f03e03e0
01e01c01c0
00e01c0180
00f01e0180
00f01e0300
00701e0300
00701f0300
00781f0300
0038370600
0038370600
003c278600
003c638600
001c638c00
001c63cc00
001e41cc00
000ec1c800
000fc1f800
000fc0f800
000780f800
000780f000
000780f000
0007007000
0003006000
0003006000
0000000000
0000000000
0000000000
0000000000
0000000000
0000000000
0000000000
ENDCHAR
STARTCHAR Yacute
ENCODING 10866
SWIDTH 985 0
DWIDTH 40 0
BBX 40 40 0 -3
BITMAP
0000000000
000000c000
000001c000
0000038000
0000070000
00000c0000
0000180000
0000000000
007fc1ff00
003f007c00
001f003800
000f003000
0007807000
0007806000
0003c0c000
0003e0c000
0001e18000
0001f18000
0000f30000
00007b0000
00007e0000
00003e0000
00003c0000
00001c0000
00001c0000
00001c0000
00001c0000
00001c0000
00001c0000
00001c0000
00001c0000
00007f0000
0001ffc000
0000000000
0000000000
0000000000
0000000000
0000000000
0000000000
0000000000
ENDCHAR
STARTCHAR 10-83
ENCODING 10867
SWIDTH 985 0
DWIDTH 40 0
BBX 40 40 0 -3
BITMAP
0000000000
0000000000
0000000000
0000000000
0000630000
0000f78000
0000630000
0000000000
007fc1ff00
003f007c00
001f003800
000f003000
0007807000
0007806000
0003c0c000
0003e0c000
0001e18000
0001f18000
0000f30000
00007b0000
00007e0000
00003e0000
00003c0000
00001c0000
00001c0000
00001c0000
00001c0000
00001c0000
00001c0000
00001c0000
00001c0000
00007f0000
0001ffc000
0000000000
0000000000
0000000000
0000000000
0000000000
0000000000
0000000000
ENDCHAR
STARTCHAR 10-84
ENCODING 10868
SWIDTH 985 0
DWIDTH 40 0
BBX 40 40 0 -3
BITMAP
0000000000
0000180000
00003c0000
00007e0000
0000c30000
0001818000
0000000000
0000000000
007fc1ff00
003f007c00
001f003800
000f003000
0007807000
0007806000
0003c0c000
0003e0c000
0001e18000
0001f18000
0000f30000
00007b0000
00007e0000
00003e0000
00003c0000
00001c0000
00001c0000
00001c0000
00001c0000
00001c0000
00001c0000
00001c0000
00001c0000
00007f0000
0001ffc000
0000000000
0000000000
0000000000
0000000000
0000000000
0000000000
0000000000
ENDCHAR
STARTCHAR 10-85
ENCODING 10869
SWIDTH 985 0
DWIDTH 40 0
BBX 40 40 0 -3
BITMAP
0000000000
0000030000
0000070000
00000e0000
00001c0000
0000300000
0000600000
0000000000
0007fff800
0007fff800
000780f000
000700f000
000601e000
000603e000
000603c000
000407c000
0004078000
00000f0000
00000f0000
00001e0000
00003e0000
00003c0000
0000780000
0000780800
0000f00800
0001f00800
0001e01800
0003e01800
0003c01800
0007803800
0007807800
000ffff800
000ffff800
0000000000
0000000000
0000000000
0000000000
0000000000
0000000000
0000000000
ENDCHAR
STARTCHAR 10-86
ENCODING 10870
SWIDTH 985 0
DWIDTH 40 0
BBX 40 40 0 -3
BITMAP
0000000000
0001818000
0000c30000
00007e0000
00003c0000
0000180000
0000000000
0000000000
0007fff800
0007fff800
000780f000
000700f000
000601e000
000603e000
000603c000
000407c000
0004078000
00000f0000
00000f0000
00001e0000
00003e0000
00003c0000
0000780000
0000780800
0000f00800
0001f00800
0001e01800
0003e01800
0003c01800
0007803800
0007807800
000ffff800
000ffff800
0000000000
0000000000
0000000000
0000000000
0000000000
0000000000
0000000000
ENDCHAR
STARTCHAR 10-87
ENCODING 10871
SWIDTH 985 0
DWIDTH 40 0
BBX 40 40 0 -3
BITMAP
0000000000
0000000000
0000000000
0000180000
00003c0000
0000180000
0000000000
0000000000
0007fff800
0007fff800
000780f000
000700f000
000601e000
000603e000
000603c000
000407c000
0004078000
00000f0000
00000f0000
00001e0000
00003e0000
00003c0000
0000780000
0000780800
0000f00800
0001f00800
0001e01800
0003e01800
0003c01800
0007803800
0007807800
000ffff800
000ffff800
0000000000
0000000000
0000000000
0000000000
0000000000
0000000000
0000000000
ENDCHAR
STARTCHAR aacute
ENCODING 11041
SWIDTH 985 0
DWIDTH 40 0
BBX 40 40 0 -3
BITMAP
0000000000
0000000000
0000000000
0000000000
0000000000
0000000000
0000000000
0000000000
0000000000
0000000000
0000030000
0000070000
00000e0000
00001c0000
0000300000
0000600000
0000000000
00007c0000
0001ff0000
0007878000
0007038000
0007038000
0007038000
00001f8000
0000ff8000
0003c38000
0007038000
000e038000
000e038000
000e078000
000f0fd000
0007f9f000
0003f0e000
0000000000
0000000000
0000000000
0000000000
0000000000
0000000000
0000000000
ENDCHAR
STARTCHAR agrave
ENCODING 11042
SWIDTH 985 0
DWIDTH 40 0
BBX 40 40 0 -3
BITMAP
0000000000
0000000000
0000000000
0000000000
0000000000
0000000000
0000000000
0000000000
0000000000
0000000000
0000c00000
0000e00000
0000700000
0000380000
00000c0000
0000060000
0000000000
00007c0000
0001ff0000
0007878000
0007038000
0007038000
0007038000
00001f8000
0000ff8000
0003c38000
0007038000
000e038000
000e038000
000e078000
000f0fd000
0007f9f000
0003f0e000
0000000000
0000000000
0000000000
0000000000
0000000000
0000000000
0000000000
ENDCHAR
STARTCHAR adieresis
ENCODING 11043
SWIDTH 985 0
DWIDTH 40 0
BBX 40 40 0 -3
BITMAP
0000000000
0000000000
0000000000
0000000000
0000000000
0000000000
0000000000
0000000000
0000000000
0000000000
0000000000
0000000000
0000c60000
0001ef0000
0000c60000
0000000000
0000000000
00007c0000
0001ff0000
0007878000
0007038000
0007038000
0007038000
00001f8000
0000ff8000
0003c38000
0007038000
000e038000
000e038000
000e078000
000f0fd000
0007f9f000
0003e0e000
0000000000
0000000000
0000000000
0000000000
0000000000
0000000000
0000000000
ENDCHAR
STARTCHAR acircumflex
ENCODING 11044
SWIDTH 985 0
DWIDTH 40 0
BBX 40 40 0 -3
BITMAP
0000000000
0000000000
0000000000
0000000000
0000000000
0000000000
0000000000
0000000000
0000000000
0000000000
0000000000
0000300000
0000780000
0000fc0000
0001860000
0003030000
0000000000
00007c0000
0001ff0000
0007878000
0007038000
0007038000
0007038000
00001f8000
0000ff8000
0003c38000
0007038000
000e038000
000e038000
000e078000
000f0fd000
0007f9f000
0003e0e000
0000000000
0000000000
0000000000
0000000000
0000000000
0000000000
0000000000
ENDCHAR
STARTCHAR 11-05
ENCODING 11045
SWIDTH 985 0
DWIDTH 40 0
BBX 40 40 0 -3
BITMAP
0000000000
0000000000
0000000000
0000000000
0000000000
0000000000
0000000000
0000000000
0000000000
0000000000
0000000000
0000000000
0000808000
0000c18000
00007f0000
00001c0000
0000000000
0000fc0000
0003ff0000
0007878000
0007038000
0006038000
0000038000
00001f8000
0000ff8000
0003c38000
0007038000
000e038000
000e038000
000e078000
000f1fd000
0007f9f000
0003e0e000
0000000000
0000000000
0000000000
0000000000
0000000000
0000000000
0000000000
ENDCHAR
STARTCHAR 11-06
ENCODING 11046
SWIDTH 985 0
DWIDTH 40 0
BBX 40 40 0 -3
BITMAP
0000000000
0000000000
0000000000
0000000000
0000000000
0000000000
0000000000
0000000000
0000000000
0000000000
0000000000
0001818000
0000c30000
00007e0000
00003c0000
0000180000
0000000000
0000fc0000
0003ff0000
0007878000
0007038000
0006038000
0000038000
00001f8000
0000ff8000
0003c38000
0007038000
000e038000
000e038000
000e078000
000f1fd000
0007f9f000
0003e0e000
0000000000
0000000000
0000000000
0000000000
0000000000
0000000000
0000000000
ENDCHAR
STARTCHAR 11-07
ENCODING 11047
SWIDTH 985 0
DWIDTH 40 0
BBX 40 40 0 -3
BITMAP
0000000000
0000000000
0000000000
0000000000
0000000000
0000000000
0000000000
0000000000
0000000000
0000000000
0000000000
0000000000
0001ff8000
0001ff8000
0000000000
0000000000
0000000000
0000fc0000
0003ff0000
0007878000
0007038000
0006038000
0000038000
00001f8000
0000ff8000
0003c38000
0007038000
000e038000
000e038000
000e078000
000f1fd000
0007f9f000
0003e0e000
0000000000
0000000000
0000000000
0000000000
0000000000
0000000000
0000000000
ENDCHAR
STARTCHAR 11-08
ENCODING 11048
SWIDTH 985 0
DWIDTH 40 0
BBX 40 40 0 -3
BITMAP
0000000000
0000000000
0000000000
0000000000
0000000000
0000000000
0000000000
0000000000
0000000000
0000000000
0000000000
0000000000
0000000000
0000000000
0000000000
0000000000
0000000000
0000fc0000
0003ff0000
0007878000
0007038000
0006038000
0000038000
00001f8000
0000ff8000
0003c38000
0007038000
000e038000
000e038000
000e078000
000f1fd000
0007f9f000
0003e0e000
000000c000
0000018000
0000038000
000003f000
000001e000
0000000000
0000000000
ENDCHAR
STARTCHAR aring
ENCODING 11049
SWIDTH 985 0
DWIDTH 40 0
BBX 40 40 0 -3
BITMAP
0000000000
0000000000
0000000000
0000000000
0000000000
0000000000
0000000000
0000000000
0000000000
0000000000
0000780000
0000cc0000
0000840000
0000840000
0000cc0000
0000780000
0000000000
00007c0000
0001ff0000
0007878000
0007038000
0007038000
0007038000
00001f8000
0000ff8000
0003c38000
0007038000
000e038000
000e038000
000e078000
000f0fd000
0007f9f000
0003e0e000
0000000000
0000000000
0000000000
0000000000
0000000000
0000000000
0000000000
ENDCHAR
STARTCHAR atilde
ENCODING 11050
SWIDTH 985 0
DWIDTH 40 0
BBX 40 40 0 -3
BITMAP
0000000000
0000000000
0000000000
0000000000
0000000000
0000000000
0000000000
0000000000
0000000000
0000000000
0000000000
0000000000
0000f18000
0001ff0000
00031e0000
0000000000
0000000000
00007c0000
0001ff0000
0007878000
0007038000
0007038000
0007038000
00001f8000
0000ff8000
0003c38000
0007038000
000e038000
000e038000
000e078000
000f0fd000
0007f9f000
0003e0e000
0000000000
0000000000
0000000000
0000000000
0000000000
0000000000
0000000000
ENDCHAR
STARTCHAR 11-11
ENCODING 11051
SWIDTH 985 0
DWIDTH 40 0
BBX 40 40 0 -3
BITMAP
0000000000
0000000000
0000000000
0000000000
0000000000
0000000000
0000000000
0000000000
0000030000
0000070000
00000e0000
00001c0000
0000300000
0000600000
0000000000
0000000000
0000000000
00001e0000
00007f8000
0000e1c000
0001c3c000
0001c3c000
0003818000
0003800000
0003800000
0003800000
0003800000
0003800000
0001c04000
0001c0c000
0000e18000
0000ff0000
00003e0000
0000000000
0000000000
0000000000
0000000000
0000000000
0000000000
0000000000
ENDCHAR
STARTCHAR 11-12
ENCODING 11052
SWIDTH 985 0
DWIDTH 40 0
BBX 40 40 0 -3
BITMAP
0000000000
0000000000
0000000000
0000000000
0000000000
0000000000
0000000000
0000000000
0000000000
0000000000
0000000000
0000180000
00003c0000
00007e0000
0000c30000
0001818000
0000000000
00001e0000
00007f8000
0000e1c000
0001c3c000
0001c3c000
0003818000
0003800000
0003800000
0003800000
0003800000
0003800000
0001c04000
0001c0c000
0000e18000
0000ff0000
00003e0000
0000000000
0000000000
0000000000
0000000000
0000000000
0000000000
0000000000
ENDCHAR
STARTCHAR 11-13
ENCODING 11053
SWIDTH 985 0
DWIDTH 40 0
BBX 40 40 0 -3
BITMAP
0000000000
0000000000
0000000000
0000000000
0000000000
0000000000
0000000000
0000000000
0000000000
0000000000
0000000000
0001818000
0000c30000
00007e0000
00003c0000
0000180000
0000000000
00001e0000
00007f8000
0000e1c000
0001c3c000
0001c3c000
0003818000
0003800000
0003800000
0003800000
0003800000
0003800000
0001c04000
0001c0c000
0000e18000
0000ff0000
00003e0000
0000000000
0000000000
0000000000
0000000000
0000000000
0000000000
0000000000
ENDCHAR
STARTCHAR ccedilla
ENCODING 11054
SWIDTH 985 0
DWIDTH 40 0
BBX 40 40 0 -3
BITMAP
0000000000
0000000000
0000000000
0000000000
0000000000
0000000000
0000000000
0000000000
0000000000
0000000000
0000000000
0000000000
0000000000
0000000000
0000000000
0000000000
0000000000
00001e0000
00007f8000
0000e1c000
0001c3c000
0001c3c000
0003818000
0003800000
0003800000
0003800000
0003800000
0003c00000
0003c04000
0001e0c000
0001f18000
0000ff0000
00003c0000
0000080000
0000100000
00003c0000
0000060000
0000060000
0000460000
00003c0000
ENDCHAR
STARTCHAR 11-15
ENCODING 11055
SWIDTH 985 0
DWIDTH 40 0
BBX 40 40 0 -3
BITMAP
0000000000
0000000000
0000000000
0000000000
0000000000
0000000000
0000000000
0000000000
0000000000
0000000000
0000000000
0000000000
0000000000
0000180000
00003c0000
0000180000
0000000000
00001e0000
00007f8000
0000e1c000
0001c3c000
0001c3c000
0003818000
0003800000
0003800000
0003800000
0003800000
0003800000
0001c04000
0001c0c000
0000e18000
0000ff0000
00003e0000
0000000000
0000000000
0000000000
0000000000
0000000000
0000000000
0000000000
ENDCHAR
STARTCHAR 11-16
ENCODING 11056
SWIDTH 985 0
DWIDTH 40 0
BBX 40 40 0 -3
BITMAP
0000000000
0001818000
0000c30000
00007e0000
00003c0000
0000180000
0000000000
0000000000
000000c000
000007c000
000001c000
000001c000
000001c000
000001c000
000001c000
000001c000
000001c000
000079c000
0001fdc000
000387c000
000703c000
000703c000
000e01c000
000e01c000
000e01c000
000e01c000
000e01c000
000e01c000
000f03c000
000703c000
000787c000
0001fdc000
000079f000
0000000000
0000000000
0000000000
0000000000
0000000000
0000000000
0000000000
ENDCHAR
STARTCHAR eacute
ENCODING 11057
SWIDTH 985 0
DWIDTH 40 0
BBX 40 40 0 -3
BITMAP
0000000000
0000000000
0000000000
0000000000
0000000000
0000000000
0000000000
0000000000
0000000000
0000000000
000000c000
000001c000
0000038000
0000070000
00000c0000
0000180000
0000000000
00003e0000
0000ff8000
0001c3c000
000381c000
000300e000
000700e000
000700e000
0007ffe000
0007000000
0007000000
0007800000
0007802000
0003c06000
0001e1c000
0000ff8000
00003e0000
0000000000
0000000000
0000000000
0000000000
0000000000
0000000000
0000000000
ENDCHAR
STARTCHAR egrave
ENCODING 11058
SWIDTH 985 0
DWIDTH 40 0
BBX 40 40 0 -3
BITMAP
0000000000
0000000000
0000000000
0000000000
0000000000
0000000000
0000000000
0000000000
0000000000
0000000000
0000c00000
0000e00000
0000700000
0000380000
00000c0000
0000060000
0000000000
00003e0000
0000ff8000
0001c1c000
000380c000
000380e000
000780e000
000780e000
0007ffe000
0007000000
0007000000
0007800000
0007802000
0003c06000
0001e1c000
0000ff8000
00003e0000
0000000000
0000000000
0000000000
0000000000
0000000000
0000000000
0000000000
ENDCHAR
STARTCHAR edieresis
ENCODING 11059
SWIDTH 985 0
DWIDTH 40 0
BBX 40 40 0 -3
BITMAP
0000000000
0000000000
0000000000
0000000000
0000000000
0000000000
0000000000
0000000000
0000000000
0000000000
0000000000
0000000000
0000630000
0000f78000
0000630000
0000000000
0000000000
00003e0000
0000ff8000
0001c1c000
000380c000
000380e000
000780e000
000780e000
0007ffe000
0007000000
0007000000
0007800000
0007802000
0003c06000
0001e0c000
0000ff8000
00003e0000
0000000000
0000000000
0000000000
0000000000
0000000000
0000000000
0000000000
ENDCHAR
STARTCHAR ecircumflex
ENCODING 11060
SWIDTH 985 0
DWIDTH 40 0
BBX 40 40 0 -3
BITMAP
0000000000
0000000000
0000000000
0000000000
0000000000
0000000000
0000000000
0000000000
0000000000
0000000000
0000000000
0000180000
00003c0000
00007e0000
0000c30000
0001818000
0000000000
00003e0000
0000ff8000
0001c1c000
000380c000
000380e000
000780e000
000780e000
0007ffe000
0007000000
0007000000
0007800000
0007802000
0003c06000
0001e1c000
0000ff8000
00003e0000
0000000000
0000000000
0000000000
0000000000
0000000000
0000000000
0000000000
ENDCHAR
STARTCHAR 11-21
ENCODING 11061
SWIDTH 985 0
DWIDTH 40 0
BBX 40 40 0 -3
BITMAP
0000000000
0000000000
0000000000
0000000000
0000000000
0000000000
0000000000
0000000000
0000000000
0000000000
0000000000
0001818000
0000c30000
00007e0000
00003c0000
0000180000
0000000000
00003e0000
0000ff8000
0001c3c000
000381c000
000300e000
000700e000
000700e000
0007ffe000
0007000000
0007000000
0007000000
0007802000
0003806000
0003c1c000
0001ff8000
00007e0000
0000000000
0000000000
0000000000
0000000000
0000000000
0000000000
0000000000
ENDCHAR
STARTCHAR 11-22
ENCODING 11062
SWIDTH 985 0
DWIDTH 40 0
BBX 40 40 0 -3
BITMAP
0000000000
0000000000
0000000000
0000000000
0000000000
0000000000
0000000000
0000000000
0000000000
0000000000
0000000000
0000000000
0000000000
0000180000
00003c0000
0000180000
0000000000
00003e0000
0000ff8000
0001c3c000
000381c000
000300e000
000700e000
000700e000
0007ffe000
0007000000
0007000000
0007000000
0007802000
0003806000
0003c1c000
0001ff8000
00007e0000
0000000000
0000000000
0000000000
0000000000
0000000000
0000000000
0000000000
ENDCHAR
STARTCHAR 11-23
ENCODING 11063
SWIDTH 985 0
DWIDTH 40 0
BBX 40 40 0 -3
BITMAP
0000000000
0000000000
0000000000
0000000000
0000000000
0000000000
0000000000
0000000000
0000000000
0000000000
0000000000
0000000000
0001ff8000
0001ff8000
0000000000
0000000000
0000000000
00003e0000
0000ff8000
0001c3c000
000381c000
000300e000
000700e000
000700e000
0007ffe000
0007000000
0007000000
0007000000
0007802000
0003806000
0003c1c000
0001ff8000
00007e0000
0000000000
0000000000
0000000000
0000000000
0000000000
0000000000
0000000000
ENDCHAR
STARTCHAR 11-24
ENCODING 11064
SWIDTH 985 0
DWIDTH 40 0
BBX 40 40 0 -3
BITMAP
0000000000
0000000000
0000000000
0000000000
0000000000
0000000000
0000000000
0000000000
0000000000
0000000000
0000000000
0000000000
0000000000
0000000000
0000000000
0000000000
0000000000
00003e0000
0000ff8000
0001c3c000
000381c000
000300e000
000700e000
000700e000
0007ffe000
0007000000
0007000000
0007000000
0007802000
0003806000
0003c1c000
0001ff8000
00007e0000
0000180000
0000300000
0000700000
00007e0000
00003c0000
0000000000
0000000000
ENDCHAR
STARTCHAR 11-25
ENCODING 11065
SWIDTH 985 0
DWIDTH 40 0
BBX 40 40 0 -3
BITMAP
0000000000
0000000000
0000000000
0000000000
0000000000
0000000000
0000000000
0000000000
0000030000
0000070000
00000e0000
00001c0000
0000300000
0000600000
0000000000
0000000000
0000000000
000079f000
0001ffb000
0003873000
0007038000
0007038000
0007038000
0007038000
0007038000
0003870000
0001fe0000
0003780000
0006000000
0006000000
0007fe0000
0007ff8000
0003ffc000
000303e000
000600e000
000e00e000
000e00e000
000f83c000
0007ff8000
0000fc0000
ENDCHAR
STARTCHAR 11-26
ENCODING 11066
SWIDTH 985 0
DWIDTH 40 0
BBX 40 40 0 -3
BITMAP
0000000000
0000000000
0000000000
0000000000
0000000000
0000000000
0000000000
0000000000
0000000000
0000000000
0000000000
0000180000
00003c0000
00007e0000
0000c30000
0001818000
0000000000
000079f000
0001ffb000
0003873000
0007038000
0007038000
0007038000
0007038000
0007038000
0003870000
0001fe0000
0003780000
0006000000
0006000000
0007fe0000
0007ff8000
0003ffc000
000303e000
000600e000
000e00e000
000e00e000
000f83c000
0007ff8000
0000fc0000
ENDCHAR
STARTCHAR 11-27
ENCODING 11067
SWIDTH 985 0
DWIDTH 40 0
BBX 40 40 0 -3
BITMAP
0000000000
0000000000
0000000000
0000000000
0000000000
0000000000
0000000000
0000000000
0000000000
0000000000
0000000000
0000000000
0000808000
0000c18000
00007f0000
00001c0000
0000000000
000079f000
0001ffb000
0003873000
0007038000
0007038000
0007038000
0007038000
0007038000
0003870000
0001fe0000
0003780000
0006000000
0006000000
0007fe0000
0007ff8000
0003ffc000
000303e000
000600e000
000e00e000
000e00e000
000f83c000
0007ff8000
0000fc0000
ENDCHAR
STARTCHAR 11-29
ENCODING 11069
SWIDTH 985 0
DWIDTH 40 0
BBX 40 40 0 -3
BITMAP
0000000000
0000000000
0000000000
0000000000
0000000000
0000000000
0000000000
0000000000
0000000000
0000000000
0000000000
0000000000
0000000000
0000180000
00003c0000
0000180000
0000000000
000079f000
0001ffb000
0003873000
0007038000
0007038000
0007038000
0007038000
0007038000
0003870000
0001fe0000
0003780000
0006000000
0006000000
0007fe0000
0007ff8000
0003ffc000
000303e000
000600e000
000e00e000
000e00e000
000f83c000
0007ff8000
0000fc0000
ENDCHAR
STARTCHAR 11-30
ENCODING 11070
SWIDTH 985 0
DWIDTH 40 0
BBX 40 40 0 -3
BITMAP
0000000000
0000180000
00003c0000
00007e0000
0000c30000
0001818000
0000000000
0000000000
0001800000
001f800000
0003800000
0003800000
0003800000
0003800000
0003800000
0003800000
0003800000
00038e0000
0003bf8000
0003e3c000
0003c1c000
000380e000
000380e000
000380e000
000380e000
000380e000
000380e000
000380e000
000380e000
000380e000
000380e000
000380e000
001fe7fc00
0000000000
0000000000
0000000000
0000000000
0000000000
0000000000
0000000000
ENDCHAR
STARTCHAR iacute
ENCODING 11071
SWIDTH 985 0
DWIDTH 40 0
BBX 40 40 0 -3
BITMAP
0000000000
0000000000
0000000000
0000000000
0000000000
0000000000
0000000000
0000000000
0000000000
0000000000
0000018000
0000038000
0000070000
00000e0000
0000180000
0000300000
0000000000
0000fc0000
00001c0000
00001c0000
00001c0000
00001c0000
00001c0000
00001c0000
00001c0000
00001c0000
00001c0000
00001c0000
00001c0000
00001c0000
00001c0000
00001c0000
0000ff8000
0000000000
0000000000
0000000000
0000000000
0000000000
0000000000
0000000000
ENDCHAR
STARTCHAR igrave
ENCODING 11072
SWIDTH 985 0
DWIDTH 40 0
BBX 40 40 0 -3
BITMAP
0000000000
0000000000
0000000000
0000000000
0000000000
0000000000
0000000000
0000000000
0000000000
0000000000
0000c00000
0000e00000
0000700000
0000380000
00000c0000
0000060000
0000000000
0000fc0000
00001c0000
00001c0000
00001c0000
00001c0000
00001c0000
00001c0000
00001c0000
00001c0000
00001c0000
00001c0000
00001c0000
00001c0000
00001c0000
00001c0000
0000ff8000
0000000000
0000000000
0000000000
0000000000
0000000000
0000000000
0000000000
ENDCHAR
STARTCHAR idieresis
ENCODING 11073
SWIDTH 985 0
DWIDTH 40 0
BBX 40 40 0 -3
BITMAP
0000000000
0000000000
0000000000
0000000000
0000000000
0000000000
0000000000
0000000000
0000000000
0000000000
0000000000
0000000000
0000630000
0000f78000
0000630000
0000000000
0000000000
0000fc0000
00001c0000
00001c0000
00001c0000
00001c0000
00001c0000
00001c0000
00001c0000
00001c0000
00001c0000
00001c0000
00001c0000
00001c0000
00001c0000
00001c0000
0000ff8000
0000000000
0000000000
0000000000
0000000000
0000000000
0000000000
0000000000
ENDCHAR
STARTCHAR icircumflex
ENCODING 11074
SWIDTH 985 0
DWIDTH 40 0
BBX 40 40 0 -3
BITMAP
0000000000
0000000000
0000000000
0000000000
0000000000
0000000000
0000000000
0000000000
0000000000
0000000000
0000000000
0000180000
00003c0000
00007e0000
0000c30000
0001818000
0000000000
0000fc0000
00001c0000
00001c0000
00001c0000
00001c0000
00001c0000
00001c0000
00001c0000
00001c0000
00001c0000
00001c0000
00001c0000
00001c0000
00001c0000
00001c0000
0000ff8000
0000000000
0000000000
0000000000
0000000000
0000000000
0000000000
0000000000
ENDCHAR
STARTCHAR 11-35
ENCODING 11075
SWIDTH 985 0
DWIDTH 40 0
BBX 40 40 0 -3
BITMAP
0000000000
0000000000
0000000000
0000000000
0000000000
0000000000
0000000000
0000000000
0000000000
0000000000
0000000000
0001818000
0000c30000
00007e0000
00003c0000
0000180000
0000000000
00001c0000
00007c0000
00001c0000
00001c0000
00001c0000
00001c0000
00001c0000
00001c0000
00001c0000
00001c0000
00001c0000
00001c0000
00001c0000
00001c0000
00001c0000
0000ff8000
0000000000
0000000000
0000000000
0000000000
0000000000
0000000000
0000000000
ENDCHAR
STARTCHAR 11-37
ENCODING 11077
SWIDTH 985 0
DWIDTH 40 0
BBX 40 40 0 -3
BITMAP
0000000000
0000000000
0000000000
0000000000
0000000000
0000000000
0000000000
0000000000
0000000000
0000000000
0000000000
0000000000
0001ff8000
0001ff8000
0000000000
0000000000
0000000000
00001c0000
00007c0000
00001c0000
00001c0000
00001c0000
00001c0000
00001c0000
00001c0000
00001c0000
00001c0000
00001c0000
00001c0000
00001c0000
00001c0000
00001c0000
0000ff8000
0000000000
0000000000
0000000000
0000000000
0000000000
0000000000
0000000000
ENDCHAR
STARTCHAR 11-38
ENCODING 11078
SWIDTH 985 0
DWIDTH 40 0
BBX 40 40 0 -3
BITMAP
0000000000
0000000000
0000000000
0000000000
0000000000
0000000000
0000000000
0000000000
0000000000
0000180000
00003c0000
00003c0000
0000180000
0000000000
0000000000
0000000000
0000000000
00001c0000
0000fc0000
00001c0000
00001c0000
00001c0000
00001c0000
00001c0000
00001c0000
00001c0000
00001c0000
00001c0000
00001c0000
00001c0000
00001c0000
00001c0000
0000ff8000
0000180000
0000300000
0000700000
00007e0000
00003c0000
0000000000
0000000000
ENDCHAR
STARTCHAR 11-39
ENCODING 11079
SWIDTH 985 0
DWIDTH 40 0
BBX 40 40 0 -3
BITMAP
0000000000
0000000000
0000000000
0000000000
0000000000
0000000000
0000000000
0000000000
0000000000
0000000000
0000000000
0000000000
0000000000
000078c000
0000ff8000
00018f0000
0000000000
00001c0000
00007c0000
00001c0000
00001c0000
00001c0000
00001c0000
00001c0000
00001c0000
00001c0000
00001c0000
00001c0000
00001c0000
00001c0000
00001c0000
00001c0000
0000ff8000
0000000000
0000000000
0000000000
0000000000
0000000000
0000000000
0000000000
ENDCHAR
STARTCHAR 11-40
ENCODING 11080
SWIDTH 985 0
DWIDTH 40 0
BBX 40 40 0 -3
BITMAP
0000000000
0000000000
0000000000
0000000000
0000000000
0000000000
0000000000
0000000000
0000000000
0000000000
0000000000
0000030000
0000078000
00000fc000
0000186000
0000303000
0000000000
0000038000
00001f8000
0000038000
0000038000
0000038000
0000038000
0000038000
0000038000
0000038000
0000038000
0000038000
0000038000
0000038000
0000038000
0000038000
0000038000
0000038000
0000038000
0000438000
0000e30000
0000e30000
0000e60000
00007c0000
ENDCHAR
STARTCHAR 11-41
ENCODING 11081
SWIDTH 985 0
DWIDTH 40 0
BBX 40 40 0 -3
BITMAP
0000000000
0000000000
0000000000
0000000000
0000000000
0000000000
0000000000
0000000000
0001800000
001f800000
0003800000
0003800000
0003800000
0003800000
0003800000
0003800000
0003800000
00038ff000
000383c000
0003830000
0003860000
00038c0000
0003980000
0003b80000
0003fc0000
0003de0000
00038f0000
0003878000
0003838000
000381c000
000381e000
000380f000
001fe3fc00
0000080000
0000100000
00003c0000
0000060000
0000060000
0000460000
00003c0000
ENDCHAR
STARTCHAR 11-42
ENCODING 11082
SWIDTH 985 0
DWIDTH 40 0
BBX 40 40 0 -3
BITMAP
0000000000
0000030000
0000070000
00000e0000
00001c0000
0000300000
0000600000
0000000000
00000c0000
00001c0000
0000fc0000
00001c0000
00001c0000
00001c0000
00001c0000
00001c0000
00001c0000
00001c0000
00001c0000
00001c0000
00001c0000
00001c0000
00001c0000
00001c0000
00001c0000
00001c0000
00001c0000
00001c0000
00001c0000
00001c0000
00001c0000
00001c0000
0000ff8000
0000000000
0000000000
0000000000
0000000000
0000000000
0000000000
0000000000
ENDCHAR
STARTCHAR 11-43
ENCODING 11083
SWIDTH 985 0
DWIDTH 40 0
BBX 40 40 0 -3
BITMAP
0000000000
0001818000
0000c30000
00007e0000
00003c0000
0000180000
0000000000
0000000000
00000c0000
00001c0000
0000fc0000
00001c0000
00001c0000
00001c0000
00001c0000
00001c0000
00001c0000
00001c0000
00001c0000
00001c0000
00001c0000
00001c0000
00001c0000
00001c0000
00001c0000
00001c0000
00001c0000
00001c0000
00001c0000
00001c0000
00001c0000
00001c0000
0000ff8000
0000000000
0000000000
0000000000
0000000000
0000000000
0000000000
0000000000
ENDCHAR
STARTCHAR 11-44
ENCODING 11084
SWIDTH 985 0
DWIDTH 40 0
BBX 40 40 0 -3
BITMAP
0000000000
0000000000
0000000000
0000000000
0000000000
0000000000
0000000000
0000000000
00000c0000
00001c0000
0000fc0000
00001c0000
00001c0000
00001c0000
00001c0000
00001c0000
00001c0000
00001c0000
00001c0000
00001c0000
00001c0000
00001c0000
00001c0000
00001c0000
00001c0000
00001c0000
00001c0000
00001c0000
00001c0000
00001c0000
00001c0000
00001c0000
0000ff8000
0000080000
0000100000
00003c0000
0000060000
0000060000
0000460000
00003c0000
ENDCHAR
STARTCHAR 11-45
ENCODING 11085
SWIDTH 985 0
DWIDTH 40 0
BBX 40 40 0 -3
BITMAP
0000000000
0000000000
0000000000
0000000000
0000000000
0000000000
0000000000
0000000000
0000030000
0000070000
00000e0000
00001c0000
0000300000
0000600000
0000000000
0000000000
0000000000
00038f0000
001fbfc000
0003f1c000
0003c0e000
0003c0e000
000380e000
000380e000
000380e000
000380e000
000380e000
000380e000
000380e000
000380e000
000380e000
000380e000
001fe3fc00
0000000000
0000000000
0000000000
0000000000
0000000000
0000000000
0000000000
ENDCHAR
STARTCHAR 11-46
ENCODING 11086
SWIDTH 985 0
DWIDTH 40 0
BBX 40 40 0 -3
BITMAP
0000000000
0000000000
0000000000
0000000000
0000000000
0000000000
0000000000
0000000000
0000000000
0000000000
0000000000
0001818000
0000c30000
00007e0000
00003c0000
0000180000
0000000000
00038f0000
001fbfc000
0003f1c000
0003c0e000
0003c0e000
000380e000
000380e000
000380e000
000380e000
000380e000
000380e000
000380e000
000380e000
000380e000
000380e000
001fe3fc00
0000000000
0000000000
0000000000
0000000000
0000000000
0000000000
0000000000
ENDCHAR
STARTCHAR 11-47
ENCODING 11087
SWIDTH 985 0
DWIDTH 40 0
BBX 40 40 0 -3
BITMAP
0000000000
0000000000
0000000000
0000000000
0000000000
0000000000
0000000000
0000000000
0000000000
0000000000
0000000000
0000000000
0000000000
0000000000
0000000000
0000000000
0000000000
00038f0000
001fbfc000
0003f1c000
0003c0e000
0003c0e000
000380e000
000380e000
000380e000
000380e000
000380e000
000380e000
000380e000
000380e000
000380e000
000380e000
001fe3fc00
0000080000
0000100000
00003c0000
0000060000
0000060000
0000460000
00003c0000
ENDCHAR
STARTCHAR ntilde
ENCODING 11088
SWIDTH 985 0
DWIDTH 40 0
BBX 40 40 0 -3
BITMAP
0000000000
0000000000
0000000000
0000000000
0000000000
0000000000
0000000000
0000000000
0000000000
0000000000
0000000000
0000000000
000078c000
0000ff8000
00018f0000
0000000000
0000000000
00038f0000
001fbfc000
0003f3c000
0003c1e000
0003c0e000
000380e000
000380e000
000380e000
000380e000
000380e000
000380e000
000380e000
000380e000
000380e000
000380e000
001fe3fc00
0000000000
0000000000
0000000000
0000000000
0000000000
0000000000
0000000000
ENDCHAR
STARTCHAR oacute
ENCODING 11089
SWIDTH 985 0
DWIDTH 40 0
BBX 40 40 0 -3
BITMAP
0000000000
0000000000
0000000000
0000000000
0000000000
0000000000
0000000000
0000000000
0000000000
0000000000
000000c000
000001c000
0000038000
0000070000
00000c0000
0000180000
0000000000
00003c0000
0000ff0000
0001c38000
000381c000
000381c000
000700e000
000700e000
000700e000
000700e000
000700e000
000700e000
000781e000
000381c000
0003c3c000
0000ff0000
00003c0000
0000000000
0000000000
0000000000
0000000000
0000000000
0000000000
0000000000
ENDCHAR
STARTCHAR ograve
ENCODING 11090
SWIDTH 985 0
DWIDTH 40 0
BBX 40 40 0 -3
BITMAP
0000000000
0000000000
0000000000
0000000000
0000000000
0000000000
0000000000
0000000000
0000000000
0000000000
0001800000
0001c00000
0000e00000
0000700000
0000180000
00000c0000
0000000000
00003c0000
0000ff0000
0001c38000
000381c000
000381c000
000700e000
000700e000
000700e000
000700e000
000700e000
000700e000
000781e000
000381c000
0003c3c000
0000ff0000
00003c0000
0000000000
0000000000
0000000000
0000000000
0000000000
0000000000
0000000000
ENDCHAR
STARTCHAR odieresis
ENCODING 11091
SWIDTH 985 0
DWIDTH 40 0
BBX 40 40 0 -3
BITMAP
0000000000
0000000000
0000000000
0000000000
0000000000
0000000000
0000000000
0000000000
0000000000
0000000000
0000000000
0000000000
0000c60000
0001ef0000
0000c60000
0000000000
0000000000
00003c0000
0000ff0000
0001c38000
000381c000
000381c000
000700e000
000700e000
000700e000
000700e000
000700e000
000700e000
000381c000
000381c000
0001c38000
0000ff0000
00003c0000
0000000000
0000000000
0000000000
0000000000
0000000000
0000000000
0000000000
ENDCHAR
STARTCHAR ocircumflex
ENCODING 11092
SWIDTH 985 0
DWIDTH 40 0
BBX 40 40 0 -3
BITMAP
0000000000
0000000000
0000000000
0000000000
0000000000
0000000000
0000000000
0000000000
0000000000
0000000000
0000000000
0000180000
00003c0000
00007e0000
0000c30000
0001818000
0000000000
00003c0000
0000ff0000
0001c38000
000381c000
000381c000
000700e000
000700e000
000700e000
000700e000
000700e000
000700e000
000381c000
000381c000
0001c38000
0000ff0000
00003c0000
0000000000
0000000000
0000000000
0000000000
0000000000
0000000000
0000000000
ENDCHAR
STARTCHAR 11-53
ENCODING 11093
SWIDTH 985 0
DWIDTH 40 0
BBX 40 40 0 -3
BITMAP
0000000000
0000000000
0000000000
0000000000
0000000000
0000000000
0000000000
0000000000
0000000000
0000000000
0000000000
0001818000
0000c30000
00007e0000
00003c0000
0000180000
0000000000
00003c0000
0000ff0000
0001c38000
000381c000
000381c000
000700e000
000700e000
000700e000
000700e000
000700e000
000700e000
000381c000
000381c000
0001c38000
0000ff0000
00003c0000
0000000000
0000000000
0000000000
0000000000
0000000000
0000000000
0000000000
ENDCHAR
STARTCHAR 11-54
ENCODING 11094
SWIDTH 985 0
DWIDTH 40 0
BBX 40 40 0 -3
BITMAP
0000000000
0000000000
0000000000
0000000000
0000000000
0000000000
0000000000
0000000000
0000000000
0000000000
0000330000
0000330000
0000660000
0000660000
0000440000
0000440000
0000000000
00003c0000
0000ff0000
0001c38000
000381c000
000381c000
000700e000
000700e000
000700e000
000700e000
000700e000
000700e000
000381c000
000381c000
0001c38000
0000ff0000
00003c0000
0000000000
0000000000
0000000000
0000000000
0000000000
0000000000
0000000000
ENDCHAR
STARTCHAR 11-55
ENCODING 11095
SWIDTH 985 0
DWIDTH 40 0
BBX 40 40 0 -3
BITMAP
0000000000
0000000000
0000000000
0000000000
0000000000
0000000000
0000000000
0000000000
0000000000
0000000000
0000000000
0000000000
0001ff8000
0001ff8000
0000000000
0000000000
0000000000
00003c0000
0000ff0000
0001c38000
000381c000
000381c000
000700e000
000700e000
000700e000
000700e000
000700e000
000700e000
000381c000
000381c000
0001c38000
0000ff0000
00003c0000
0000000000
0000000000
0000000000
0000000000
0000000000
0000000000
0000000000
ENDCHAR
STARTCHAR otilde
ENCODING 11096
SWIDTH 985 0
DWIDTH 40 0
BBX 40 40 0 -3
BITMAP
0000000000
0000000000
0000000000
0000000000
0000000000
0000000000
0000000000
0000000000
0000000000
0000000000
0000000000
0000000000
000078c000
0000ff8000
00018f0000
0000000000
0000000000
00003c0000
0000ff0000
0001c38000
000381c000
000381c000
000700e000
000700e000
000700e000
000700e000
000700e000
000700e000
000381c000
000381c000
0001c38000
0000ff0000
00003c0000
0000000000
0000000000
0000000000
0000000000
0000000000
0000000000
0000000000
ENDCHAR
STARTCHAR 11-57
ENCODING 11097
SWIDTH 985 0
DWIDTH 40 0
BBX 40 40 0 -3
BITMAP
0000000000
0000000000
0000000000
0000000000
0000000000
0000000000
0000000000
0000000000
0000030000
0000070000
00000e0000
00001c0000
0000300000
0000600000
0000000000
0000000000
0000000000
0000e3c000
0007efe000
0000f9e000
0000f1e000
0000f0c000
0000e00000
0000e00000
0000e00000
0000e00000
0000e00000
0000e00000
0000e00000
0000e00000
0000e00000
0000e00000
0007fc0000
0000000000
0000000000
0000000000
0000000000
0000000000
0000000000
0000000000
ENDCHAR
STARTCHAR 11-58
ENCODING 11098
SWIDTH 985 0
DWIDTH 40 0
BBX 40 40 0 -3
BITMAP
0000000000
0000000000
0000000000
0000000000
0000000000
0000000000
0000000000
0000000000
0000000000
0000000000
0000000000
0001818000
0000c30000
00007e0000
00003c0000
0000180000
0000000000
0000e3c000
0007efe000
0000f9e000
0000f1e000
0000f0c000
0000e00000
0000e00000
0000e00000
0000e00000
0000e00000
0000e00000
0000e00000
0000e00000
0000e00000
0000e00000
0007fc0000
0000000000
0000000000
0000000000
0000000000
0000000000
0000000000
0000000000
ENDCHAR
STARTCHAR 11-59
ENCODING 11099
SWIDTH 985 0
DWIDTH 40 0
BBX 40 40 0 -3
BITMAP
0000000000
0000000000
0000000000
0000000000
0000000000
0000000000
0000000000
0000000000
0000000000
0000000000
0000000000
0000000000
0000000000
0000000000
0000000000
0000000000
0000000000
0000e3c000
0007efe000
0000f9e000
0000f1e000
0000f0c000
0000e00000
0000e00000
0000e00000
0000e00000
0000e00000
0000e00000
0000e00000
0000e00000
0000e00000
0000e00000
0007fc0000
0000400000
0000800000
0001e00000
0000300000
0000300000
0002300000
0001e00000
ENDCHAR
STARTCHAR 11-60
ENCODING 11100
SWIDTH 985 0
DWIDTH 40 0
BBX 40 40 0 -3
BITMAP
0000000000
0000000000
0000000000
0000000000
0000000000
0000000000
0000000000
0000000000
0000030000
0000070000
00000e0000
00001c0000
0000300000
0000600000
0000000000
0000000000
0000000000
00003d8000
0000ff8000
0001c38000
0001818000
0001818000
0001e08000
0001fc0000
0000ff0000
00007f8000
00000fc000
000101c000
000180c000
000180c000
0001c1c000
0001ff8000
00013e0000
0000000000
0000000000
0000000000
0000000000
0000000000
0000000000
0000000000
ENDCHAR
STARTCHAR 11-61
ENCODING 11101
SWIDTH 985 0
DWIDTH 40 0
BBX 40 40 0 -3
BITMAP
0000000000
0000000000
0000000000
0000000000
0000000000
0000000000
0000000000
0000000000
0000000000
0000000000
0000000000
0000180000
00003c0000
00007e0000
0000c30000
0001818000
0000000000
00003d8000
0000ff8000
0001c38000
0001818000
0001818000
0001e08000
0001fc0000
0000ff0000
00007f8000
00000fc000
000101c000
000180c000
000180c000
0001c1c000
0001ff8000
00013e0000
0000000000
0000000000
0000000000
0000000000
0000000000
0000000000
0000000000
ENDCHAR
STARTCHAR scaron
ENCODING 11102
SWIDTH 985 0
DWIDTH 40 0
BBX 40 40 0 -3
BITMAP
0000000000
0000000000
0000000000
0000000000
0000000000
0000000000
0000000000
0000000000
0000000000
0000000000
0000000000
0001818000
0000c30000
00007e0000
00003c0000
0000180000
0000000000
00007d8000
0000e78000
0001838000
0001818000
0001818000
0001e08000
0001fc0000
0000ff0000
00007f8000
00000fc000
000101c000
000180c000
000180c000
0001c0c000
0001f38000
00013f0000
0000000000
0000000000
0000000000
0000000000
0000000000
0000000000
0000000000
ENDCHAR
STARTCHAR 11-63
ENCODING 11103
SWIDTH 985 0
DWIDTH 40 0
BBX 40 40 0 -3
BITMAP
0000000000
0000000000
0000000000
0000000000
0000000000
0000000000
0000000000
0000000000
0000000000
0000000000
0000000000
0000000000
0000000000
0000000000
0000000000
0000000000
0000000000
00003d8000
0000ff8000
0001c38000
0001818000
0001818000
0001e08000
0001fc0000
0000ff0000
00007f8000
00000fc000
000101c000
000180c000
000180c000
0001c1c000
0001ff8000
00013e0000
0000080000
0000100000
00003c0000
0000060000
0000060000
0000460000
00003c0000
ENDCHAR
STARTCHAR 11-64
ENCODING 11104
SWIDTH 985 0
DWIDTH 40 0
BBX 40 40 0 -3
BITMAP
0000000000
0000000000
0000000000
0000000000
0001818000
0000c30000
00007e0000
00003c0000
0000180000
0000000000
0000100000
0000100000
0000300000
0000300000
0000700000
0000700000
0000f00000
0003ff8000
0000700000
0000700000
0000700000
0000700000
0000700000
0000700000
0000700000
0000700000
0000704000
0000704000
000070c000
000070c000
0000798000
00003f8000
00001f0000
0000000000
0000000000
0000000000
0000000000
0000000000
0000000000
0000000000
ENDCHAR
STARTCHAR 11-65
ENCODING 11105
SWIDTH 985 0
DWIDTH 40 0
BBX 40 40 0 -3
BITMAP
0000000000
0000000000
0000000000
0000000000
0000000000
0000000000
0000000000
0000000000
0000000000
0000000000
0000100000
0000100000
0000300000
0000300000
0000700000
0000700000
0000f00000
0003ff8000
0000700000
0000700000
0000700000
0000700000
0000700000
0000700000
0000700000
0000700000
0000704000
0000704000
000070c000
000070c000
0000798000
00003f8000
00001f0000
0000080000
0000100000
00003c0000
0000060000
0000060000
0000460000
00003c0000
ENDCHAR
STARTCHAR uacute
ENCODING 11106
SWIDTH 985 0
DWIDTH 40 0
BBX 40 40 0 -3
BITMAP
0000000000
0000000000
0000000000
0000000000
0000000000
0000000000
0000000000
0000000000
0000000000
0000000000
0000018000
0000038000
0000070000
00000e0000
0000180000
0000300000
0000000000
000380e000
001f87e000
000380e000
000380e000
000380e000
000380e000
000380e000
000380e000
000380e000
000380e000
000380e000
000381e000
000381e000
0001c7e000
0001fef800
0000f8e000
0000000000
0000000000
0000000000
0000000000
0000000000
0000000000
0000000000
ENDCHAR
STARTCHAR ugrave
ENCODING 11107
SWIDTH 985 0
DWIDTH 40 0
BBX 40 40 0 -3
BITMAP
0000000000
0000000000
0000000000
0000000000
0000000000
0000000000
0000000000
0000000000
0000000000
0000000000
0000c00000
0000e00000
0000700000
0000380000
00000c0000
0000060000
0000000000
000380e000
001f87e000
000380e000
000380e000
000380e000
000380e000
000380e000
000380e000
000380e000
000380e000
000380e000
000381e000
000381e000
0001c7e000
0001fef800
0000f8e000
0000000000
0000000000
0000000000
0000000000
0000000000
0000000000
0000000000
ENDCHAR
STARTCHAR udieresis
ENCODING 11108
SWIDTH 985 0
DWIDTH 40 0
BBX 40 40 0 -3
BITMAP
0000000000
0000000000
0000000000
0000000000
0000000000
0000000000
0000000000
0000000000
0000000000
0000000000
0000000000
0000000000
0000630000
0000f78000
0000630000
0000000000
0000000000
000380e000
001f87e000
000380e000
000380e000
000380e000
000380e000
000380e000
000380e000
000380e000
000380e000
000380e000
000381e000
000381e000
0001c7e000
0001fef800
0000f8e000
0000000000
0000000000
0000000000
0000000000
0000000000
0000000000
0000000000
ENDCHAR
STARTCHAR ucircumflex
ENCODING 11109
SWIDTH 985 0
DWIDTH 40 0
BBX 40 40 0 -3
BITMAP
0000000000
0000000000
0000000000
0000000000
0000000000
0000000000
0000000000
0000000000
0000000000
0000000000
0000000000
0000180000
00003c0000
00007e0000
0000c30000
0001818000
0000000000
000380e000
001f87e000
000380e000
000380e000
000380e000
000380e000
000380e000
000380e000
000380e000
000380e000
000380e000
000381e000
000381e000
0001c7e000
0001fef800
0000f8e000
0000000000
0000000000
0000000000
0000000000
0000000000
0000000000
0000000000
ENDCHAR
STARTCHAR 11-70
ENCODING 11110
SWIDTH 985 0
DWIDTH 40 0
BBX 40 40 0 -3
BITMAP
0000000000
0000000000
0000000000
0000000000
0000000000
0000000000
0000000000
0000000000
0000000000
0000000000
0000000000
0000000000
0000808000
0000c18000
00007f0000
00001c0000
0000000000
000380e000
001f87e000
000380e000
000380e000
000380e000
000380e000
000380e000
000380e000
000380e000
000380e000
000380e000
000381e000
000381e000
0003c7e000
0001fef800
0000f8e000
0000000000
0000000000
0000000000
0000000000
0000000000
0000000000
0000000000
ENDCHAR
STARTCHAR 11-71
ENCODING 11111
SWIDTH 985 0
DWIDTH 40 0
BBX 40 40 0 -3
BITMAP
0000000000
0000000000
0000000000
0000000000
0000000000
0000000000
0000000000
0000000000
0000000000
0000000000
0000000000
0001818000
0000c30000
00007e0000
00003c0000
0000180000
0000000000
000380e000
001f87e000
000380e000
000380e000
000380e000
000380e000
000380e000
000380e000
000380e000
000380e000
000380e000
000381e000
000381e000
0003c7e000
0001fef800
0000f8e000
0000000000
0000000000
0000000000
0000000000
0000000000
0000000000
0000000000
ENDCHAR
STARTCHAR 11-72
ENCODING 11112
SWIDTH 985 0
DWIDTH 40 0
BBX 40 40 0 -3
BITMAP
0000000000
0000000000
0000000000
0000000000
0000000000
0000000000
0000000000
0000000000
0000000000
0000000000
0000330000
0000330000
0000660000
0000660000
0000440000
0000440000
0000000000
000380e000
001f87e000
000380e000
000380e000
000380e000
000380e000
000380e000
000380e000
000380e000
000380e000
000380e000
000381e000
000381e000
0003c7e000
0001fef800
0000f8e000
0000000000
0000000000
0000000000
0000000000
0000000000
0000000000
0000000000
ENDCHAR
STARTCHAR 11-73
ENCODING 11113
SWIDTH 985 0
DWIDTH 40 0
BBX 40 40 0 -3
BITMAP
0000000000
0000000000
0000000000
0000000000
0000000000
0000000000
0000000000
0000000000
0000000000
0000000000
0000000000
0000000000
0001ff8000
0001ff8000
0000000000
0000000000
0000000000
000380e000
001f87e000
000380e000
000380e000
000380e000
000380e000
000380e000
000380e000
000380e000
000380e000
000380e000
000381e000
000381e000
0003c7e000
0001fef800
0000f8e000
0000000000
0000000000
0000000000
0000000000
0000000000
0000000000
0000000000
ENDCHAR
STARTCHAR 11-74
ENCODING 11114
SWIDTH 985 0
DWIDTH 40 0
BBX 40 40 0 -3
BITMAP
0000000000
0000000000
0000000000
0000000000
0000000000
0000000000
0000000000
0000000000
0000000000
0000000000
0000000000
0000000000
0000000000
0000000000
0000000000
0000000000
0000000000
000380e000
001f87e000
000380e000
000380e000
000380e000
000380e000
000380e000
000380e000
000380e000
000380e000
000380e000
000381e000
000381e000
0003c7e000
0001fef800
0000f8e000
000000c000
0000018000
0000038000
000003f000
000001e000
0000000000
0000000000
ENDCHAR
STARTCHAR 11-75
ENCODING 11115
SWIDTH 985 0
DWIDTH 40 0
BBX 40 40 0 -3
BITMAP
0000000000
0000000000
0000000000
0000000000
0000000000
0000000000
0000000000
0000000000
0000000000
0000000000
00003c0000
0000660000
0000420000
0000420000
0000660000
00003c0000
0000000000
000380e000
001f87e000
000380e000
000380e000
000380e000
000380e000
000380e000
000380e000
000380e000
000380e000
000380e000
000381e000
000381e000
0003c7e000
0001fef800
0000f8e000
0000000000
0000000000
0000000000
0000000000
0000000000
0000000000
0000000000
ENDCHAR
STARTCHAR 11-76
ENCODING 11116
SWIDTH 985 0
DWIDTH 40 0
BBX 40 40 0 -3
BITMAP
0000000000
0000000000
0000000000
0000000000
0000000000
0000000000
0000000000
0000000000
0000000000
0000000000
0000000000
0000000000
0000000000
000078c000
0000ff8000
00018f0000
0000000000
000380e000
001f87e000
000380e000
000380e000
000380e000
000380e000
000380e000
000380e000
000380e000
000380e000
000380e000
000381e000
000381e000
0003c7e000
0001fef800
0000f8e000
0000000000
0000000000
0000000000
0000000000
0000000000
0000000000
0000000000
ENDCHAR
STARTCHAR 11-77
ENCODING 11117
SWIDTH 985 0
DWIDTH 40 0
BBX 40 40 0 -3
BITMAP
0000000000
0000000000
0000000000
0000000000
0000000000
0000030000
0000070000
00000e0000
00001c0000
0000300000
0000600000
0000000000
0000630000
0000f78000
0000630000
0000000000
0000000000
000380e000
001f87e000
000380e000
000380e000
000380e000
000380e000
000380e000
000380e000
000380e000
000380e000
000380e000
000381e000
000381e000
0001c7e000
0001fef800
0000f8e000
0000000000
0000000000
0000000000
0000000000
0000000000
0000000000
0000000000
ENDCHAR
STARTCHAR 11-78
ENCODING 11118
SWIDTH 985 0
DWIDTH 40 0
BBX 40 40 0 -3
BITMAP
0000000000
0000000000
0000000000
0000000000
0000000000
0000600000
0000700000
0000380000
00001c0000
0000060000
0000030000
0000000000
0000630000
0000f78000
0000630000
0000000000
0000000000
000380e000
001f87e000
000380e000
000380e000
000380e000
000380e000
000380e000
000380e000
000380e000
000380e000
000380e000
000381e000
000381e000
0001c7e000
0001fef800
0000f8e000
0000000000
0000000000
0000000000
0000000000
0000000000
0000000000
0000000000
ENDCHAR
STARTCHAR 11-79
ENCODING 11119
SWIDTH 985 0
DWIDTH 40 0
BBX 40 40 0 -3
BITMAP
0000000000
0000000000
0000000000
0000000000
0000000000
0000000000
0001818000
0000c30000
00007e0000
00003c0000
0000180000
0000000000
0000630000
0000f78000
0000630000
0000000000
0000000000
000380e000
001f87e000
000380e000
000380e000
000380e000
000380e000
000380e000
000380e000
000380e000
000380e000
000380e000
000381e000
000381e000
0001c7e000
0001fef800
0000f8e000
0000000000
0000000000
0000000000
0000000000
0000000000
0000000000
0000000000
ENDCHAR
STARTCHAR 11-80
ENCODING 11120
SWIDTH 985 0
DWIDTH 40 0
BBX 40 40 0 -3
BITMAP
0000000000
0000000000
0000000000
0000000000
0000000000
0000000000
0000000000
0000000000
0000000000
0001ff8000
0001ff8000
0000000000
0000630000
0000f78000
0000630000
0000000000
0000000000
000380e000
001f87e000
000380e000
000380e000
000380e000
000380e000
000380e000
000380e000
000380e000
000380e000
000380e000
000381e000
000381e000
0001c7e000
0001fef800
0000f8e000
0000000000
0000000000
0000000000
0000000000
0000000000
0000000000
0000000000
ENDCHAR
STARTCHAR 11-81
ENCODING 11121
SWIDTH 985 0
DWIDTH 40 0
BBX 40 40 0 -3
BITMAP
0000000000
0000000000
0000000000
0000000000
0000000000
0000000000
0000000000
0000000000
0000000000
0000000000
0000000000
0000180000
00003c0000
00007e0000
0000c30000
0001818000
0000000000
00fe7f3f00
00783c0e00
00381c0c00
003c1c1c00
001c1e1800
001c1e1800
000e361000
000e273000
000f673000
0007676000
0007436000
0003c3c000
0003c3c000
000381c000
0001818000
0001818000
0000000000
0000000000
0000000000
0000000000
0000000000
0000000000
0000000000
ENDCHAR
STARTCHAR yacute
ENCODING 11122
SWIDTH 985 0
DWIDTH 40 0
BBX 40 40 0 -3
BITMAP
0000000000
0000000000
0000000000
0000000000
0000000000
0000000000
0000000000
0000000000
0000000000
0000000000
000000c000
000001c000
0000038000
0000070000
00000c0000
0000180000
0000000000
000ff1f800
0007c07000
0003c06000
0001c06000
0001e0c000
0000e0c000
0000f08000
0000718000
0000718000
00007b0000
00003b0000
00003e0000
00001e0000
00001e0000
00000c0000
00000c0000
0000180000
0000180000
0006300000
000e300000
000e600000
000fc00000
0007000000
ENDCHAR
STARTCHAR ydieresis
ENCODING 11123
SWIDTH 985 0
DWIDTH 40 0
BBX 40 40 0 -3
BITMAP
0000000000
0000000000
0000000000
0000000000
0000000000
0000000000
0000000000
0000000000
0000000000
0000000000
0000000000
0000000000
0000630000
0000f78000
0000630000
0000000000
0000000000
001fe3f800
000f80e000
000780c000
000380c000
0003c18000
0001c18000
0001e10000
0000e30000
0000e30000
0000f60000
0000760000
00007c0000
00003c0000
00003c0000
0000180000
0000180000
0000300000
0000300000
000c600000
001c600000
001cc00000
001f800000
000e000000
ENDCHAR
STARTCHAR 11-84
ENCODING 11124
SWIDTH 985 0
DWIDTH 40 0
BBX 40 40 0 -3
BITMAP
0000000000
0000000000
0000000000
0000000000
0000000000
0000000000
0000000000
0000000000
0000000000
0000000000
0000000000
0000180000
00003c0000
00007e0000
0000c30000
0001818000
0000000000
001fe3f800
000780e000
000780c000
000380c000
0003c18000
0001c18000
0001e10000
0000e30000
0000e30000
0000f60000
0000760000
00007c0000
00003c0000
00003c0000
0000180000
0000180000
0000300000
0000300000
000c600000
001e600000
001cc00000
001f800000
000e000000
ENDCHAR
STARTCHAR 11-85
ENCODING 11125
SWIDTH 985 0
DWIDTH 40 0
BBX 40 40 0 -3
BITMAP
0000000000
0000000000
0000000000
0000000000
0000000000
0000000000
0000000000
0000000000
0000030000
0000070000
00000e0000
00001c0000
0000300000
0000600000
0000000000
0000000000
0000000000
0001ffe000
0001e1e000
000183c000
0001838000
0001078000
00010f0000
00000e0000
00001e0000
00003c0000
0000380000
0000782000
0000f02000
0000e06000
0001e0e000
0003c3e000
0003ffe000
0000000000
0000000000
0000000000
0000000000
0000000000
0000000000
0000000000
ENDCHAR
STARTCHAR zcaron
ENCODING 11126
SWIDTH 985 0
DWIDTH 40 0
BBX 40 40 0 -3
BITMAP
0000000000
0000000000
0000000000
0000000000
0000000000
0000000000
0000000000
0000000000
0000000000
0000000000
0000000000
0000c0c000
0000618000
00003f0000
00001e0000
00000c0000
0000000000
0001ffe000
0001e1e000
000183c000
0001838000
0001078000
00010f0000
00000e0000
00001e0000
00003c0000
0000380000
0000782000
0000f06000
0000e06000
0001e0e000
0003c1e000
0003ffe000
0000000000
0000000000
0000000000
0000000000
0000000000
0000000000
0000000000
ENDCHAR
STARTCHAR 11-87
ENCODING 11127
SWIDTH 985 0
DWIDTH 40 0
BBX 40 40 0 -3
BITMAP
0000000000
0000000000
0000000000
0000000000
0000000000
0000000000
0000000000
0000000000
0000000000
0000000000
0000000000
0000000000
0000000000
0000180000
00003c0000
0000180000
0000000000
0001ffe000
0001e1e000
000183c000
0001838000
0001078000
00010f0000
00000e0000
00001e0000
00003c0000
0000380000
0000782000
0000f02000
0000e06000
0001e0e000
0003c3e000
0003ffe000
0000000000
0000000000
0000000000
0000000000
0000000000
0000000000
0000000000
ENDCHAR
STARTCHAR CNS4-2126
ENCODING 12321
SWIDTH 985 0
DWIDTH 40 0
BBX 40 40 0 -3
BITMAP
0000000000
0000000018
000000003c
fffffffffe
000e000000
000e000000
001c000000
001c000000
0038000000
0038000000
0070000000
0070000000
00e0000180
00e00003c0
01ffffffe0
00c00001e0
00000001c0
00000001c0
00000001c0
00000001c0
00000001c0
00000001c0
00000001c0
00000001c0
0000000380
0000000380
0000000380
0000000380
0000000700
0000000700
0000000e00
0000000e00
0000001c00
0000001c00
0000003800
0000007800
0003fff000
00001fe000
000003c000
0000038000
ENDCHAR
STARTCHAR CNS3-2126
ENCODING 12322
SWIDTH 985 0
DWIDTH 40 0
BBX 40 40 0 -3
BITMAP
0000000000
0000300000
00003e0000
00003c0000
0000380000
0000380000
0000380000
0000380000
0000380000
0000380000
0000380000
0000380000
0000380000
0000380000
0000380000
0000380000
0000380000
0000380000
0000380000
0000380000
0000380000
0000380000
0000380000
0000380000
0000380000
0000380000
0000380000
0000380000
0000380000
0000380000
0000380000
0000380000
0000380000
0000380000
0000380000
0000380000
000038000c
000038001e
ffffffffff
0000000000
ENDCHAR
STARTCHAR CNS3-2125
ENCODING 12323
SWIDTH 985 0
DWIDTH 40 0
BBX 40 40 0 -3
BITMAP
0000000000
0000000018
000000003c
7ffffffffe
0000380000
0000380000
0000380000
0000380000
0000380000
0000380000
0000380000
0000380000
0000380000
0000380000
0000380000
0000380000
0000380000
0000380000
0000380000
0000380000
0000380000
0000380000
0000380000
0000380000
0000380000
0000380000
0000380000
0000380000
0000380000
0000380000
0000380000
0000380000
0000380000
0000380000
0000380000
0000380000
0000380000
0000380000
0000380000
0000300000
ENDCHAR
STARTCHAR CNS2-2127
ENCODING 12324
SWIDTH 985 0
DWIDTH 40 0
BBX 40 40 0 -3
BITMAP
0000000000
000000000c
000000001e
ffffffffff
001c007000
001c007000
001c007000
001c007000
001c007000
001c007000
001c007000
001c007000
001c007000
001c007000
001c007000
001c007000
001c007000
001c007000
001c007000
001c007000
001c007000
001c007000
0038007000
0038007000
0038007000
0038007000
0038007000
0070007000
0070007000
0070007000
00e0007000
00e0007000
01c0007000
01c0007000
0380007000
0700007000
0e00007000
1c00007000
3800007000
6000006000
ENDCHAR
STARTCHAR CNS4-2139
ENCODING 12325
SWIDTH 985 0
DWIDTH 40 0
BBX 40 40 0 -3
BITMAP
0000000000
0000000030
0000000078
3ffffffffc
0000e0003c
0000e00038
0000e00038
0000e00038
0000e00038
01c0e00038
0070e00038
001ce00038
0006e00038
0003e00038
0001c00038
0001e00038
0001f00038
0001f80038
0001dc0038
00038e0038
00038f0038
0007070038
0007030038
000e000038
000e000078
001c000070
0038000070
00700000f0
00e00000e0
01c00003e0
038007ffc0
0700007f80
0e00000f00
3800000e00
e000000000
0000000000
000000000c
000000001e
ffffffffff
0000000000
ENDCHAR
STARTCHAR CNS1-4723
ENCODING 12326
SWIDTH 985 0
DWIDTH 40 0
BBX 40 40 0 -3
BITMAP
0000000000
0000000030
0000000078
3ffffffffc
0000380000
0000380000
0000380000
0000380000
0000380000
0000380000
0000380180
00003803c0
07ffffffe0
0000380000
0000380000
0000380000
0000380000
0000380000
0000380000
000038000c
000038001e
ffffffffff
0001c00000
0001c00000
0003800000
0003800000
0007000000
0007000000
000e000600
001c000300
001c000180
00380000c0
0070000060
00e0000070
01c0000038
038003fffc
0fffffe03c
0fffc0001c
078000001c
038000000c
ENDCHAR
STARTCHAR CNS4-2335
ENCODING 12327
SWIDTH 985 0
DWIDTH 40 0
BBX 40 40 0 -3
BITMAP
0000000000
0000000018
000000003c
7ffffffffe
000700e000
000700e000
000700e000
000700e000
000700e000
000700e000
000700e030
180700e078
1fff00fffc
1c0700e03c
1c0700e038
1c0700e038
1c0700e038
1c0700e038
1c0700e038
1c0700e038
1c0700e038
1c0700e038
1c0700e038
3fff00fff8
180700e038
000700e030
000700e000
000700e000
000e00e000
000e00e000
000e00e000
001c00e000
001c00e000
003800e000
007000e000
00e000e000
01c000e000
038000e000
070000e000
1c0000c000
ENDCHAR
STARTCHAR CNS3-243F
ENCODING 12328
SWIDTH 985 0
DWIDTH 40 0
BBX 40 40 0 -3
BITMAP
0000000000
0000000018
000000003c
7ffffffffe
000e00e000
000e00e000
000e00e000
000e00e000
000e00e000
300e00e030
380e00e078
3ffffffffc
380e00e03c
380e00e038
380e00e038
380e00e038
380e00e038
380e00e038
380e00e038
380e00e038
381d01d038
381d81d038
381cc1d838
3818e1c838
3838e38c38
3838738c38
3830730e38
3870370638
3860060738
38e00e07b8
38c00c03b8
3980180338
3b00300038
3800600038
3800000038
3800000078
3800003ff8
38000003f0
38000000e0
30000000c0
ENDCHAR
STARTCHAR CNS3-2121
ENCODING 12329
SWIDTH 985 0
DWIDTH 40 0
BBX 40 40 0 -3
BITMAP
0000300000
00003e0000
00003c0000
0000380000
0000380000
0000380000
0000380000
0000380000
0000380000
0000380000
0000380000
0000380000
0000380000
0000380000
0000380000
0000380000
0000380000
0000380000
0000380000
0000380000
0000380000
0000380000
0000380000
0000380000
0000380000
0000380000
0000380000
0000380000
0000380000
0000380000
0000380000
0000380000
0000380000
0000380000
0000380000
0000380000
0000380000
0000380000
0000380000
0000300000
ENDCHAR
STARTCHAR CNS1-4439
ENCODING 12330
SWIDTH 985 0
DWIDTH 40 0
BBX 40 40 0 -3
BITMAP
0000000600
03000007c0
01c0000fc0
00e0000f00
0078001f00
003c001e00
001e003c00
000f007800
000780f000
0003c0e000
0001e1c000
0001e38000
0000f70000
0000760000
00003c0000
0000380000
0000380000
0000380000
0000380000
0000380000
0000380000
0000380000
0000380000
0000380000
0000380000
0000380000
0000380000
0000380000
0000380000
0000380000
0000380000
0000380000
0000380000
0000380000
0000380000
0000380000
0000380000
0000380000
0000380000
0000300000
ENDCHAR
STARTCHAR CNS2-2130
ENCODING 12331
SWIDTH 985 0
DWIDTH 40 0
BBX 40 40 0 -3
BITMAP
0000000000
0000001800
0000003c00
3ffffffe00
0007001e00
0007001c00
0007001c00
0007001c00
0007001c00
0007001c00
0007001c00
0007041c00
00070e1c00
07ffff1c00
0007001c00
0007001c00
0007001c00
0007001c00
0007001c00
0007001c00
0007001c00
0007021c00
0007071c00
0fffff9c00
0007001c00
0007001c00
0007001c00
0007001c00
0007001c00
0007001c01
0007001c01
0007001c03
0007001c03
0007001c06
0007001c06
0007001e0e
0007001fff
0007000fff
00070007fe
0006000000
ENDCHAR
STARTCHAR CNS4-213A
ENCODING 12332
SWIDTH 985 0
DWIDTH 40 0
BBX 40 40 0 -3
BITMAP
0000300000
00003e0000
00003c0000
0000380000
0000380e00
0000383f00
000039ff80
00003fe000
0001fe0000
001fb80000
03f8380000
0000380000
0000380000
0000380000
0000380700
0000383f80
000039ffc0
00003fe000
0001fe0000
001fb80000
03f8380000
0000380000
0000380000
0000380000
0000380380
0000381fc0
000039ffe0
00003ff000
0001fe0000
001fb80000
07f8380000
0000380000
0000380000
0000380000
0000380000
0000380000
0000380000
0000380000
0000380000
0000300000
ENDCHAR
STARTCHAR CNS1-4464
ENCODING 12333
SWIDTH 985 0
DWIDTH 40 0
BBX 40 40 0 -3
BITMAP
0000300000
00003e0000
00003c0000
0000380000
0000381e00
00003bff00
0001ffff80
003ffc0000
07fc380000
0000380000
0000380000
0000380000
0000380000
0000380000
00003800c0
00003801e0
0ffffffff0
0000380000
0000380000
0000380000
0000380000
0000380000
0000380000
000038000c
000038001e
ffffffffff
0000380000
0000380000
0000380000
0000380000
0000380000
0000380000
0000380000
0000380000
0000380000
0000380000
0000380000
0000380000
0000380000
0000300000
ENDCHAR
STARTCHAR CNS4-2B5E
ENCODING 12334
SWIDTH 985 0
DWIDTH 40 0
BBX 40 40 0 -3
BITMAP
0003030000
0003e3e0c0
0603c3c0f0
03038381e0
01838381c0
01c3838380
00e3838300
00e3838600
0063838c0c
000383801e
ffffffffff
0000001800
0030001e00
0018003c00
000c003800
0006007000
0007006000
000380c000
00038180c0
00018301e0
1ffffffff0
0000380000
0000380000
0000380000
0000380000
0000380000
000038000c
000038001e
ffffffffff
0000380000
0000380000
0000380000
0000380000
0000380000
0000380000
0000380000
0000380000
0000380000
0000380000
0000300000
ENDCHAR
STARTCHAR CNS4-2122
ENCODING 12335
SWIDTH 985 0
DWIDTH 40 0
BBX 40 40 0 -3
BITMAP
0000000000
0000e00000
0003f00000
000ff00000
003e700000
00fc700000
03f0700000
0fc0700000
7f00700000
7c00380000
3800380000
0000380000
0000380000
0000380000
00001c0000
00001c0000
00001c0000
00001c0000
00000e0000
00000e0000
00000f0000
0000070000
0000070000
0000038000
0000038000
000001c000
000001e000
000000e000
0000007000
0000007800
0000003c00
0000001e00
0000000f00
0000000780
00000003e0
00000001f8
00000000ff
000000007f
000000003e
000000000e
ENDCHAR
STARTCHAR CNS4-2123
ENCODING 12336
SWIDTH 985 0
DWIDTH 40 0
BBX 40 40 0 -3
BITMAP
0000000000
0000600000
0000f00000
fffff80000
0000780000
0000700000
0000700000
0000700000
0000700000
0000700000
0000700000
0000380000
0000380000
0000380000
0000380000
0000380000
00001c0000
00001c0000
00001c0000
00000e0000
00000e0000
0000070000
0000070000
0000078000
0000038000
000003c000
000001e000
000000e000
000000f000
0000007800
0000003c00
0000001e00
0000000f00
0000000780
00000003e0
00000001f8
00000000ff
000000007f
000000003e
000000000e
ENDCHAR
STARTCHAR CNS6-2123
ENCODING 12337
SWIDTH 985 0
DWIDTH 40 0
BBX 40 40 0 -3
BITMAP
0000000000
0000000000
0000000000
0000000000
0000000000
0000000600
00000007e0
00000007c0
0380000780
00e0000f00
0078000e00
001c001e00
000f001c00
0003803c00
0001c07800
0000f07000
000078f000
00003de000
00001fc000
00000f8000
00000f8000
00001fc000
00003de000
000078f000
0000f07800
0001e03c00
0003c01e00
0007800f00
000f000780
001c0003c0
00780001e0
00e00000e0
0380000060
0e00000000
3800000000
0000000000
0000000000
0000000000
0000000000
0000000000
ENDCHAR
STARTCHAR CNS2-2128
ENCODING 12338
SWIDTH 985 0
DWIDTH 40 0
BBX 40 40 0 -3
BITMAP
0000001c00
0000007e00
000003ff00
00001ff000
0000ff0000
000ff00000
007ee00000
07f0e00000
0000e00000
0000e00000
0000e00000
0000e00000
0000e00000
0000e00000
0000e00000
0000e00000
0000e00000
0000e00018
0000e0003c
7ffffffffe
0000e00000
0000e00000
0000e00000
0000e00000
0000e00000
0000e00000
0000e00000
0000e00000
0000e00001
0000e00001
0000e00003
0000e00003
0000e00006
0000e00006
0000f0000e
0000f8001f
00007fffff
00003ffffe
00000ffff8
0000000000
ENDCHAR
STARTCHAR CNS4-2227
ENCODING 12339
SWIDTH 985 0
DWIDTH 40 0
BBX 40 40 0 -3
BITMAP
00000007c0
0000007fe0
00001ffff0
0003ffc000
007ff80000
1ff0380000
0000380000
0000380000
0000380000
0000380000
0000380000
0000380060
000c3800f0
001e3801f8
003c3803e0
00703c0780
00e03c0e00
01c03e1c00
07003a7000
0e003bc000
3800390000
e000398000
000038c000
0000386000
0006387000
000f383800
001e381c00
0038380f00
00703807c0
01c03803f0
03803801ff
0e003800ff
380038003e
e00038000e
0000380000
0000380000
0000380000
0000380000
0000380000
0000300000
ENDCHAR
STARTCHAR CNS4-2124
ENCODING 12340
SWIDTH 985 0
DWIDTH 40 0
BBX 40 40 0 -3
BITMAP
00c0000000
00f8000000
00f0000000
00e0000000
00e0000000
00e0000000
00e0000000
00e0000000
00e0000000
00e0000000
00e0000000
00e0000000
00e0000000
00e0000000
00e0000000
00e0000000
00e0000000
00e0000000
00e0000000
00e0000000
00e0000000
00e0000000
00e0000000
00e0000000
00e0000000
00e0000000
00e0000000
00e0000000
00e0000010
00e0000010
00e0000030
00e0000030
00e0000060
00e0000060
00e00000e0
00f00001f0
00fffffff0
007fffffe0
003fffff80
0000000000
ENDCHAR
STARTCHAR CNS2-2122
ENCODING 12341
SWIDTH 985 0
DWIDTH 40 0
BBX 40 40 0 -3
BITMAP
0060000000
007c000000
0078000000
0070000000
0070000000
0070000000
0070000000
0070000000
0070000000
00700000e0
00700001f0
00700ffff8
007ffe00f8
7ff00000e0
00700000e0
00700000e0
00700001c0
00700001c0
00700001c0
0070000380
0070000380
0070000300
0070000700
0070000600
0070000c00
0070000800
0070000000
0070000000
0070000001
0070000001
0070000003
0070000003
0070000006
0070000006
007800000e
007c00001f
003fffffff
001ffffffe
0007fffff8
0000000000
ENDCHAR
STARTCHAR CNS3-2145
ENCODING 12342
SWIDTH 985 0
DWIDTH 40 0
BBX 40 40 0 -3
BITMAP
0000060000
00c007c000
00f8078000
00f0070000
01e0070000
01c0070000
01c0070000
0380070000
0380070000
0700070000
0600070000
0e00070000
0c06070000
1c07c70000
380f870000
3c0f070000
1e1e070000
071c070000
03bc070000
01f8070000
00f8070000
0070070000
0070070000
00e0070000
00e0070000
01c0070000
0380070000
038c070000
0706070002
0e03070002
0e03870006
1c1fc70006
38f9c7000c
7fc0e7000c
7f00e7001c
3c0067803e
1c0067fffe
000003fffc
000001fff0
0000000000
ENDCHAR
STARTCHAR CNS3-2264
ENCODING 12343
SWIDTH 985 0
DWIDTH 40 0
BBX 40 40 0 -3
BITMAP
0060006000
007c007c00
0078007800
00f0007000
00e0007000
01c0007000
01c0007000
0380007000
0300007000
0703007000
0601807000
0e00c07000
1c00607000
1800707000
3800387000
700ffc7000
fffe1c7000
ff001c7000
70000c7000
3000007000
0000007000
0000007000
0000c07000
1801e07000
1ffff07000
1c00f07000
1c00e07000
1c00e07000
1c00e07000
1c00e07000
1c00e07001
1c00e07001
1c00e07003
1c00e07003
1c00e07006
1c00e0780e
1fffe07fff
1c00e03fff
1c00c01ffe
1800000000
ENDCHAR
STARTCHAR CNS1-4726
ENCODING 12344
SWIDTH 985 0
DWIDTH 40 0
BBX 40 40 0 -3
BITMAP
00c000c000
00f800f800
00f000f000
00e000e000
00e000e000
00e000e000
00e000e000
00e000e000
00e000e000
00e060e000
00e0f0e000
00fff8e000
00e000e000
00e000e000
00e000e000
00e000e000
00e000e000
00e000e000
00e000e000
00e000e000
00e180e000
60e3c0e000
7fffe0e000
7001e0e000
7001c0e000
7001c0e000
7001c0e000
7001c0e000
7001c0e000
7001c0e000
7001c0e001
7001c0e001
7001c0e003
7001c0e003
7001c0e006
7001c0f00e
7fffc0ffff
7001c07fff
7001803ffe
6000000000
ENDCHAR
STARTCHAR CNS4-2531
ENCODING 12345
SWIDTH 985 0
DWIDTH 40 0
BBX 40 40 0 -3
BITMAP
00c0000038
00f80c03fc
00f00e3ffe
00e00ffc00
00e10e0000
00e38e0000
ffffce000c
00e00e001e
00e00fffff
00e00e01c0
00ef8e01c0
07fc0e01c0
ffe00e01c0
fce01c01c0
70e01c01c0
30e03801c0
00e07001c0
3fe0e001c0
07e1c001c0
01c38001c0
018e000180
0000000000
0000000f00
0fffffff80
0000003f80
000000fc00
000007e000
00001f0000
0000780000
0003e00000
001f000008
007c000008
03e0000018
0f80000018
1e00000030
3e00000070
3ffffffff8
1ffffffff8
0ffffffff0
0000000000
ENDCHAR
STARTCHAR CNS4-2530
ENCODING 12346
SWIDTH 985 0
DWIDTH 40 0
BBX 40 40 0 -3
BITMAP
018000c000
00c000f800
00e000f000
007000e000
007020e000
003070e000
fffff8e000
000180e000
1001e0e000
1801c0e000
0c0380e000
0e0380e000
060300e000
070700e000
070600e000
030600e000
030c20e000
000870e000
fffff8e000
007000e000
007000e000
007000e000
007000e000
007000e000
007000e000
007040e000
0070e0e000
7ffff0e000
007000e000
007000e000
007000e001
007000e001
007000e003
007000e003
007000e006
007000f00e
007000ffff
0070007fff
0070003ffe
0060000000
ENDCHAR
STARTCHAR CNS3-2B23
ENCODING 12347
SWIDTH 985 0
DWIDTH 40 0
BBX 40 40 0 -3
BITMAP
006000c000
007c00f800
007800f000
007000e000
007040e000
0070e0e000
7ffff0e000
007000e000
007000e000
007000e000
0070c0e000
3071e0e000
3ffff0e000
3800f0e000
3800e0e000
3800e0e000
3800e0e000
3800e0e000
3fffe0e000
3800e0e000
3800e0e000
3800e0e000
3800e0e000
3800e0e000
3fffe0e000
307000e000
007000e000
007000e000
007020e001
007070e001
fffff8e003
007000e003
007000e006
007000e006
007000e00e
007000f01f
007000ffff
0070007ffe
0070003ff8
0060000000
ENDCHAR
STARTCHAR CNS2-334E
ENCODING 12348
SWIDTH 985 0
DWIDTH 40 0
BBX 40 40 0 -3
BITMAP
0003c06000
003fe07c00
07fff07800
7f80007000
0000607000
0180787000
c0e0f07000
7070e07000
3871c07000
3831807000
1803007000
0002007000
00c0007000
01e0007000
01c0007000
0386007000
0707807000
0e0f007000
1c1e007000
1c3c007000
0778007000
01f0007000
01c3007000
0381807000
0700c07000
1c0fe07000
7ffc707000
7f70707000
3870307000
1870007000
0070007001
0c71807001
0e70c07003
1c70607003
1870707006
307038780e
6070387fff
c070183fff
8070001ffe
0060000000
ENDCHAR
STARTCHAR CNS2-2129
ENCODING 12349
SWIDTH 985 0
DWIDTH 40 0
BBX 40 40 0 -3
BITMAP
0000000000
0000000300
0000000780
03ffffffc0
0000000000
0000000000
0000000000
0000000000
0000000000
0000000000
0000000000
0000000000
0000000018
000000003c
7ffffffffe
00001c0000
00001c0000
00001c0000
00001c0000
00001c0000
00001c0000
00001c0000
00001c0000
00001c0000
00001c0000
00001c0000
00001c0000
00001c0000
00001c0000
00001c0000
00001c0000
00001c0000
00001c0000
00001c0000
00001c0000
00003c0000
001ffc0000
0001f80000
0000700000
0000600000
ENDCHAR
STARTCHAR CNS4-213B
ENCODING 12350
SWIDTH 985 0
DWIDTH 40 0
BBX 40 40 0 -3
BITMAP
0000000000
0000000300
0000000780
03ffffffc0
0000000000
0000000000
0000000000
0000000000
0000000000
0000000000
0000000000
0000000000
0000000000
0000000000
0000000030
0000000078
3ffffffffc
0000000000
0000000000
0000000000
0000000000
0000000000
0000000000
0000000300
0000000780
03ffffffc0
0000000000
0000000000
0000000000
0000000000
0000000000
0000000000
0000000000
0000000000
0000000000
0000000000
0000000030
0000000078
3ffffffffc
0000000000
ENDCHAR
STARTCHAR CNS3-216C
ENCODING 12351
SWIDTH 985 0
DWIDTH 40 0
BBX 40 40 0 -3
BITMAP
0000000000
0000300000
00003e0000
00003c0000
0000380000
0000380000
0000380000
1800380060
1f0038007c
1e00380078
1c00380070
1c00380070
1c00380070
1c00380070
1c00380070
1c00380070
1c00380070
1c00380070
3ffffffff0
1800000060
0000000000
0000000000
0000000000
0000000000
0000000000
0000000000
00000000c0
00000001e0
0ffffffff0
0000000000
0000000000
0000000000
0000000000
0000000000
0000000000
000000000c
000000001e
7fffffffff
0000000000
0000000000
ENDCHAR
STARTCHAR CNS3-2742
ENCODING 12352
SWIDTH 985 0
DWIDTH 40 0
BBX 40 40 0 -3
BITMAP
0001800000
0001e00000
0003c00000
000380c000
0007007000
000e003800
001c001e00
00700fff00
01fffe0780
01fc0003c0
00e00001e0
00600000e0
0000000c60
0180000f00
01e0000e00
03c0001c00
0380003800
07060030c0
0e03006060
0c0180e030
1c01c1c038
383fc3fffc
7ff0e3f81c
7f00e1c01c
3c0060c00c
0c00000000
0000000000
0000000000
0000000180
00000003c0
0fffffffe0
0000000000
0000000000
0000000000
0000000000
0000000000
000000000c
000000001e
ffffffffff
0000000000
ENDCHAR
STARTCHAR CNS3-2B26
ENCODING 12353
SWIDTH 985 0
DWIDTH 40 0
BBX 40 40 0 -3
BITMAP
0000c00000
0000700000
0000380000
0000380018
000018003c
7ffffffffe
0000000000
0000000000
0000000000
0000000c00
00c0001e00
00ffffff00
00e0000f00
00e0000e00
00e0000e00
00e0000e00
00e0000e00
00e0000e00
00e0000e00
00fffffe00
00e0000c00
00c0000000
0000000000
00000000c0
0c000001e0
0ffffffff0
0e000000f0
0e000000e0
0e000000e0
0e000000e0
0e000000e0
0fffffffe0
0e000000e0
0e000000e0
0e000000e0
0e000000e0
0e000000e0
0fffffffe0
0e000000e0
0c000000c0
ENDCHAR
STARTCHAR CNS2-6D44
ENCODING 12354
SWIDTH 985 0
DWIDTH 40 0
BBX 40 40 0 -3
BITMAP
0000e00000
0000780000
000038000c
000010001e
ffffffffff
0000000000
0010000000
003980c0e0
0371ffeff0
03c180c0f0
038184c0e0
0381bec0e0
03f980cfe0
038180c0e0
0381bec0e0
0381a2c0e0
0381a2c0e0
03f9a2cfe0
0381bec0e0
038180c0e0
0b8180c0e4
0b800000ee
1fffffffff
180000000f
380000001c
7018001c18
701ffffe30
601c001e00
001c001c00
001c001c00
001ffffc00
001c001c00
001c001c00
001c001c00
001ffffc00
001c001c00
001c001c0c
001c001c1e
ffffffffff
0000000000
ENDCHAR
STARTCHAR CNS1-4470
ENCODING 12355
SWIDTH 985 0
DWIDTH 40 0
BBX 40 40 0 -3
BITMAP
0030000000
003e000000
003c000000
0078000000
007000000c
007000001e
00e7ffffff
00e0003800
01c0003800
01c0003800
0380003800
0380003800
0780003800
0780003800
0f80003800
0f80003800
1f80003800
3b80003800
3380003800
6380003800
c380003800
0380003800
0380003800
0380003800
0380003800
0380003800
0380003800
0380003800
0380003800
0380003800
0380003800
0380003800
0380003800
0380003800
0380003800
0380007800
03807ff000
038007f000
038001e000
030001c000
ENDCHAR
STARTCHAR CNS4-213C
ENCODING 12356
SWIDTH 985 0
DWIDTH 40 0
BBX 40 40 0 -3
BITMAP
0000300000
00003e0000
00003c0000
0000380000
0000740000
0000e60000
0000e30000
0001c18000
000380c000
000700e000
000e007000
001c003800
0038301e00
00703e0f80
00e03c07e0
01c03801ff
03803800ff
0e0038003c
380038000c
e000380000
0000380000
0000380060
00003800f0
1ffffffff8
0000380000
0000380000
0000380000
0000380000
0000380000
0000380000
0000380000
0000380000
0000380000
0000380000
0000380000
0000380000
0000380000
0000380000
0000380000
0000300000
ENDCHAR
STARTCHAR CNS2-214A
ENCODING 12357
SWIDTH 985 0
DWIDTH 40 0
BBX 40 40 0 -3
BITMAP
0000300000
00003c0000
0000780000
0000780000
0000fc0000
0000e60000
0001c30000
0003818000
000700c000
000e007000
001c003800
0038001c00
0070000f00
00e00007c0
01c03003f8
03803e01ff
07003c007f
0e0038003c
380038000c
e000380000
0000380000
0000380000
0300380300
03e03803e0
03c03803c0
0380380380
0380380380
0380380380
0380380380
0380380380
0380380380
0380380380
0380380380
0380380380
0380380380
0380380380
0380380380
07ffffff80
0300000380
0000000300
ENDCHAR
STARTCHAR CNS4-215B
ENCODING 12358
SWIDTH 985 0
DWIDTH 40 0
BBX 40 40 0 -3
BITMAP
0060000000
007c0000e0
00780003f0
0070001ff8
00f000ff00
00e007f000
00e03f0000
01c3e70000
01c0070000
0380070000
0380070000
0780070000
0780070000
0f80070000
0f80070000
1f80070000
3b8007000c
338007001e
638007ffff
c38fff0000
0380070000
0380070000
0380070000
0380070000
0380070000
0380070000
0380070000
0380070000
0380070000
0380070000
0380070001
0380070001
0380070003
0380070003
0380070006
038007800e
038007ffff
038003ffff
038001fffe
0300000000
ENDCHAR
STARTCHAR CNS3-216D
ENCODING 12359
SWIDTH 985 0
DWIDTH 40 0
BBX 40 40 0 -3
BITMAP
0018000000
001f000030
001e000078
003cfffffc
0038007000
0038007000
0070007000
0070007000
00e0007000
00e0007000
01c0007000
01c0007000
03c0007000
03c0007000
07c0007000
07c0007000
0fc000700c
1dc000701e
19c3ffffff
31c0007000
61c0007000
01c0007000
01c0007000
01c0007000
01c0007000
01c0007000
01c0007000
01c0007000
01c0007000
01c0007000
01c0007000
01c0007000
01c0007000
01c0007000
01c0007000
01c0007000
01c0007000
01c0007000
01c0007000
0180006000
ENDCHAR
STARTCHAR CNS2-2148
ENCODING 12360
SWIDTH 985 0
DWIDTH 40 0
BBX 40 40 0 -3
BITMAP
00300c0000
003e0f8000
003c0f0000
00780e0000
00701c0000
00701c0000
00e0380018
00e038003c
01c07ffffe
01c0700000
0380e00000
0381c00000
0781800000
0783000000
0f86000180
0f840003c0
1f80ffffe0
3b800003e0
3380000780
6380000e00
c380001c00
0380003800
0380007000
038000e000
038001c000
0380038000
0380070000
03800e0000
03801c0000
0380380000
0380700001
0380e00001
0380e00003
0381c00003
0381c00006
0381e0000e
0381ffffff
0380ffffff
03803ffffe
0300000000
ENDCHAR
STARTCHAR CNS4-215A
ENCODING 12361
SWIDTH 985 0
DWIDTH 40 0
BBX 40 40 0 -3
BITMAP
0060300000
007c3e0000
00783c0000
0070380000
00f0380000
00e0380000
00e0700000
01c070000c
01c070001e
0380ffffff
0380e0000f
0780c0000e
0781c0000e
0f8180000e
0f8380000e
1f8300000e
3b8600000e
338c0c000e
638007000e
c38003800e
038001c00e
038000e00e
038000f00e
038000700e
038000300e
038000000e
038000000e
038000000e
038000000e
038000000e
038000001e
038000001c
038000001c
038000003c
0380000038
03800000f8
038001fff0
0380001fe0
03800003c0
0300000380
ENDCHAR
STARTCHAR CNS2-2145
ENCODING 12362
SWIDTH 985 0
DWIDTH 40 0
BBX 40 40 0 -3
BITMAP
0060000000
007c000000
0078000000
0070000018
00f000003c
00e7fffffe
00e0000000
01c0000000
01c0000000
0380000000
0380000000
0700000000
0700000000
0f00000000
0f00000000
1f00000000
3f00000000
3700000000
6700000040
c7000000e0
0700fffff0
0700000000
0700000000
0700000000
0700000000
0700000000
0700000000
0700000000
0700000000
0700000000
0700000000
0700000000
0700000000
0700000000
070000000c
070000001e
071fffffff
0700000000
0700000000
0600000000
ENDCHAR
STARTCHAR CNS3-2268
ENCODING 12363
SWIDTH 985 0
DWIDTH 40 0
BBX 40 40 0 -3
BITMAP
0030006000
003e007c00
003c007800
0078007000
0070007000
0070007000
00e0007000
00e0007000
01c0007000
01c0307180
03c03c70e0
03c0387070
07c0387038
07c070701c
0fc070701e
0fc070700f
1dc0e0700f
39c0e07007
31c0c07003
61c1c07000
c1c1807060
01c3007078
01c3007070
01c60070e0
01c40070e0
01c00071c0
01c00071c0
01c0006380
01c0000700
01c0000e00
01c0001c00
01c0003800
01c0007000
01c001e000
01c0038000
01c00f0000
01c01c0000
01c0700000
01c1c00000
018f000000
ENDCHAR
STARTCHAR CNS2-216F
ENCODING 12364
SWIDTH 985 0
DWIDTH 40 0
BBX 40 40 0 -3
BITMAP
0030018000
003e01e000
003c03c000
007803e000
007003e000
0070073000
00e0073000
00e00e1800
01c00e1c00
01c01c0c00
03801c0600
0380380700
0780300380
07807001c0
0f80e001e0
0f80c000f0
1f81c00c7c
3b83bffe3f
338300001f
638600000e
c38c000006
0398000000
0380000300
0380000780
0381ffffc0
03800003c0
0380000380
0380000380
0380000700
0380000700
0380000e00
0380000e00
0380001c00
0380001c00
0380003800
0380003800
0380007000
0380007000
038000e000
030000c000
ENDCHAR
STARTCHAR CNS1-4738
ENCODING 12365
SWIDTH 985 0
DWIDTH 40 0
BBX 40 40 0 -3
BITMAP
0061801800
007df01f00
0079e01e00
0071c01c00
00f1c01c00
00e1c01c00
00e1c01c00
01c1c01c00
01c1c01c00
0381c01c00
0381c01c00
0701c01c00
0701c01c00
0f01c01c00
0f01c11c08
1f01c39c1c
3f01ffdffe
3701c01c00
6701c01c00
c701c01c00
0701c01c00
0701c01c00
0701c01c00
0701c01c00
0701c01c00
0701c01c00
0701c01c00
0701c01c00
0701c01c00
0701c01c00
0701c01c01
0701c01c01
0701c19c03
0701c71c03
0701dc1c06
0701f81e0e
0701f01fff
0701e00fff
0701c007fe
0600c00000
ENDCHAR
STARTCHAR CNS2-216D
ENCODING 12366
SWIDTH 985 0
DWIDTH 40 0
BBX 40 40 0 -3
BITMAP
0030300000
003e3e0000
003c3c0000
0078380000
0070380000
0070380000
00e0700030
00e0700078
01c07ffffc
01c0e07000
0380e07000
0380c07000
0781c07000
0781807000
0f83807000
0f83007000
1f86007000
3b84007000
3380007000
6380007000
c38000700c
038000701e
0387ffffff
0380007000
0380007000
0380007000
0380007000
0380007000
0380007000
0380007000
0380007000
0380007000
0380007000
0380007000
0380007000
0380007000
0380007000
0380007000
0380007000
0300006000
ENDCHAR
STARTCHAR CNS1-4739
ENCODING 12367
SWIDTH 985 0
DWIDTH 40 0
BBX 40 40 0 -3
BITMAP
0030001800
003e000c00
003c180c00
00781f0600
00701e0600
00701c0700
00e01c0300
00e0180300
01c0380380
01c0380180
03803001c0
03807000c0
07806000e0
0780e00070
0f80c00078
0f81c0003c
1f8180003f
3b8380001f
33837ffffc
63860700ec
c3840700e0
03800700e0
03800700e0
03800700e0
03800700e0
03800e00e0
03800e00e0
03800e00e0
03801c00e0
03801c00e0
03803800e0
03803801e0
03807001c0
03807001c0
0380e003c0
0381c00780
038383ff00
0387007e00
038e001c00
0338001800
ENDCHAR
STARTCHAR CNS4-222D
ENCODING 12368
SWIDTH 985 0
DWIDTH 40 0
BBX 40 40 0 -3
BITMAP
0030000000
003e000018
003c00003c
0079fffffe
0070070000
0070070000
00e0070000
00e0070000
01c0070000
01c0070000
03c00e0000
03c00e0180
07c00e03c0
07c00fffe0
0fc00e01e0
0fc00e01c0
1dc01c01c0
39c01c01c0
31c01c01c0
61c01c01c0
c1c01c01c0
01c0380380
01c0380380
01c0380380
01c0380380
01c0380380
01c07fff80
01c0300700
01c0000700
01c0000700
01c0000700
01c0000700
01c0000e00
01c0000e00
01c0000e00
01c0000e04
01c0000e0e
01c7ffffff
01c0000000
0180000000
ENDCHAR
STARTCHAR CNS1-472B
ENCODING 12369
SWIDTH 985 0
DWIDTH 40 0
BBX 40 40 0 -3
BITMAP
0060030000
007c018000
007800c000
007000e000
00f0007000
00e0007000
00e000300c
01c000001e
01cfffffff
03800e0000
03800e0000
07800e0000
07800e0000
0f800e0000
0f800e0000
1f800e0060
3b800e00f0
33800ffff8
63800e0078
c3800e0070
03800e0070
03800c0070
03801c0070
03801c0070
03801c0070
0380180070
0380380070
0380380070
0380300070
0380700070
03806000f0
0380e000e0
0380c000e0
0381c001c0
03818003c0
0383000780
038607ff00
038c007e00
0398001c00
0330001800
ENDCHAR
STARTCHAR CNS2-2170
ENCODING 12370
SWIDTH 985 0
DWIDTH 40 0
BBX 40 40 0 -3
BITMAP
0030006000
003e003000
003c003000
0078001800
0070001800
0070000c00
00e0180c00
00e01f0600
01c01e0600
01c01c0700
0380380300
0380380380
0780380380
07807001c0
0f807001c0
0f806000e0
1f80e180e0
3b80c1e070
3381c1c078
638181c03c
c38383803f
038303801f
038703800e
0386070006
038c070000
0398060000
03800e0000
03800c0000
03801c0300
0380180180
03803800c0
03803000e0
0380700070
0380600070
0380e03ff8
0381fff838
0381ff0038
0380f00018
0380700018
0300000000
ENDCHAR
STARTCHAR CNS2-2174
ENCODING 12371
SWIDTH 985 0
DWIDTH 40 0
BBX 40 40 0 -3
BITMAP
0030006000
003e007c00
003c007800
0078007000
0070007000
007000700c
00e000701e
00e7ffffff
01c0007000
01c0007000
0380007000
0380007000
0780c07030
0780e07078
0f80fffffc
0f80e0703c
1f80e07038
3b80e07038
3380e07038
6380e07038
c380e07038
0380e07038
0380e07038
0380e07038
0380e07038
0380e07038
0380e07038
0380e07038
0380e07038
0380e07038
0380e07078
0380e077f8
0380e071f0
0380e070e0
0380c070c0
0380007000
0380007000
0380007000
0380007000
0300006000
ENDCHAR
STARTCHAR CNS3-226D
ENCODING 12372
SWIDTH 985 0
DWIDTH 40 0
BBX 40 40 0 -3
BITMAP
0060000000
007c0000c0
00780001e0
00707ffff0
00f00001f0
00e00003c0
00e0000380
01c0000700
01c0060600
0380038c00
038001d800
070000f000
070000f000
0f0000700c
0f0000301e
1f07ffffff
3f0000701f
370000701c
6700007018
c700007030
0700007020
0700007000
0700007000
0700007000
0700007000
0700007000
0700007000
0700007000
0700007000
0700007000
0700007000
0700007000
0700007000
0700007000
0700007000
070000f000
07003ff000
070007e000
070001c000
0600018000
ENDCHAR
STARTCHAR CNS2-2172
ENCODING 12373
SWIDTH 985 0
DWIDTH 40 0
BBX 40 40 0 -3
BITMAP
0030000000
003e030000
003c018000
007800c000
007000e000
0070007000
00e0007800
00e0003800
01c0003c00
01c00c1c00
03800f1c00
03800e1c00
07800e0c00
07800e0000
0f800e0000
0f800e0000
1f800e0000
3b800e0000
33808e0000
63808e0000
c3808e0000
03808e00c0
03818e0060
03818e0030
03818e0038
03838e001c
03838e001c
03838e000e
03878e000e
03870e000f
038f0e0007
038f0e0087
038e0e0087
038e0e0183
038c0f0180
03800f8300
038007ff80
038003ff80
038001ff00
0300000000
ENDCHAR
STARTCHAR CNS1-473B
ENCODING 12374
SWIDTH 985 0
DWIDTH 40 0
BBX 40 40 0 -3
BITMAP
0060000000
007c000300
0078000780
0077ffffc0
00f03803c0
00e0380380
00e0380380
01c0380380
01c0380700
0380380700
0380380700
0700380700
0700380e00
0f00380e00
0f00380e70
1f003ffff8
3f00390078
3700390070
6700718070
c700718070
07007080e0
070070c0e0
070070c0e0
0700e061c0
0700e061c0
0700e07380
0700c03380
0701c03f00
0701c01f00
0701801e00
0703801e00
0703003f00
0707007380
070600e1e0
070e01c0f8
070c03807f
071807003f
07301c001e
0760700006
0601c00000
ENDCHAR
STARTCHAR CNS4-222A
ENCODING 12375
SWIDTH 985 0
DWIDTH 40 0
BBX 40 40 0 -3
BITMAP
0060000000
007c00000c
0078c0001e
0070ffffff
00f0e00000
00e0e00000
00e0e00000
01c0e00000
01c0e00018
0380e3003c
0380e3fffe
0780e3801e
0780e3801c
0f80e3801c
0f80e3801c
1f80e3801c
3b80e3801c
3380e3801c
6380e3801c
c380e3801c
0380e3801c
0380e3801c
0380e3801c
0380e3803c
0380e39ffc
0381c381f8
0381c38070
0381c38060
0381c38000
0381838000
0383838001
0383838001
0383038003
0387038003
0386038006
038603c00e
038c03ffff
038c01ffff
039800fffe
0310000000
ENDCHAR
STARTCHAR CNS2-217A
ENCODING 12376
SWIDTH 985 0
DWIDTH 40 0
BBX 40 40 0 -3
BITMAP
0030000070
003e0003f8
003c001ffc
007831ff00
00703fc000
0070380000
00e0380000
00e0380000
01c0380000
01c0380000
0380380000
0380380000
078038000c
078038001e
0f803fffff
0f80380380
1f80380380
3b80380380
3380380380
6380380380
c380380380
0380380380
0380380380
0380380380
0380700380
0380700380
0380700380
0380700380
0380600380
0380e00380
0380e00380
0380e00380
0381c00380
0381c00380
0381800380
0383800380
0383000380
0386000380
038c000380
0318000300
ENDCHAR
STARTCHAR CNS1-472F
ENCODING 12377
SWIDTH 985 0
DWIDTH 40 0
BBX 40 40 0 -3
BITMAP
006000c000
007c00f800
007800f000
007000e000
00f000e000
00e000e000
00e000e000
01c000e020
01c000e070
0383fffff8
038000e000
078000e000
078000e000
0f8000e000
0f8000e000
1f8000e000
3b8000e008
338000e01c
6387fffffe
c38001e000
038001f000
038001f000
038001d000
0380039800
0380038800
0380038800
0380070c00
0380070600
03800e0600
03800e0300
03801c0380
03801c01c0
03803801e0
03807000f0
0380e0007c
0381c0003f
038380001f
038700000e
039c000006
0370000000
ENDCHAR
STARTCHAR CNS3-2270
ENCODING 12378
SWIDTH 985 0
DWIDTH 40 0
BBX 40 40 0 -3
BITMAP
00600c0000
007c0f8000
00780f0000
00700e0000
00f00e0000
00e00e0000
00e00e000c
01c00e001e
01cfffffff
03800e0000
03800e0000
07000e0000
07000e0000
0f000e0000
0f001c0060
1f001c00f0
3f001ffff8
37001c00f8
67001e00e0
c7003a00e0
07003b01c0
07003901c0
07003181c0
0700718380
070070c380
070060c700
0700e06700
0700e07e00
0700c03e00
0701c03c00
0701803e00
0703807700
070300e380
070601c1e0
070c0380f8
071807007f
07000e003f
070038001e
0700e00006
0607800000
ENDCHAR
STARTCHAR CNS3-2277
ENCODING 12379
SWIDTH 985 0
DWIDTH 40 0
BBX 40 40 0 -3
BITMAP
0000300000
00003e0000
00003c0000
0000380000
0000380000
00007c0000
0000740000
0000e60000
0000e30000
0001c18000
000381c000
000700f000
000e007800
001c003e00
0038001fc0
00e00007ff
01c00003ff
07000000f8
1c00000038
f030003000
003e003e00
003c003c00
0038003800
0038003800
0038003800
0038003800
0038003c00
007c007c00
0076007600
0073007200
00e380e300
00e1c0e180
01c1e1c0c0
01c0e1c0e0
0380e38078
070067003f
0e000e001f
1c001c000e
3800700006
6001c00000
ENDCHAR
STARTCHAR CNS1-472D
ENCODING 12380
SWIDTH 985 0
DWIDTH 40 0
BBX 40 40 0 -3
BITMAP
0030018000
003e01f000
003c01e000
007801c000
007001c000
007001c000
00e001c000
00e001c060
01c001c07c
01c601c078
038301c0f0
038381c0e0
0781c1c1c0
0781e1c1c0
0f80e1c380
0f80e1c300
1f80e1c600
3b8061c400
338061c000
638003e000
c38003e000
038003a000
038003b000
0380073000
0380071800
0380071800
03800e1c00
03800e0c00
03801c0e00
03801c0700
0380380780
03807803c0
03807001e0
0380e001f0
0381c000fc
038380007f
038700003f
038e00001e
0398000006
0330000000
ENDCHAR
STARTCHAR CNS4-2339
ENCODING 12381
SWIDTH 985 0
DWIDTH 40 0
BBX 40 40 0 -3
BITMAP
0181800000
01f1f00000
01e1e00000
01c1c00000
0381c00018
0381c6003c
0381c77ffe
0701c7081e
0701c7081c
0701cfc81c
0e3fff081c
0e3f87081c
1e1b87081c
1e03870c1c
3e03870c1c
3e03870c1c
6e03870c1c
6e03870c1c
ce07070438
8e070e0638
0e070e0638
0e070e0638
0e070e0670
0e0e1c0370
0e0e1c0370
0e0e1c03e0
0e1fb801e0
0e0cf801c0
0e007803c0
0e007c03e0
0e00ee0760
0e01c70670
0e01c38e30
0e03839c38
0e0701b81c
0e0e00700e
0e1c00e00f
0e3801c007
0e60038003
0c000e0000
ENDCHAR
STARTCHAR CNS3-2450
ENCODING 12382
SWIDTH 985 0
DWIDTH 40 0
BBX 40 40 0 -3
BITMAP
0060030000
007c03e000
007803c000
0070038000
00f0038000
00e007c000
00e0076000
01c00f3000
01c00e1800
03801e1c00
03801c0e00
0780380780
07807003e0
0f80e001f8
0f81c180ff
1f8381f07f
3b8701e038
338e01c018
63b801c000
c38001c000
038001c000
0380c1c000
0380f9c600
0380f1c300
0380e1c180
0381c1c0c0
0381c1c0e0
0381c1c070
038381c078
038301c038
038701c03c
038601c01c
038c01c01c
039801c00c
039001c000
038003c000
0380ffc000
03801f8000
0380070000
0300060000
ENDCHAR
STARTCHAR CNS1-4923
ENCODING 12383
SWIDTH 985 0
DWIDTH 40 0
BBX 40 40 0 -3
BITMAP
0030300000
003e3e0000
003c3c0000
0078380000
0070380000
0070700000
00e0700000
00e070000c
01c0e0001e
01c0ffffff
0381c0701f
038180701c
0783807018
0783007030
0f86007020
0f84007000
1f80007000
3b80007000
3380607000
63807c7180
c3807870c0
0380707060
0380707070
0380e07038
0380e0703c
0381c0701c
038180701e
038380700e
038300700e
038600700e
038c007006
0398007000
0380007000
0380007000
0380007000
038000f000
03803ff000
038007e000
038001c000
0300018000
ENDCHAR
STARTCHAR CNS2-2329
ENCODING 12384
SWIDTH 985 0
DWIDTH 40 0
BBX 40 40 0 -3
BITMAP
0030018300
003c01e3e0
0038c1c3c0
0078f9c380
0070f1c380
0070e1c380
00e0e1c380
00e0e1c380
01c0e1c380
01c0e1c380
0380e1c380
0380e1c380
0780e1c380
0780e1c384
0f80e1c38e
0f8fffffff
1f80e1c380
3b80e1c380
3380e1c380
6380e1c380
c380e1c380
0380e1c380
0380e1c380
0380e1c380
0380e1c380
0380e1c380
0380e1c380
0380e1ff80
0380e1c380
0380e18300
0380e00000
0380e00000
0380e00000
0380e00000
0380e00000
0380e00018
0380e0003c
0381fffffe
0380c00000
0300000000
ENDCHAR
STARTCHAR CNS3-244F
ENCODING 12385
SWIDTH 985 0
DWIDTH 40 0
BBX 40 40 0 -3
BITMAP
0060000000
007c000000
007800000c
007180001e
00f1ffffff
00e1c3870f
00e1c3870e
01c1c3870e
01c1c3870e
0381c3870e
0381c3870e
0781c3870e
0781c3870e
0f81c3870e
0f81c3870e
1f81c3870e
3b81c3870e
3381c3870e
6381c3870e
c381c7070e
0381c7070e
0381c7078e
0381ce07fe
0381ce03fe
0381dc01fe
0381d8000e
0381f0000e
0381c0000e
0381c0000e
0381c0000e
0381c0000e
0381c0000e
0381c0000e
0381c0000e
0381c0000e
0381fffffe
0381c0000e
0381c0000c
0381800000
0300000000
ENDCHAR
STARTCHAR CNS3-2446
ENCODING 12386
SWIDTH 985 0
DWIDTH 40 0
BBX 40 40 0 -3
BITMAP
0030006000
003e007c00
003c007800
0078007000
0070007000
0070007000
00e0007000
00e0007000
01c0007000
01c0007000
03c1807018
0381c0703c
0781fffffe
0781c0701e
0f81c0701c
0f81c0701c
1f81c0701c
3b81c0701c
3381c0701c
6381c0701c
c381c0701c
8381c0701c
0381c0701c
0381c0701c
0381fffffc
0381c0701c
0381c0701c
0381c0701c
0381c0701c
0381c0701c
0381c0701c
0381c0701c
0381c0701c
0381c0701c
0381c0701c
0381c0701c
0381fffffc
0381c0001c
0381c00018
0301800000
ENDCHAR
STARTCHAR CNS3-2445
ENCODING 12387
SWIDTH 985 0
DWIDTH 40 0
BBX 40 40 0 -3
BITMAP
0030000000
003e000000
003c300180
00783803c0
00703fffe0
00703801e0
00e03801c0
00e03801c0
01c03801c0
01c03801c0
03803801c0
03803801c0
07803801c0
07803801c0
0f803801c0
0f803fffc0
1f803801c0
3b803801c0
33803801c0
63803801c0
c3803801c0
03803801c0
03803801c0
03803801c0
03803801c0
03803801c0
03803fffc0
03803801c0
03803801c0
03803801c0
03803801c0
03803801c0
03803801c0
03803801c0
03803801c0
03803801c4
03803801ce
038fffffff
0380000000
0300000000
ENDCHAR
STARTCHAR CNS2-227B
ENCODING 12388
SWIDTH 985 0
DWIDTH 40 0
BBX 40 40 0 -3
BITMAP
0030000000
003e000030
003c000078
0078fffffc
0070007000
0070007000
00e0007000
00e0007060
01c0c0707c
01c0607078
03803070f0
03803870e0
07801c70c0
07801c71c0
0f800e7180
0f800e7300
1f800e7300
3b80067200
3380007000
6380007004
c38000700e
0383ffffff
0380007000
0380007000
0380007000
0380007000
0380007000
0380007000
0380007000
0380007000
0380007000
0380007000
0380007000
0380007000
0380007000
0380007000
0380007000
0380007000
0380007000
0300006000
ENDCHAR
STARTCHAR CNS2-2322
ENCODING 12389
SWIDTH 985 0
DWIDTH 40 0
BBX 40 40 0 -3
BITMAP
0060000000
007c000008
007800001c
0073fffffe
00f0003800
00e0003800
00e0007000
01c0007000
01c000e000
038000e000
038001e000
078001e000
078003e000
0f8003e000
0f8007e300
1f800ee180
3b800ee0c0
33801ce060
638018e070
c38038e038
038070e03c
0380e0e01c
0380c0e01e
038180e00e
038300e00e
038600e006
038c00e000
038000e000
038000e000
038000e000
038000e000
038000e000
038000e000
038000e000
038000e000
038000c004
038000000e
038fffffff
0380000000
0300000000
ENDCHAR
STARTCHAR CNS3-244E
ENCODING 12390
SWIDTH 985 0
DWIDTH 40 0
BBX 40 40 0 -3
BITMAP
0060000000
007c000000
0078300060
00703800f0
00f03ffff8
00e0380078
00e0380070
01c0380070
01c0380070
0380380070
0380380070
0780380070
0780380070
0f80380070
0f80380070
1f803ffff0
3b80380070
3380380060
6380380000
c380380000
0380380000
0380380018
038038003c
03803ffffe
038038001e
038038001c
038038001c
038038001c
038038001c
038038001c
038038001c
038038001c
038038001c
038038001c
038038001c
03803ffffc
038038001c
0380380018
0380380000
0300300000
ENDCHAR
STARTCHAR CNS3-2449
ENCODING 12391
SWIDTH 985 0
DWIDTH 40 0
BBX 40 40 0 -3
BITMAP
0060000000
007c000000
0078000018
007000003c
00f1fffffe
00e0003800
00e0003800
01c0003800
01c0003800
0380003800
0380003800
0780003800
0780003800
0f80003800
0f80303800
1f803e3800
3b803c3800
3380383810
6380383838
c380383ffc
0380383800
0380383800
0380383800
0380383800
0380383800
0380383800
0380383800
0380383800
0380383800
0380383800
0380383800
0380383800
0380383800
0380383800
0380383800
038038380c
038038381e
0387ffffff
0380000000
0300000000
ENDCHAR
STARTCHAR CNS1-4929
ENCODING 12392
SWIDTH 985 0
DWIDTH 40 0
BBX 40 40 0 -3
BITMAP
0030018000
003e01f000
003c01e000
007801c000
007001c000
007003800c
00e003801e
00e7ffffff
01c0073000
01c0073c00
03800e3800
03800e3800
07801c3800
07801c3800
0f80383830
0f80383878
1f807ffffc
3b8078383c
3380f83838
6380f83838
c381f83838
0383b83838
0383b83838
0387383838
038e383838
038c383838
0398383838
0390383838
0380383838
0380383838
0380383838
0380383878
0380383ff8
03803839f0
03803838e0
03803038c0
0380003800
0380003800
0380003800
0300003000
ENDCHAR
STARTCHAR CNS2-227D
ENCODING 12393
SWIDTH 985 0
DWIDTH 40 0
BBX 40 40 0 -3
BITMAP
003000c000
003e00f800
003c00f000
007800e000
007000e000
007000e000
00e000e000
00e000e000
01c000e020
01c000e070
0381fffff8
038000e000
078000e000
078000e000
0f8000e000
0f8000e000
1f8000e000
3b8000e000
338000e00c
638000e01e
c38fffffff
038003c000
0380038000
0380038000
0380070000
0380070000
03800e0000
03800e0000
03801c00c0
03801c0060
0380380070
0380380038
038070003c
03807007fc
0380e0ff1e
0381ffe00e
0381fe000e
0380f00006
0380700006
0300000000
ENDCHAR
STARTCHAR CNS3-244C
ENCODING 12394
SWIDTH 985 0
DWIDTH 40 0
BBX 40 40 0 -3
BITMAP
0060000000
007c000018
007800003c
0071fffffe
00f001c01e
00e001c01c
00e001c01c
01c001c01c
01c001c01c
038003801c
038003801c
078003801c
078007001c
0f8007001c
0f800e003c
1f800e0038
3b801c1ff8
33801c03f0
63803800e0
c3807000c0
0380e00000
0381c00000
0383b00038
03873ffffc
038c38003c
0380380038
0380380038
0380380038
0380380038
0380380038
0380380038
0380380038
0380380038
0380380038
0380380038
0380380038
03803ffff8
0380380038
0380380030
0300300000
ENDCHAR
STARTCHAR CNS2-253D
ENCODING 12395
SWIDTH 985 0
DWIDTH 40 0
BBX 40 40 0 -3
BITMAP
0060000c00
007c000f80
00780c0f00
00700f8e00
00f00f0e00
00e00e0e00
00e00e0e00
01c00e0e00
01c00e0e00
03800e0e00
03800e0e00
07000e0e00
07060e0e00
0f07ce0e00
0f078e0e08
1f070e0e1c
3f070e2ffe
37070ffe00
67070e0e00
c7070e0e00
07070e0e00
07070e0e00
07070e0e00
07070e0e00
07070e0e00
07070e0e00
07070e0e00
07070e0e00
07070e0e00
07070e0e00
07070e0e00
07070e0e01
07070e0e01
07070e0e03
07070ffe03
07073f8f06
073ff80fff
073fc007ff
071c0003fe
060c000000
ENDCHAR
STARTCHAR CNS2-2324
ENCODING 12396
SWIDTH 985 0
DWIDTH 40 0
BBX 40 40 0 -3
BITMAP
003000c000
003e00f800
003c00f000
007800e000
007000e000
007000e000
00e000e000
00e000e000
01c0c0e0c0
01c0e0e1e0
0380fffff0
0380e0e0f0
0780e0e0e0
0780e0e0e0
0f80e0e0e0
0f80e0e0e0
1f80e0e0e0
3b80e0e0e0
3380e0e0e0
6380e0e0e0
c380e0e0e0
0380e0e0e0
0380e0e0e0
0380e0e0e2
039fffffff
038001c000
038001c000
038001c000
0380038000
0380038600
0380070380
03800701c0
03800e00e0
03801c0070
0380380078
038070003c
0380e0003c
0381c0001c
038700001c
031c00000c
ENDCHAR
STARTCHAR CNS1-487C
ENCODING 12397
SWIDTH 985 0
DWIDTH 40 0
BBX 40 40 0 -3
BITMAP
0030006000
003e007c00
003c007800
0078007000
0070007000
0070007000
00e0007000
00e0007000
01c0007008
01c000701c
0380007ffe
0380007000
0780007000
0780007000
0f80007000
0f80007000
1f80007000
3b80007000
3380007000
6380007000
c380c07030
0380e07078
0380fffffc
0380e0003c
0380e00038
0380e00038
0380e00038
0380e00038
0380e00038
0380e00038
0380e00038
0380e00038
0380e00038
0380e00038
0380e00038
0380e00038
0380fffff8
0380e00038
0380e00030
0300c00000
ENDCHAR
STARTCHAR CNS2-227A
ENCODING 12398
SWIDTH 985 0
DWIDTH 40 0
BBX 40 40 0 -3
BITMAP
0030000000
003e000000
003c00c030
007800703e
007000383c
0070001c38
00e0001c78
00e0000c70
01c0060070
01c007c0e0
03800780e0
03800701c0
07800701c0
0780070380
0f80070380
0f80070700
1f80070700
3b80070e00
3380870e00
6380871c00
c380871c30
0381873818
038187380c
038187700e
038387700e
038387e007
038787c007
038707c007
0387078003
0386078013
03800f8010
03800f8030
03801f8030
03803bc060
038073fff0
0380e1fff0
0381c0ffe0
0383800000
038e000000
0338000000
ENDCHAR
STARTCHAR CNS2-2327
ENCODING 12399
SWIDTH 985 0
DWIDTH 40 0
BBX 40 40 0 -3
BITMAP
0000300000
00003c0000
0000780000
0000780000
0000fc0000
0000e60000
0001c30000
0003818000
000700c000
000e007000
001c003800
0038001c00
0070000f00
00e00007c0
01c00023f8
03800071ff
073ffff87f
0e0000003c
380000000c
e000000000
0000000000
00000000c0
00000001e0
0ffffffff0
0000380000
0000380000
0000380000
0030380000
003c383000
0078381c00
0070380e00
00e0380700
01c0380380
01803803c0
03003801e0
06003801e0
0c003800e0
1800380060
3000380000
0000300000
ENDCHAR
STARTCHAR CNS2-2325
ENCODING 12400
SWIDTH 985 0
DWIDTH 40 0
BBX 40 40 0 -3
BITMAP
0030180000
003e1f0000
003c1e0000
00781c0000
00701c0180
00703803c0
00e03fffe0
00e03803e0
01c0780380
01c06c0380
0380ec0700
0380c60700
0781820e00
0783030e00
0f86019c00
0f8401d800
1f8000f800
3b8000f000
338000f000
638001f800
c380039c00
0380070e00
03800e0700
03801c03c0
03803801f0
03807380ff
0380e0e03f
0381c0781e
0387003c06
039c001c00
0380000c00
0380000000
03800f0000
038003c000
038000f000
0380007800
0380003c00
0380001e00
0380000e00
0300000600
ENDCHAR
STARTCHAR CNS1-4921
ENCODING 12401
SWIDTH 985 0
DWIDTH 40 0
BBX 40 40 0 -3
BITMAP
0030000000
003e00000c
003cc0001e
0078ffffff
0070e0380f
0070e0380e
00e0e0380e
00e0e0380e
01c0e0380e
01c0e0380e
0380e0380e
0380e0380e
0780e0380e
0780e0380e
0f80fffffe
0f80e0380e
1f80e0380e
3b80e0380e
3380e0380e
6380e0380e
c380e0380e
0380e0380e
0380e0380e
0380e0380e
0380e0380e
0380fffffe
0380e0380e
0380e0380e
0380e0380e
0381c0380e
0381c0380e
0381c0380e
038180380e
038380380e
038300380e
038700381e
03860039fe
038c00383c
0398003038
0330000030
ENDCHAR
STARTCHAR CNS2-253F
ENCODING 12402
SWIDTH 985 0
DWIDTH 40 0
BBX 40 40 0 -3
BITMAP
0030000000
003e000000
003c00000c
0078c0001e
0070ffffff
0070e0000f
00e0e0000e
00e0e0000e
01c0e0000e
01c0e0000e
0380e0000e
0380e0000e
0780e1870e
0780e1ff8e
0f80e1c78e
0f80e1c70e
1f80e1c70e
3b80e1c70e
3380e1c70e
6380e1c70e
c380e1c70e
0380e1c70e
0380e1c70e
0380e1c70e
0380e1c70e
0380e1ff0e
0380e1c70e
0380e1860e
0380e0000e
0380e0000e
0380e0000e
0380e0000e
0380e0000e
0380e0000e
0380fffffe
0380e0000e
0380e0000c
0380c00000
0380000000
0300000000
ENDCHAR
STARTCHAR CNS1-4B71
ENCODING 12403
SWIDTH 985 0
DWIDTH 40 0
BBX 40 40 0 -3
BITMAP
003000c000
003e00f800
003c00f000
007800e000
007000e000
007000e080
00e000e1cc
00e1ffffef
01c000e01e
01c000e01c
03c000e038
03c000e070
07c000e0e0
07c000e1c0
0fc000e384
0fc000e70e
1dc7ffffff
39c0001c00
31c0003800
61c0007000
c1c000e000
01c001c000
01c0038000
01c0078000
01c00f8010
01c01f8038
01c03bfffc
01c0738000
01c0e38000
01c1c38000
01c3838000
01c7038000
01cc038000
01d8038000
01c0038000
01c003c000
01c003fffe
01c001ffff
01c000ffff
0180000000
ENDCHAR
STARTCHAR CNS2-254C
ENCODING 12404
SWIDTH 985 0
DWIDTH 40 0
BBX 40 40 0 -3
BITMAP
003000c000
003e00f000
003c00e000
007801e000
007001f000
007003b000
00e0039800
00e0071800
01c0070c00
01c00e0e00
03800e0700
03801c0380
07803803c0
07803801e0
0f807000f0
0f80e0007c
1f81c0013f
3b8380039f
33873fffce
638e000006
c3b8000000
0380000000
0380000000
03806000c0
03807001e0
03807ffff0
03807000f0
03807000e0
03807000e0
03807000e0
03807000e0
03807000e0
03807000e0
03807000e0
03807000e0
03807000e0
03807fffe0
03807000e0
03807000c0
0300600000
ENDCHAR
STARTCHAR CNS4-253E
ENCODING 12405
SWIDTH 985 0
DWIDTH 40 0
BBX 40 40 0 -3
BITMAP
0000300000
00003c0000
0000780000
0000fc0000
0001c60000
0003830000
000701c000
000e00e000
001c007000
0038003c00
0070001f00
00e00007e0
01c00003ff
07000000ff
0e7ffffe3c
380000000c
e000000000
0000000000
0000000020
0000000070
1ffffffff8
00001c0000
00001c0000
00001c0000
00001c0000
00c01c0000
00f81c0100
00f01c0380
00e01fffc0
00e01c0000
00e01c0000
00e01c0000
00e01c0000
00e01c0000
00e01c0000
00e01c0004
00e01c000e
ffffffffff
0000000000
0000000000
ENDCHAR
STARTCHAR CNS2-253C
ENCODING 12406
SWIDTH 985 0
DWIDTH 40 0
BBX 40 40 0 -3
BITMAP
0030000000
003e6000c0
003c7001e0
00787ffff0
00707000f0
00707000e0
00e07000e0
00e07000e0
01c07000e0
01c07000e0
03807000e0
03807fffe0
07807000e0
07807000e0
0f807000e0
0f807000e0
1f807000e0
3b807000e0
33807000e0
63807fffe0
c3807100c0
0380710000
0380718000
0380718030
038070c07c
038070c0f0
03807061e0
0380707380
0380703e00
0380701c00
0380701e00
0380700f00
0380700780
0380703be0
038071e1f8
03807f80ff
03807e007f
03807c003c
038070000c
0300300000
ENDCHAR
STARTCHAR CNS2-2543
ENCODING 12407
SWIDTH 985 0
DWIDTH 40 0
BBX 40 40 0 -3
BITMAP
0030000000
003e0001e0
003c003ff0
007807fff8
0070fff000
0070007000
00e0007000
00e0007000
01c0007000
01c0007000
0380007000
038000700c
078000701e
0787ffffff
0f80007000
0f80007000
1f80007000
3b80007000
3380007000
6380007000
c380007000
0380c07030
0380e07078
0380fffffc
0380e0003c
0380e00038
0380e00038
0380e00038
0380e00038
0380e00038
0380e00038
0380e00038
0380e00038
0380e00038
0380e00038
0380e00038
0380fffff8
0380e00038
0380e00030
0300c00000
ENDCHAR
STARTCHAR CNS2-2541
ENCODING 12408
SWIDTH 985 0
DWIDTH 40 0
BBX 40 40 0 -3
BITMAP
0030180000
003e1f0000
003c1e0000
00781c0300
00703c0780
00703fffc0
00e03807c0
00e0700700
01c0600e00
01c0e00c00
0380c0180c
038180301e
0783ffffff
0782e00000
0f80e00000
0f80e00000
1f80e30070
3b80e3fff8
3380e38078
6380e38070
c380e38070
0380e38070
0380e38070
0380e38070
0380e38070
0380e38070
0380e380f0
0381c3bff0
0381c387e0
0381c381c0
0381c38181
0381c38001
0383838003
0383838003
0383838006
038303c00e
038703ffff
038601ffff
038c00fffe
0308000000
ENDCHAR
STARTCHAR CNS1-4C21
ENCODING 12409
SWIDTH 985 0
DWIDTH 40 0
BBX 40 40 0 -3
BITMAP
0030030000
003e018000
003c00e000
007800e000
007000f000
007001d800
00e0018800
00e0038c00
01c0070600
01c0070300
03c00e0380
03c01c01c0
07c03800f0
07c070007c
0fc0e0003f
0fc1c0001f
1dc380000e
39c7000006
31dc000060
61c1fffff0
c1c000e000
01c000e000
01c000e000
01c000e000
01c000e000
01c000e000
01c000e000
01c000e0c0
01c0ffffe0
01c000e000
01c000e000
01c000e000
01c000e000
01c000e000
01c000e000
01c000e000
01c000e018
01c000e03c
01cffffffe
0180000000
ENDCHAR
STARTCHAR CNS2-2535
ENCODING 12410
SWIDTH 985 0
DWIDTH 40 0
BBX 40 40 0 -3
BITMAP
018000c000
01f000f800
01e000f000
01c000e000
038000e000
038000e000
038001c000
070001c000
070001c018
070083803c
0e01c3fffe
0e7fe31c3e
1e00071c38
1e00061c30
3e000e1c60
3e000c1c40
6e00181c00
6e00101c00
ce00001c00
8e00001c00
0e00001c00
0e00003e00
0e00803a00
0e01c03a00
0e7fe03b00
0e00007300
0e00007100
0e00007180
0e0000e180
0e0000e0c0
0e0001c0c0
0e0001c0e0
0e00038070
0e00038078
0e0007003c
0e000e003f
0e001c001f
0e0038000e
0e00e00006
0c03800000
ENDCHAR
STARTCHAR CNS1-4B7C
ENCODING 12411
SWIDTH 985 0
DWIDTH 40 0
BBX 40 40 0 -3
BITMAP
0060001800
007c000c00
0078000600
0070180600
00f01e0300
00e01c0380
00e01c0180
01c03801c0
01c03800e0
0380300070
038070007c
078060003f
0780c0001f
0f8180000e
0f833000e6
1f863ffff0
3b8c3800f0
33803800e0
63803800e0
c3803b80e0
038038f0e0
0380383ce0
0380381ce0
03803800e0
03803800e0
03803800e0
03803807e0
0380383ce0
038037f0e0
038077c0e0
03807380e0
03807180e0
03806000e0
0380e000e0
0380c000e0
0381c001e0
0381807fe0
0383000fc0
0386000380
030c000300
ENDCHAR
STARTCHAR CNS2-2542
ENCODING 12412
SWIDTH 985 0
DWIDTH 40 0
BBX 40 40 0 -3
BITMAP
0030006000
003e007c00
003c007800
0078307000
00703c7000
0070387000
00e0387000
00e0387000
01c0707030
01c0707078
03807ffffc
0380e07000
0780c07000
0781c07000
0f81807000
0f83007000
1f82007000
3b80007000
3380007004
638000700e
c387ffffff
0380070700
0380070700
0380070700
0380070700
0380070700
03800e0700
03800e0700
03800e0700
03801c0700
03801c0700
0380380701
0380380701
0380700703
0380e00703
0381c00786
03838007ff
03870003ff
039c0001fe
0370000000
ENDCHAR
STARTCHAR CNS2-2549
ENCODING 12413
SWIDTH 985 0
DWIDTH 40 0
BBX 40 40 0 -3
BITMAP
003000c000
003e007000
003c003800
0078003804
007180180e
0071ffffff
00e1c00000
00e1c00000
01c1c000e0
01c1c003f0
0381c01ff8
0381c1ff00
0781cfb800
0781c03800
0f81c03800
0f81c03800
1f81c03800
3b81c03800
3381c03800
6381c03808
c381c0381c
0381dffffe
0381c03800
0381c03800
0381c03800
0381c03800
0381c03800
0383803800
0383803800
0383803800
0383803801
0383003801
0387003803
0387003803
0386003806
038e003c0e
038c003fff
0398001fff
03b0000ffe
0300000000
ENDCHAR
STARTCHAR CNS2-253B
ENCODING 12414
SWIDTH 985 0
DWIDTH 40 0
BBX 40 40 0 -3
BITMAP
0030000000
003e000008
003c00001c
0079fffffe
007001e000
007001c000
00e001c000
00e0038000
01c0038000
01c0070180
03800e00c0
03800c0060
0780180070
0780300038
0f8060001c
0f80c01ffe
1f81ffff0e
3b81ffb00e
3380f03c06
6380703800
c380003800
0380003800
0380003800
0380003800
0380003810
0380003838
03807ffffc
0380003800
0380003800
0380003800
0380003800
0380003800
0380003800
0380003800
0380003800
0380003804
038000380e
0383ffffff
0380000000
0300000000
ENDCHAR
STARTCHAR CNS2-2534
ENCODING 12577
SWIDTH 985 0
DWIDTH 40 0
BBX 40 40 0 -3
BITMAP
0030030000
003e01c000
003c00e000
007800f000
0070007000
0070007000
00e000300c
00e000001e
01c7ffffff
01c0006000
0380007800
038000f000
078000e000
078001c000
0f80038000
0f80070180
1f800e01e0
3b801c03c0
3380380380
6380780700
c3807e0e00
03800f9c00
038001f800
0380007030
038000e03c
038001c078
0380038070
03800700e0
03801c01c0
0380380380
0380e00700
0387800e00
0380001c00
0380003f80
038000f1e0
038001c078
038007803c
03801e001e
038078000e
0307c00006
ENDCHAR
STARTCHAR CNS2-253A
ENCODING 12578
SWIDTH 985 0
DWIDTH 40 0
BBX 40 40 0 -3
BITMAP
0030018000
003e01f000
003c01e000
007801c000
007001c000
007001c008
00e003801c
00e7fffffe
01c0070800
01c0070c00
03800e0400
03800e0600
07801c0300
0780380380
0f807001e0
0f80e006f8
1f81dfff7f
3b8380003f
338700001c
638e00000c
c3b8000000
0383fffff8
03801c0000
03801c0000
03801c0000
03803800c0
03803801e0
03807ffff0
03803000f0
03800000e0
03800000e0
03800001e0
03800001c0
03800003c0
0380000380
0380000f80
038003ff00
0380007e00
0380001c00
0300001800
ENDCHAR
STARTCHAR CNS3-2744
ENCODING 12579
SWIDTH 985 0
DWIDTH 40 0
BBX 40 40 0 -3
BITMAP
006000c000
007c00f800
007800f000
007000e060
00f180e07c
00e0c0e078
00e0e0e0f0
01c070e0e0
01c070e0e0
038038e1c0
038038e180
078038e380
078018e300
0f8018e200
0f8000e000
1f8000e008
3b8000e01c
3387fffffe
63800e0e00
c3800e0e00
03800e0e00
03800e0e00
03800e0e00
03800e0e00
03800e0e00
03800e0e00
03801c0e00
03801c0e00
03801c0e00
0380380e00
0380380e01
0380700e01
0380700e03
0380e00e03
0380e00e06
0381c00f0e
0383800fff
03870007ff
038e0003fe
0338000000
ENDCHAR
STARTCHAR CNS3-2751
ENCODING 12580
SWIDTH 985 0
DWIDTH 40 0
BBX 40 40 0 -3
BITMAP
0000380000
00003e0000
0000780000
0000760000
0000e30000
0001c1c000
000380f000
000f003c00
001c00df80
007bffe7ff
01e00001ff
078000007c
3e0000381c
f03ffffc00
0000007c00
0000007000
000000e000
000001c000
0000018100
0000030380
03ffffffc0
0000000000
0000000000
0000000000
0000000030
0000000078
3ffffffffc
0001c00000
0001f00000
0003c00000
0007803000
000e001c00
001c000e00
0038000700
00e00fff80
03fffc03c0
03ff0001c0
01f80001c0
00e00000c0
0060000000
ENDCHAR
STARTCHAR CNS3-2748
ENCODING 12581
SWIDTH 985 0
DWIDTH 40 0
BBX 40 40 0 -3
BITMAP
0060006000
007c007c00
0078007800
0070007000
00f0c07060
00e060707c
00e0307078
01c03870f0
01c01c70e0
03801c71c0
03800e7180
07000e7300
0700067200
0f00007000
0f0000700c
1f0000701e
3f03ffffff
3700007000
6700007000
c700007000
0700007000
0700187000
07001e7180
07003c70c0
0700387060
0700787030
0700707038
0700e0701c
0700e0701e
0701c0700e
070380700f
0703007007
0706007007
070c007003
0718007000
0700007000
0700007000
0700007000
0700007000
0600006000
ENDCHAR
STARTCHAR CNS2-2544
ENCODING 12582
SWIDTH 985 0
DWIDTH 40 0
BBX 40 40 0 -3
BITMAP
0030000000
003e018000
003c01f000
007801e000
007001c000
007003c000
00e0038000
00e0070000
01c0070000
01c00e0000
03800c0030
0383180078
0783fffffc
0783871c3c
0f83871c38
0f83871c38
1f83871c38
3b83871c38
3383871c38
6383871c38
c383871c38
0383871c38
0383871c38
0383871c38
0383871c38
0383871c38
0383871c38
0383871c38
0383871c38
0383871c38
0383871c38
0383871c38
0383871c38
0383871c38
0383871c38
0383871c38
0383871c38
039fffffff
0380000000
0300000000
ENDCHAR
STARTCHAR CNS2-2548
ENCODING 12583
SWIDTH 985 0
DWIDTH 40 0
BBX 40 40 0 -3
BITMAP
0030018000
003e00c000
003c00e000
0078007000
0070007000
007080700c
00e080301e
00e1ffffff
01c180001f
01c380001c
0387060018
038707c030
0786078020
0780070000
0f80070000
0f80070000
1f80070300
3b800e03c0
33800e0384
63800e038e
c38fffffff
03801c0700
03801c0700
0380380700
0380380700
0380380e00
0380700e00
0380700e00
0380fc1c00
03806fbc00
038003f800
038000fc00
038000ff00
038001efc0
038003c3e0
03800781f0
03801e00f8
0380780078
0381e00038
030f000000
ENDCHAR
STARTCHAR CNS3-2743
ENCODING 12584
SWIDTH 985 0
DWIDTH 40 0
BBX 40 40 0 -3
BITMAP
0030018000
003e01f000
003c01e000
007801c000
007001c180
007001c3c0
00e1ffffe0
00e001c1e0
01c001c1c0
01c001c1c0
038001c1c4
038001c1ce
079fffffff
078001c1c0
0f8001c1c0
0f8001c1c0
1f8001c1c0
3b8001c1c0
3381ffffc0
638001c180
c38001c000
038001c000
038001c020
038001c070
0387fffff8
038001c000
038001c000
038001c000
038001c00c
038001c01e
039fffffff
038001c000
038001c000
038001c000
038001c000
038001c000
038001c000
038001c000
038001c000
0300018000
ENDCHAR
STARTCHAR CNS2-2546
ENCODING 12585
SWIDTH 985 0
DWIDTH 40 0
BBX 40 40 0 -3
BITMAP
0030060000
003e07c000
003c078000
00780f0000
00700e0000
00701c0180
00e03800c0
00e0700060
01c0e00070
01c1c01ff8
0383fffc3c
0383fe001c
0781e0001c
0780e0600c
0f80007c00
0f80c07800
1f80f07000
3b80e07000
3380e07010
6380c07038
c381fffffc
0381c07000
0381807000
0383807000
0383007000
0386007000
0384007004
038000700e
038fffffff
0380007000
0380007000
0380007000
0380007000
0380007000
0380007000
0380007000
0380007000
0380007000
0380007000
0300006000
ENDCHAR
STARTCHAR CNS2-253E
ENCODING 12586
SWIDTH 985 0
DWIDTH 40 0
BBX 40 40 0 -3
BITMAP
0030000000
003c00000c
0038c0001e
0078ffffff
0070e0000f
0070e0000e
00e0e0000e
00e0e0000e
01c0e0008e
01c0e001ce
0380efffee
0380e0000e
0780e0000e
0780e0000e
0f80e0000e
0f80e0030e
1f80e3078e
3b80e3ffce
3380e383ce
6380e3838e
c380e3838e
0380e3838e
0380e3838e
0380e3838e
0380e3838e
0380e3838e
0380e3ff8e
0380e3838e
0380e3830e
0380e3000e
0380e0000e
0380e0000e
0380e0000e
0380e0000e
0380e0000e
0380e0001e
0380e003fe
0380e0007c
0380e00038
0300c00030
ENDCHAR
STARTCHAR CNS4-2536
ENCODING 12587
SWIDTH 985 0
DWIDTH 40 0
BBX 40 40 0 -3
BITMAP
0060001800
007c001f00
0078001e60
0070001c38
00f0001c1c
00e0001c1c
00e0001c0c
01c0001c00
01c0001c00
0380001c06
038fffffff
0780001c00
0780001c00
0f80001c00
0f80001c00
1f80000e00
3b80000e00
3380018e00
6387ffce00
c380380e00
0380380e00
0380380700
0380380700
0380380700
0380380700
0380380700
0380380380
0380380380
038039e380
03807f81c1
038ffc01c1
038fe000e3
03870000e3
0383000076
038000007e
038000003e
038000003e
038000001f
038000000f
0300000006
ENDCHAR
STARTCHAR CNS2-2540
ENCODING 12588
SWIDTH 985 0
DWIDTH 40 0
BBX 40 40 0 -3
BITMAP
0030600000
003e7c0000
003c780000
0078700000
0070700000
0070700000
00e0e0000c
00e0e0001e
01c0ffffff
01c1c0000f
038180000e
038380000e
078300000e
078600180e
0f84603c0e
0f807ffe0e
1f80701e0e
3b80701c0e
3380701c0e
6380701c0e
c380701c0e
03807ffc0e
0380701c0e
0380701c0e
0380701c0e
0380701c0e
0380701c0e
03807ffc0e
0380701c0e
038060180e
038000001e
038000001c
038000001c
038000003c
0380000038
03800000f8
0380003ff0
03800007e0
03800001c0
0300000180
ENDCHAR
STARTCHAR CNS2-2547
ENCODING 12589
SWIDTH 985 0
DWIDTH 40 0
BBX 40 40 0 -3
BITMAP
0060c00000
0078f80000
0070f00000
0070e00000
00f0e00000
00e0e00000
00e0e00000
01c0e3000c
01c0e3c61e
0380e387ff
0380e3870f
0700eff70e
073ffb870e
0f1ee3870e
0f00e3870e
1f00e3870e
3f01c3870e
3701c3870e
6701c3870e
c701c7070e
070387070e
070387070e
070387070e
070707070e
07070e070e
070e0e070e
070e0e070e
07071c070e
0701dc070e
0700f8070e
070078070e
07007c070e
0700fe070e
0700ef070e
0701c787fe
070383870e
070701870c
070e000600
071c000000
0670000000
ENDCHAR
STARTCHAR CNS3-274C
ENCODING 12590
SWIDTH 985 0
DWIDTH 40 0
BBX 40 40 0 -3
BITMAP
0060030000
007c03e000
007803c000
0070038000
00f003800c
00e003801e
00e7ffffff
01c0070000
01c0070000
0380070000
03800e0000
07800e0030
07800c0078
0f801ffffc
0f801c007c
1f80380070
3b803800e0
33807000c0
6380700180
c380f00300
0380f00700
0381f00700
0383f00700
0383700704
038670070e
038c7fffff
0388700700
0380700700
0380700700
0380700700
0380700700
0380700700
0380700700
0380700700
0380700700
0380700f00
038071ff00
0380703f00
0380700e00
0300600c00
ENDCHAR
STARTCHAR CNS2-2922
ENCODING 12591
SWIDTH 985 0
DWIDTH 40 0
BBX 40 40 0 -3
BITMAP
0030000000
003c000000
0038c00018
0078e0003c
0070fffffe
0070e00000
00e0e00000
00e0e00000
01c0e00000
01c0e00060
0380e000f0
0380fffff8
0780e00000
0780e00000
0f80e00000
0f80e00000
1f80e00018
3b80e0003c
3380fffffe
6380e70800
c380e70800
0380e70c00
0380e70c0c
0381c70c1f
0381c7063c
0381c70670
0381c707c0
0381c70300
0383870380
0383870180
03838701c0
03830700e0
0387070cf0
0386071878
038607703c
038c07e03f
038c07c01f
039807800e
0390070006
0300030000
ENDCHAR
STARTCHAR CNS1-5021
ENCODING 12592
SWIDTH 985 0
DWIDTH 40 0
BBX 40 40 0 -3
BITMAP
0030000000
003e600030
003c700078
00787ffffc
007070003c
0070700038
00e0700038
00e0700038
01c0700038
01c0700038
03807ffff8
0380700030
0780700000
0780700000
0f8070000c
0f8070001e
1f807fffff
3b80e0000f
3380e0000e
6380e0000e
c380e0060e
0380e60f0e
0380e7ff8e
0380e7078e
0381c7070e
0381c7070e
0381c7070e
0381c7070e
038187070e
038387ff0e
038387070e
038306060e
038700000e
038600001e
038e00001c
038c00007c
0398003ff8
03900003f0
03800000e0
03000000c0
ENDCHAR
ENDFONT
